<svg xmlns="http://www.w3.org/2000/svg" width="870.456" height="138.673" viewBox="0 0 870.456 138.673"><g transform="translate(-253.36 -1247.072)"><g transform="translate(253 1263.347)"><path d="M6.21-4.464c.126-.72.09-.936,1.62-.936.4,0,1.17.018,1.17.576a15.5,15.5,0,0,1-.4,2.5c-.162.828-1.1.378-1.1,1.314,0,1.044.918,1.152,3.51,1.152,2.466,0,3.06-.522,3.06-1.206,0-1.188-1.008-.288-.972-1.62.072-2.322.522-5.022.828-7.254.18-1.386,1.332-.612,1.332-1.8,0-.612-.378-1.026-2.79-1.026-2.97,0-3.672.306-3.672,1.224,0,.882.792.486.792,1.476A11.871,11.871,0,0,1,9.378-7.9c-.144.4-.918.432-1.242.432-1.674,0-1.53-.27-1.53-.522A15.967,15.967,0,0,1,6.84-9.936C7-10.98,8.064-10.656,8.064-11.7c0-.648-.45-1.062-2.628-1.062-4.194,0-3.924,1.17-3.924,1.368,0,.99,1.026.45,1.026,1.494A28.651,28.651,0,0,1,1.512-2.3C1.35-1.764.36-1.8.36-1.008.36.036,1.548.144,3.744.144c2.682,0,3.078-.576,3.078-1.224,0-.81-.792-.468-.792-1.206ZM21.474-9.306c-3.276,0-6.768,2.43-6.93,6.174C14.454-.72,16.362.234,18.558.234a7.382,7.382,0,0,0,3.114-.72c.738-.342,1.944-.936,1.944-1.89a.794.794,0,0,0-.72-.756c-.576,0-1.566,1.026-2.862,1.026-.45,0-1.1-.288-1.1-.81,0-.378.45-.378.7-.378,2.034,0,4.464-1.692,4.464-3.87C24.1-8.748,22.9-9.306,21.474-9.306ZM20.142-7.524c.288,0,.4.324.414.558.054.864-.828,2.2-1.332,2.2-.252,0-.324-.288-.324-.5C18.9-5.85,19.4-7.524,20.142-7.524Zm8.532,4.932c-.36.036-.414-.432-.414-.7C28.242-4.446,29.448-7.128,30.4-7.2c.288-.018.36.342.36.576C30.8-5.724,29.628-2.664,28.674-2.592Zm5-6.624a3.371,3.371,0,0,0-1.53.468,1.913,1.913,0,0,1-.684.288c-.522,0-1.026-.864-2.286-.738-2.772.252-4.788,3.276-4.932,6.516-.072,1.458.612,2.916,2.268,2.916,1.854,0,2.736-1.62,3.2-1.62.576,0-.2,1.53,1.4,1.53.99,0,3.618-1.044,3.618-2.214,0-.288-.18-.414-.45-.45-.2-.018-.324,0-.4-.216a3.536,3.536,0,0,1-.018-1.152c.144-1.944.468-3.564.54-4.644C34.452-9.036,34.182-9.216,33.678-9.216Zm6.8,3.906c.018-.162.126-.918.378-.918.144,0,.306.324.36.432a1.214,1.214,0,0,0,1.206.774c1.224,0,1.764-1.062,1.764-2.16a2.032,2.032,0,0,0-1.962-2.142c-1.674,0-1.62,1.728-2.142,1.728-.576,0-.09-1.71-1.188-1.71a3.747,3.747,0,0,0-1.656.468c-.684.342-2.142.63-2.142,1.6,0,.648.288.792.846.792.486,0,.54.144.522.63-.036,1.674-.756,3.924-.756,5,0,.81.72.99,1.386.954,2.466-.108,3.222-.792,3.114-2.538Zm4.212,3.258a6.391,6.391,0,0,0-.108,1.008c0,.756.774,1.17,1.458,1.17,1.026,0,3.87-.828,3.87-2.2,0-.432-.252-.45-.594-.45-.288,0-.522,0-.486-.342.09-.7.414-2.772.45-2.97a22.1,22.1,0,0,0,.306-2.556.722.722,0,0,0-.81-.828,9.5,9.5,0,0,0-3.132.756c-.594.252-1.422.594-1.422,1.368,0,.648.432.63.7.63.306,0,.4.126.4.36a7.838,7.838,0,0,1-.162.99Zm1.962-7.9c1.08.072,3.6-.828,3.618-2.142.018-.774-.846-1.026-1.494-1.026-1.152,0-3.726.738-3.726,2.178C45.054-10.152,46.044-9.99,46.656-9.954ZM56.79-4.1a22.39,22.39,0,0,0-.468,3.024,1.135,1.135,0,0,0,1.3,1.206c1.026,0,3.744-.774,3.744-2.088,0-.7-.864-.252-.864-.972,0-1.1.63-3.258.63-4.536a1.86,1.86,0,0,0-2.052-1.746c-1.566,0-3.042,1.6-3.492,1.6-.558,0-.072-1.584-1.17-1.584a8.537,8.537,0,0,0-3.276.99c-.4.216-.918.576-.918,1.08,0,.36.144.576.5.576h.18c.378,0,.5.216.5.576.054,1.566-.774,4.266-.774,5.166,0,.792.666.972,1.314.936,2.322-.126,2.718-.594,2.9-2.574.108-1.1.342-3.834,1.656-3.834.342,0,.5.252.5.576Zm9.54,2.16c-.4,0-1.566.072-1.566-.576a.407.407,0,0,1,.414-.414,13.39,13.39,0,0,0,1.638.162c2.25,0,4.878-.792,5.112-3.69a2.553,2.553,0,0,0-.486-1.548c0-.18.378-.468.378-1.008A1.471,1.471,0,0,0,70.614-10.3c-.684,0-.7,1.17-1.674,1.17a7.882,7.882,0,0,1-.918-.072A7.882,7.882,0,0,0,67.1-9.27c-2.178,0-5.058,1.17-5.058,3.744A2.293,2.293,0,0,0,63-3.582c.126.108.216.144.216.324,0,.234-.216.27-.4.342A1.867,1.867,0,0,0,61.506-1.26c0,.9.666,1.188.666,1.422,0,.252-.5.36-.5,1.026,0,1.764,2.934,2.034,4.212,2.034,2,0,5.256-.756,5.256-3.276,0-1.332-1.044-1.962-2.268-1.962Zm.378-2.394c-.468,0-.612-.252-.576-.666.054-.738.162-2.79,1.206-2.79.468,0,.612.306.558.7C67.806-6.336,67.7-4.338,66.708-4.338ZM65.646,1.926c-.54,0-1.926-.108-1.926-.882,0-.09,0-.306.144-.324a13.943,13.943,0,0,0,3.2.162c.2-.036.4.054.4.288C67.464,1.818,66.078,1.926,65.646,1.926Z" transform="translate(0 76.659)" fill="#001650"/><path d="M4.428-12.618a2.321,2.321,0,0,1-.648-.108,1.8,1.8,0,0,0-.522-.108c-1.332,0-2.376,2.142-2.376,3.276A1.229,1.229,0,0,0,2.16-8.208c1.6,0,1.386-2.232,2.286-2.232.324,0,.432.324.432.594A60.654,60.654,0,0,1,3.816-2.484c-.324.864-1.6.324-1.6,1.4C2.214-.7,2.268.144,5.508.144,9.252.144,9.9-.612,9.9-1.152c0-1.08-1.368-.288-1.368-1.836,0-1.53.378-4.32.486-5.4.144-1.3.162-2.052.738-2.052.792,0,.558,2.232,1.926,2.232,1.026,0,1.494-.846,1.494-1.8,0-.864-.648-2.826-1.746-2.826a2.3,2.3,0,0,0-.594.108,5.473,5.473,0,0,1-1.278.108Zm13.446,2.97a21.792,21.792,0,0,0,.324-2.358c0-.756-.522-.864-1.206-.864a9.035,9.035,0,0,0-2.664.486c-.63.2-1.656.558-1.656,1.368,0,.576.4.54.81.558.432.018.486.234.486.612a68.778,68.778,0,0,1-1.062,7.02,19.226,19.226,0,0,0-.324,1.908c0,.882.828,1.08,1.566,1.08A3.862,3.862,0,0,0,16.38-.666a2.462,2.462,0,0,0,.414-1.386c.09-.7.432-4.32,1.782-4.32.4,0,.522.4.522.756,0,.918-.756,3.2-.756,4.374,0,.918.4,1.314,1.314,1.368C20.7.2,23.418-.792,23.508-2.07c.054-.882-.936-.072-.918-1.008.018-1.026.612-2.988.612-4.338a1.8,1.8,0,0,0-2.052-1.89c-1.638,0-3.078,1.6-3.4,1.6-.252,0-.108-.558-.054-.828Zm6.5,7.6a6.39,6.39,0,0,0-.108,1.008c0,.756.774,1.17,1.458,1.17,1.026,0,3.87-.828,3.87-2.2,0-.432-.252-.45-.594-.45-.288,0-.522,0-.486-.342.09-.7.414-2.772.45-2.97a22.1,22.1,0,0,0,.306-2.556.722.722,0,0,0-.81-.828,9.5,9.5,0,0,0-3.132.756c-.594.252-1.422.594-1.422,1.368,0,.648.432.63.7.63.306,0,.4.126.4.36a7.838,7.838,0,0,1-.162.99Zm1.962-7.9c1.08.072,3.6-.828,3.618-2.142.018-.774-.846-1.026-1.494-1.026-1.152,0-3.726.738-3.726,2.178C24.732-10.152,25.722-9.99,26.334-9.954ZM36.468-4.1A22.39,22.39,0,0,0,36-1.08,1.135,1.135,0,0,0,37.3.126c1.026,0,3.744-.774,3.744-2.088,0-.7-.864-.252-.864-.972,0-1.1.63-3.258.63-4.536a1.86,1.86,0,0,0-2.052-1.746c-1.566,0-3.042,1.6-3.492,1.6-.558,0-.072-1.584-1.17-1.584a8.537,8.537,0,0,0-3.276.99c-.4.216-.918.576-.918,1.08,0,.36.144.576.5.576h.18c.378,0,.5.216.5.576.054,1.566-.774,4.266-.774,5.166,0,.792.666.972,1.314.936,2.322-.126,2.718-.594,2.9-2.574.108-1.1.342-3.834,1.656-3.834.342,0,.5.252.5.576ZM46.782-11.07c.036-.306.108-.774.108-1.062,0-.612-.288-.738-.846-.738-.99,0-4.572.432-4.5,2.016.018.468.162.486.594.45.612-.054.666.162.666.756A55.855,55.855,0,0,1,41.652-1.6a4.108,4.108,0,0,0-.072.81c0,.756.468,1.008,1.26.936,2.5-.2,2.7-.72,2.844-2.3.018-.216.126-.72.414-.72.252,0,.558.918.648,1.152.342.9.522,1.89,1.656,1.89.9,0,3.384-.756,3.384-1.89,0-.4-.162-.432-.486-.576a.868.868,0,0,1-.45-.4L50.04-4a1.342,1.342,0,0,1-.18-.36c0-.144.36-.252.45-.306a2.788,2.788,0,0,0,1.8-2.43,2.037,2.037,0,0,0-2.286-2.232,4.364,4.364,0,0,0-2.646,1.062c-.126.09-.4.306-.558.306-.306,0-.18-.612-.162-.72Zm-.774,6.93c-.108,0-.108-.126-.108-.2,0-.738.828-2.34,1.674-2.34.288,0,.414.234.414.5A2.607,2.607,0,0,1,46.008-4.14Z" transform="translate(161.215 18.036)" fill="#001650"/><path d="M7.164-8.964c.09-.666-.072-1.674,1.026-1.674,1.548,0,1.764,1.548,1.764,2.952,0,2.178-.432,5.508-2.628,5.508-.648,0-.612-.45-.63-1.044ZM7.47,0C13.9,0,14.6-5.292,14.6-7.272c0-5.148-3.618-5.472-5.6-5.436-1.764.036-3.654.09-5.31.09-.9,0-2,.036-2,1.206,0,1.08,1.206.27,1.206,1.728A39.57,39.57,0,0,1,1.872-2.556C1.548-1.53.432-2.232.432-.99c0,.882.63,1.062,1.4,1.062.27,0,.522-.018.792-.036C2.88.018,3.15,0,3.4,0ZM21.438-9.306c-3.276,0-6.768,2.43-6.93,6.174C14.418-.72,16.326.234,18.522.234a7.382,7.382,0,0,0,3.114-.72c.738-.342,1.944-.936,1.944-1.89a.794.794,0,0,0-.72-.756c-.576,0-1.566,1.026-2.862,1.026-.45,0-1.1-.288-1.1-.81,0-.378.45-.378.7-.378,2.034,0,4.464-1.692,4.464-3.87C24.066-8.748,22.86-9.306,21.438-9.306ZM20.106-7.524c.288,0,.4.324.414.558.054.864-.828,2.2-1.332,2.2-.252,0-.324-.288-.324-.5C18.864-5.85,19.368-7.524,20.106-7.524Zm11.916-.27c0-1.206-1.8-1.512-2.736-1.512-1.854,0-4.32.972-4.32,3.132,0,2.016,2.25,2.952,2.25,3.906,0,.4-.414.594-.774.594-.9,0-.774-1.206-1.53-1.206-.612,0-.954.738-.954,1.278,0,1.512,2.124,1.836,3.276,1.836,1.818,0,4.446-.81,4.446-3.042,0-2.16-2.574-3.024-2.574-4.194a.531.531,0,0,1,.558-.522c.684,0,.684,1.044,1.4,1.044C31.7-6.48,32.022-7.254,32.022-7.794Zm.81,5.742a6.39,6.39,0,0,0-.108,1.008c0,.756.774,1.17,1.458,1.17,1.026,0,3.87-.828,3.87-2.2,0-.432-.252-.45-.594-.45-.288,0-.522,0-.486-.342.09-.7.414-2.772.45-2.97a22.1,22.1,0,0,0,.306-2.556.722.722,0,0,0-.81-.828,9.5,9.5,0,0,0-3.132.756c-.594.252-1.422.594-1.422,1.368,0,.648.432.63.7.63.306,0,.4.126.4.36a7.837,7.837,0,0,1-.162.99Zm1.962-7.9c1.08.072,3.6-.828,3.618-2.142.018-.774-.846-1.026-1.494-1.026-1.152,0-3.726.738-3.726,2.178C33.192-10.152,34.182-9.99,34.794-9.954Zm8.19,8.01c-.4,0-1.566.072-1.566-.576a.407.407,0,0,1,.414-.414,13.39,13.39,0,0,0,1.638.162c2.25,0,4.878-.792,5.112-3.69A2.553,2.553,0,0,0,48.1-8.01c0-.18.378-.468.378-1.008A1.471,1.471,0,0,0,47.268-10.3c-.684,0-.7,1.17-1.674,1.17a7.882,7.882,0,0,1-.918-.072,7.882,7.882,0,0,0-.918-.072C41.58-9.27,38.7-8.1,38.7-5.526a2.293,2.293,0,0,0,.954,1.944c.126.108.216.144.216.324,0,.234-.216.27-.4.342A1.867,1.867,0,0,0,38.16-1.26c0,.9.666,1.188.666,1.422,0,.252-.5.36-.5,1.026,0,1.764,2.934,2.034,4.212,2.034,2,0,5.256-.756,5.256-3.276,0-1.332-1.044-1.962-2.268-1.962Zm.378-2.394c-.468,0-.612-.252-.576-.666.054-.738.162-2.79,1.206-2.79.468,0,.612.306.558.7C44.46-6.336,44.352-4.338,43.362-4.338ZM42.3,1.926c-.54,0-1.926-.108-1.926-.882,0-.09,0-.306.144-.324a13.943,13.943,0,0,0,3.2.162c.2-.036.4.054.4.288C44.118,1.818,42.732,1.926,42.3,1.926ZM55.332-4.1a22.39,22.39,0,0,0-.468,3.024A1.135,1.135,0,0,0,56.16.126c1.026,0,3.744-.774,3.744-2.088,0-.7-.864-.252-.864-.972,0-1.1.63-3.258.63-4.536a1.86,1.86,0,0,0-2.052-1.746c-1.566,0-3.042,1.6-3.492,1.6-.558,0-.072-1.584-1.17-1.584a8.537,8.537,0,0,0-3.276.99c-.4.216-.918.576-.918,1.08,0,.36.144.576.5.576h.18c.378,0,.5.216.5.576C50-4.41,49.176-1.71,49.176-.81c0,.792.666.972,1.314.936,2.322-.126,2.718-.594,2.9-2.574.108-1.1.342-3.834,1.656-3.834.342,0,.5.252.5.576Z" transform="translate(307.231 76.659)" fill="#001650"/><path d="M7.164-8.964c.09-.666-.072-1.674,1.026-1.674,1.548,0,1.764,1.548,1.764,2.952,0,2.178-.432,5.508-2.628,5.508-.648,0-.612-.45-.63-1.044ZM7.47,0C13.9,0,14.6-5.292,14.6-7.272c0-5.148-3.618-5.472-5.6-5.436-1.764.036-3.654.09-5.31.09-.9,0-2,.036-2,1.206,0,1.08,1.206.27,1.206,1.728A39.57,39.57,0,0,1,1.872-2.556C1.548-1.53.432-2.232.432-.99c0,.882.63,1.062,1.4,1.062.27,0,.522-.018.792-.036C2.88.018,3.15,0,3.4,0ZM21.438-9.306c-3.276,0-6.768,2.43-6.93,6.174C14.418-.72,16.326.234,18.522.234a7.382,7.382,0,0,0,3.114-.72c.738-.342,1.944-.936,1.944-1.89a.794.794,0,0,0-.72-.756c-.576,0-1.566,1.026-2.862,1.026-.45,0-1.1-.288-1.1-.81,0-.378.45-.378.7-.378,2.034,0,4.464-1.692,4.464-3.87C24.066-8.748,22.86-9.306,21.438-9.306ZM20.106-7.524c.288,0,.4.324.414.558.054.864-.828,2.2-1.332,2.2-.252,0-.324-.288-.324-.5C18.864-5.85,19.368-7.524,20.106-7.524Zm9.432-.63c0-.81-.486-1.062-1.224-1.062-1.062,0-4.032.54-4.032,1.962,0,.5.252.468.648.5.324.018.468.162.468.486,0,.54-.54,2.61-.54,3.8,0,1.854,1.728,2.7,3.366,2.7,4.05,0,5.922-3.852,5.922-7.434,0-1.1-.342-2-1.566-2-.666,0-1.566.216-1.566,1.026,0,.738.972,1.53.972,2.736,0,1.224-.666,3.4-2.178,3.4-1.3,0-.864-1.818-.756-2.592A27.2,27.2,0,0,0,29.538-8.154Zm11.61-1.152c-3.276,0-6.768,2.43-6.93,6.174C34.128-.72,36.036.234,38.232.234a7.382,7.382,0,0,0,3.114-.72c.738-.342,1.944-.936,1.944-1.89a.794.794,0,0,0-.72-.756c-.576,0-1.566,1.026-2.862,1.026-.45,0-1.1-.288-1.1-.81,0-.378.45-.378.7-.378,2.034,0,4.464-1.692,4.464-3.87C43.776-8.748,42.57-9.306,41.148-9.306ZM39.816-7.524c.288,0,.4.324.414.558.054.864-.828,2.2-1.332,2.2-.252,0-.324-.288-.324-.5C38.574-5.85,39.078-7.524,39.816-7.524Zm9.792-4.482c0-.7-.4-.864-1.026-.864a10.712,10.712,0,0,0-2.988.576c-.72.234-1.548.522-1.548,1.422,0,.36.2.522.558.522.144,0,.288-.036.432-.036.306,0,.378.144.342.432-.234,2.106-.792,5.418-1.044,8.334-.108,1.3.486,1.746,1.458,1.746,1.17,0,4.1-.792,4.1-2.286,0-.252-.09-.558-.4-.558-.18,0-.36.054-.54.054-.288,0-.306-.414-.306-.63ZM54.252.234a5.939,5.939,0,0,0,6.12-5.976c0-2.358-1.854-3.564-4.1-3.564a5.939,5.939,0,0,0-6.12,5.976C50.148-.972,52,.234,54.252.234ZM55.674-7.4c.5,0,.594.468.594.882a19.778,19.778,0,0,1-.432,3.222c-.108.54-.252,1.62-1.008,1.62-.468,0-.576-.414-.576-.828a17.277,17.277,0,0,1,.36-3.186C54.738-6.246,54.918-7.4,55.674-7.4Zm11.2.9c.5,0,.576.54.576.918,0,.792-.522,3.906-1.584,3.906-.378,0-.432-.234-.432-.558C65.43-3.006,65.808-6.5,66.87-6.5ZM61.506.054A1.265,1.265,0,0,1,61.02,1.1c-.288.234-.468.378-.468.774,0,1.386,2.916,1.53,3.888,1.53.648,0,1.962-.09,1.962-1.008,0-.558-.756-.5-.936-.9C65.358,1.26,65.124,0,65.628,0A1.726,1.726,0,0,1,66.1.108a1.785,1.785,0,0,0,.63.126c2.988,0,4.7-3.474,4.7-6.066,0-1.512-.63-3.4-2.43-3.4-1.854,0-2.682,1.26-3.132,1.26-.288,0-.342-.252-.342-.468a.742.742,0,0,0-.774-.774,10.01,10.01,0,0,0-2.592.936c-.576.252-1.566.558-1.566,1.332,0,.576.306.63.738.648.2.018.432.036.522.234a2.872,2.872,0,0,1,.126,1.044ZM80.55-9.216c-1.692,0-3.15,1.62-3.582,1.62-.234,0-.27-.432-.27-.594-.054-.594-.324-1.026-.972-1.026a6.628,6.628,0,0,0-2.79.846c-.5.252-1.4.648-1.4,1.314,0,.558.468.558.864.558.378,0,.432.252.432.594,0,1.512-.72,4.41-.72,5.076,0,.792.486,1.026,1.188.972,3.024-.216,2.9-.774,3.06-2.538.054-.81.216-3.87,1.476-3.87.45,0,.486.288.486.666,0,1.548-.684,3.276-.684,4.7,0,.792.324,1.026,1.08,1.026A4.013,4.013,0,0,0,81.4-.666a5.091,5.091,0,0,0,.522-2.2c.09-.846.108-3.4,1.494-3.4.36,0,.45.252.45.576,0,1.44-.594,2.97-.594,4.536.09.774.5,1.314,1.332,1.278.972-.054,3.672-.864,3.672-2.2,0-.792-.954-.036-.954-.954,0-.81.594-3.366.594-4.392a1.691,1.691,0,0,0-1.8-1.8c-1.926,0-3.186,1.62-3.474,1.62-.162,0-.162-.216-.2-.342A1.873,1.873,0,0,0,80.55-9.216Zm15.03-.09c-3.276,0-6.768,2.43-6.93,6.174C88.56-.72,90.468.234,92.664.234a7.382,7.382,0,0,0,3.114-.72c.738-.342,1.944-.936,1.944-1.89A.794.794,0,0,0,97-3.132c-.576,0-1.566,1.026-2.862,1.026-.45,0-1.1-.288-1.1-.81,0-.378.45-.378.7-.378,2.034,0,4.464-1.692,4.464-3.87C98.208-8.748,97-9.306,95.58-9.306ZM94.248-7.524c.288,0,.4.324.414.558.054.864-.828,2.2-1.332,2.2-.252,0-.324-.288-.324-.5C93.006-5.85,93.51-7.524,94.248-7.524ZM104.994-4.1a22.39,22.39,0,0,0-.468,3.024,1.135,1.135,0,0,0,1.3,1.206c1.026,0,3.744-.774,3.744-2.088,0-.7-.864-.252-.864-.972,0-1.1.63-3.258.63-4.536a1.86,1.86,0,0,0-2.052-1.746c-1.566,0-3.042,1.6-3.492,1.6-.558,0-.072-1.584-1.17-1.584a8.537,8.537,0,0,0-3.276.99c-.4.216-.918.576-.918,1.08,0,.36.144.576.5.576h.18c.378,0,.5.216.5.576.054,1.566-.774,4.266-.774,5.166,0,.792.666.972,1.314.936,2.322-.126,2.718-.594,2.9-2.574.108-1.1.342-3.834,1.656-3.834.342,0,.5.252.5.576Zm9.828-1.674c.27-1.566.27-1.512,1.512-1.512.486,0,.486-.378.54-.774a5.355,5.355,0,0,0,.09-.774c0-.27-.216-.324-.45-.324-.54,0-1.134.18-1.134-.36,0-.288.126-1.314.162-1.674,0-.468-.234-.666-.684-.666a5.6,5.6,0,0,0-2.25.4,1.9,1.9,0,0,0-.846,1.3c-.252.828-.306,1.008-.882,1.08a1.137,1.137,0,0,0-1.134,1.278c0,.486.234.612.666.612.72,0,.774.09.648.792l-.54,3.168a10.8,10.8,0,0,0-.18,1.71,1.572,1.572,0,0,0,1.8,1.674c1.044,0,4.464-1.152,4.464-2.556,0-.306-.108-.648-.486-.648-.27,0-.594.342-1.026.342-.45,0-.684-.486-.5-1.278Z" transform="translate(427.735 18.036)" fill="#001650"/><path d="M4.428-12.618a2.321,2.321,0,0,1-.648-.108,1.8,1.8,0,0,0-.522-.108c-1.332,0-2.376,2.142-2.376,3.276A1.229,1.229,0,0,0,2.16-8.208c1.6,0,1.386-2.232,2.286-2.232.324,0,.432.324.432.594A60.654,60.654,0,0,1,3.816-2.484c-.324.864-1.6.324-1.6,1.4C2.214-.7,2.268.144,5.508.144,9.252.144,9.9-.612,9.9-1.152c0-1.08-1.368-.288-1.368-1.836,0-1.53.378-4.32.486-5.4.144-1.3.162-2.052.738-2.052.792,0,.558,2.232,1.926,2.232,1.026,0,1.494-.846,1.494-1.8,0-.864-.648-2.826-1.746-2.826a2.3,2.3,0,0,0-.594.108,5.473,5.473,0,0,1-1.278.108ZM17.838-5.31c.018-.162.126-.918.378-.918.144,0,.306.324.36.432a1.214,1.214,0,0,0,1.206.774c1.224,0,1.764-1.062,1.764-2.16a2.032,2.032,0,0,0-1.962-2.142c-1.674,0-1.62,1.728-2.142,1.728-.576,0-.09-1.71-1.188-1.71a3.747,3.747,0,0,0-1.656.468c-.684.342-2.142.63-2.142,1.6,0,.648.288.792.846.792.486,0,.54.144.522.63-.036,1.674-.756,3.924-.756,5,0,.81.72.99,1.386.954,2.466-.108,3.222-.792,3.114-2.538ZM32.2-6.714c0-1.134-.2-2.394-1.62-2.394A1.445,1.445,0,0,0,29.034-7.74c0,.918.828,1.242.828,2.5,0,.36-.216,2.214-.7,2.106-.45-.108-1.3-3.276-1.782-4.428-.342-.792-.684-1.656-1.692-1.656-1.044,0-4.068,2.016-4.176,3.168a1,1,0,0,0,.828,1.026c.4,0,.774-.612,1.044-.612.684,0,2.376,4.7,2.412,6.03.018.45-.27,1.314-.846,1.314-.216,0-.288-.162-.288-.36,0-.306.072-.612.072-.918A1.373,1.373,0,0,0,23.2-.954a1.729,1.729,0,0,0-1.836,1.8c0,1.764,1.62,2.646,3.222,2.646C29.232,3.492,32.274-2.826,32.2-6.714ZM39.15-3.8a2.093,2.093,0,0,0-2.142,2A1.94,1.94,0,0,0,38.97.306,2.149,2.149,0,0,0,41.112-1.8,1.88,1.88,0,0,0,39.15-3.8ZM54.864,0a10.627,10.627,0,0,1,1.1.054,2.856,2.856,0,0,0,.414.072c.666,0,1.908-1.4,1.908-3.078,0-.738-.216-1.44-1.08-1.44-1.458,0-.81,2.322-3.618,2.322-1.188,0-1.206.036-1.206-1.1,0-.558-.2-2.232.558-2.232,1.116,0,.072,1.818,1.4,1.818,1.26,0,1.584-2.34,1.584-3.294,0-.81-.108-2.25-1.206-2.25-1.116,0-.5,1.656-1.566,1.656-.594,0-.45-.144-.4-.846.2-1.908-.036-2.232,1.782-2.232,2.142,0,1.314,1.782,2.772,1.782.756,0,1.08-.72,1.08-1.386,0-1.692-.9-2.682-1.512-2.682a3.389,3.389,0,0,0-.612.108,6.545,6.545,0,0,1-1.314.108H52.128c-.468,0-.936,0-1.4-.018-.468,0-.918-.018-1.368-.036-.864-.036-1.818.2-1.818,1.242,0,.99,1.116.468,1.116,1.872a38.8,38.8,0,0,1-1.044,6.93C47.214-1.476,46.1-1.98,46.1-.9c0,.594.36,1.062,1.512,1.062C48.42.162,49.248,0,50.058,0Zm9.2-5.31c.018-.162.126-.918.378-.918.144,0,.306.324.36.432a1.214,1.214,0,0,0,1.206.774c1.224,0,1.764-1.062,1.764-2.16a2.032,2.032,0,0,0-1.962-2.142c-1.674,0-1.62,1.728-2.142,1.728-.576,0-.09-1.71-1.188-1.71a3.747,3.747,0,0,0-1.656.468c-.684.342-2.142.63-2.142,1.6,0,.648.288.792.846.792.486,0,.54.144.522.63-.036,1.674-.756,3.924-.756,5,0,.81.72.99,1.386.954C63.144.036,63.9-.648,63.792-2.394Zm9.306,0c.018-.162.126-.918.378-.918.144,0,.306.324.36.432a1.214,1.214,0,0,0,1.206.774c1.224,0,1.764-1.062,1.764-2.16a2.032,2.032,0,0,0-1.962-2.142c-1.674,0-1.62,1.728-2.142,1.728-.576,0-.09-1.71-1.188-1.71a3.747,3.747,0,0,0-1.656.468c-.684.342-2.142.63-2.142,1.6,0,.648.288.792.846.792.486,0,.54.144.522.63-.036,1.674-.756,3.924-.756,5,0,.81.72.99,1.386.954C72.45.036,73.206-.648,73.1-2.394ZM80.91.234a5.939,5.939,0,0,0,6.12-5.976c0-2.358-1.854-3.564-4.1-3.564a5.939,5.939,0,0,0-6.12,5.976C76.806-.972,78.66.234,80.91.234ZM82.332-7.4c.5,0,.594.468.594.882a19.778,19.778,0,0,1-.432,3.222c-.108.54-.252,1.62-1.008,1.62-.468,0-.576-.414-.576-.828a17.277,17.277,0,0,1,.36-3.186C81.4-6.246,81.576-7.4,82.332-7.4ZM92.7-5.31c.018-.162.126-.918.378-.918.144,0,.306.324.36.432a1.214,1.214,0,0,0,1.206.774c1.224,0,1.764-1.062,1.764-2.16a2.032,2.032,0,0,0-1.962-2.142c-1.674,0-1.62,1.728-2.142,1.728-.576,0-.09-1.71-1.188-1.71a3.747,3.747,0,0,0-1.656.468c-.684.342-2.142.63-2.142,1.6,0,.648.288.792.846.792.486,0,.54.144.522.63-.036,1.674-.756,3.924-.756,5,0,.81.72.99,1.386.954,2.466-.108,3.222-.792,3.114-2.538Z" transform="translate(588.407 76.659)" fill="#001650"/><circle cx="8.685" cy="8.685" r="8.685" transform="translate(28.226 33.262)" fill="#dd4f0a"/><circle cx="8.685" cy="8.685" r="8.685" transform="translate(179.128 33.262)" fill="#dd4f0a"/><circle cx="8.685" cy="8.685" r="8.685" transform="translate(328.943 33.262)" fill="#dd4f0a"/><circle cx="8.685" cy="8.685" r="8.685" transform="translate(478.759 33.262)" fill="#dd4f0a"/><circle cx="8.685" cy="8.685" r="8.685" transform="translate(779.476 33.262)" fill="#dd4f0a"/><circle cx="8.685" cy="8.685" r="8.685" transform="translate(629.66 33.262)" fill="#dd4f0a"/><line x2="746.908" transform="translate(40.711 42.49)" fill="none" stroke="#dd4f0a" stroke-width="1" stroke-dasharray="1"/><path d="M50.574,82.115c-.038,0-.052-.082-.066-.164s-.028-.163-.066-.163-.091.052-.145.105-.108.106-.146.105a.6.6,0,0,0-.116.012.59.59,0,0,1-.12.012c-.038,0-.059-.055-.08-.108s-.041-.106-.078-.108a.493.493,0,0,1-.108-.023.516.516,0,0,0-.1-.022.523.523,0,0,0-.115.009.517.517,0,0,1-.118.008c-.037,0-.1.063-.161.13s-.124.134-.161.13a.16.16,0,0,1-.092-.066.163.163,0,0,0-.09-.065.321.321,0,0,1-.1-.037.326.326,0,0,0-.1-.037c-.073-.01-.132-.054-.2-.065a.546.546,0,0,0-.112,0,.529.529,0,0,1-.116,0,.266.266,0,0,0-.129.033.257.257,0,0,1-.13.033c-.071-.014-.031-.289-.1-.3-.033-.007-.068-.012-.1-.017s-.075-.01-.112-.019-.107.065-.178.138-.141.144-.177.138h0c-.069-.018.008-.354-.06-.373s-.135-.039-.2-.06c-.034-.01-.092.028-.15.067s-.116.077-.15.067a.353.353,0,0,0-.112-.009.351.351,0,0,1-.115-.01c-.067-.023-.1-.115-.165-.14s-.1-.1-.169-.128-.055-.187-.12-.215-.112-.082-.175-.11c-.032-.014-.09.017-.148.049s-.117.064-.149.049-.086.008-.141.032-.11.047-.141.031c-.062-.032-.034-.213-.1-.246s-.063-.16-.124-.194c-.03-.017-.093.016-.155.048s-.126.066-.156.048c-.059-.036,0-.254-.056-.292s-.1-.1-.157-.138c-.028-.02-.082,0-.136.014s-.109.034-.137.013a.2.2,0,0,0-.116-.017A.192.192,0,0,1,44,80.232c-.055-.042-.014-.217-.068-.26s-.061-.148-.114-.193-.06-.146-.113-.192a.2.2,0,0,0-.1-.035.2.2,0,0,1-.105-.037.173.173,0,0,0-.116-.023.169.169,0,0,1-.117-.024c-.05-.049-.017-.195-.065-.245s-.155-.035-.2-.087.038-.249-.008-.3c-.023-.027-.071-.026-.119-.025s-.1,0-.12-.026c-.044-.055.024-.225-.019-.282-.021-.028-.1,0-.17.022s-.149.05-.17.021c-.041-.058.019-.218-.021-.277s.023-.216-.016-.277-.071-.124-.109-.186-.073-.122-.109-.185-.134-.069-.169-.133.01-.194-.023-.259-.147-.061-.18-.127.04-.218.007-.283c-.016-.033-.1-.008-.19.017s-.173.05-.189.017c-.032-.066.181-.333.148-.4s-.165-.048-.2-.114.044-.223.01-.288c-.017-.033-.077-.028-.136-.024s-.119.009-.136-.023c-.034-.064-.028-.163-.064-.225s-.055-.14-.093-.2.06-.252.02-.311c-.02-.03-.073-.029-.125-.028s-.1,0-.123-.026c-.042-.057-.071-.128-.115-.182C40.557,75,40.51,75,40.463,75a.161.161,0,0,1-.114-.026c-.047-.051-.046-.156-.1-.2s-.122-.064-.176-.109-.015-.213-.071-.253-.118-.074-.177-.109c-.03-.018-.092.017-.154.051s-.121.067-.151.052c-.061-.031-.063-.159-.126-.185s-.028-.245-.094-.268c-.033-.011-.107.06-.18.131s-.145.141-.179.131c-.068-.019-.014-.306-.083-.321a.341.341,0,0,0-.121.007.371.371,0,0,1-.115.008c-.071-.012-.106-.124-.178-.132s-.148-.019-.221-.024a.316.316,0,0,0-.126.033.337.337,0,0,1-.123.033c-.037,0-.094.064-.151.129s-.113.129-.151.129a.165.165,0,0,1-.1-.047.162.162,0,0,0-.1-.047.162.162,0,0,1-.1-.047.159.159,0,0,0-.1-.047c-.076,0-.191.174-.267.179a.706.706,0,0,1-.108,0,.659.659,0,0,0-.115,0c-.038,0-.062-.058-.087-.119s-.049-.122-.088-.118a.483.483,0,0,1-.111-.005.469.469,0,0,0-.115,0c-.077.009-.19.2-.268.213-.038,0-.068-.039-.1-.083s-.059-.088-.1-.083c-.077.01-.192.224-.269.235-.039.005-.071-.024-.1-.053s-.065-.059-.1-.053c-.077.011-.2.306-.281.317l-.23.031c-.078.011-.154,0-.231.015-.039.005-.064-.066-.089-.137s-.05-.143-.089-.137c-.078.01-.162.059-.24.069s-.194.22-.272.229-.17.091-.247.1-.158.025-.235.033c-.039,0-.063-.06-.088-.124s-.049-.128-.088-.124c-.077.008-.173.1-.25.11s-.18.129-.257.135-.158.027-.235.033a.2.2,0,0,1-.106-.034.2.2,0,0,0-.1-.034c-.038,0-.068-.033-.1-.069s-.058-.071-.1-.069a.609.609,0,0,1-.112-.007.615.615,0,0,0-.11-.008c-.076,0-.166.063-.242.066a.336.336,0,0,1-.109-.02.339.339,0,0,0-.107-.02c-.076,0-.2.18-.275.18s-.169.062-.245.062c-.038,0-.059-.056-.081-.112s-.043-.112-.08-.112a.3.3,0,0,0-.126.046.3.3,0,0,1-.127.046.214.214,0,0,1-.1-.039.217.217,0,0,0-.1-.038c-.037,0-.1.065-.155.131s-.117.133-.155.131A.154.154,0,0,1,30,74.573a.154.154,0,0,0-.093-.062c-.036,0-.073,0-.109,0s-.078,0-.116,0-.054-.063-.072-.123-.034-.119-.071-.122c-.073-.007-.145-.012-.218-.021a.276.276,0,0,0-.126.036.273.273,0,0,1-.127.036.17.17,0,0,1-.091-.06.169.169,0,0,0-.09-.06c-.036-.005-.092.041-.148.088s-.113.094-.148.088c-.072-.012-.086-.166-.156-.179s-.131-.048-.2-.062-.131-.046-.2-.061a.347.347,0,0,0-.114,0,.346.346,0,0,1-.117,0,.371.371,0,0,0-.112,0,.354.354,0,0,1-.115,0c-.069-.018-.062-.2-.13-.215-.034-.01-.108.063-.182.137s-.149.147-.182.137c-.067-.021-.083-.149-.15-.171s-.047-.213-.113-.237a.22.22,0,0,0-.132.03.217.217,0,0,1-.133.029.222.222,0,0,0-.127.015.215.215,0,0,1-.127.015c-.065-.027.022-.321-.042-.35a.256.256,0,0,0-.111-.01.245.245,0,0,1-.114-.011c-.031-.015-.1.026-.16.067s-.13.083-.161.067c-.061-.032.044-.333-.016-.367-.03-.016-.08,0-.13.015s-.1.032-.132.014c-.06-.035-.035-.2-.093-.232-.029-.018-.106.034-.183.086s-.156.105-.184.086c-.057-.038.025-.276-.031-.316a.2.2,0,0,0-.111-.021.2.2,0,0,1-.113-.022.191.191,0,0,0-.115-.018.186.186,0,0,1-.116-.019c-.053-.043-.123-.07-.175-.115s.142-.4.091-.447-.155-.024-.2-.072-.127-.061-.175-.11-.158-.029-.205-.08-.087-.11-.133-.163.03-.235-.014-.289c-.022-.027-.081-.016-.139,0s-.118.023-.139,0c-.043-.056-.09-.109-.131-.166s-.067-.131-.106-.19-.118-.082-.156-.143.063-.248.027-.31c-.018-.031-.077-.025-.137-.02s-.12.011-.138-.021c-.034-.064.157-.318.124-.383s-.121-.082-.152-.148-.114-.091-.143-.159-.138-.077-.165-.146.01-.186-.015-.257.074-.226.051-.3c-.011-.036-.078-.036-.144-.035s-.134,0-.145-.036c-.021-.074.08-.225.061-.3s.029-.188.012-.265-.209-.053-.224-.131-.068-.138-.08-.217.164-.254.155-.334-.06-.14-.067-.221-.165-.1-.17-.181.03-.184.028-.268-.063-.149-.063-.233.136-.217.138-.3-.02-.164-.014-.25,0-.17.006-.256,0-.172.012-.259-.01-.169,0-.256.015-.174.025-.261.088-.19.1-.277.183-.213.192-.3-.267-.1-.259-.189.251-.237.255-.323.028-.181.031-.266-.24-.084-.242-.167.017-.168.011-.25-.02-.152-.031-.232.048-.19.031-.267.082-.224.059-.3-.082-.122-.109-.189-.119-.085-.152-.148-.141-.054-.179-.113.132-.326.089-.38-.088-.117-.135-.167c-.024-.025-.1.015-.179.055s-.154.079-.179.056c-.051-.045-.032-.174-.086-.215s-.094-.1-.151-.137-.12-.062-.179-.1c-.03-.017-.08,0-.13.018s-.1.034-.129.019c-.061-.03.008-.28-.054-.308s-.111-.084-.176-.11-.134-.043-.2-.066a.475.475,0,0,0-.109-.019.525.525,0,0,1-.1-.017.225.225,0,0,0-.132.035.229.229,0,0,1-.131.035c-.067-.019-.01-.306-.078-.324-.034-.009-.092.033-.149.076s-.114.084-.148.076c-.069-.017-.056-.219-.125-.235-.035-.008-.1.06-.169.127s-.134.135-.168.128c-.07-.015-.03-.287-.1-.3a.256.256,0,0,0-.13.034.258.258,0,0,1-.13.034.291.291,0,0,0-.122.015.3.3,0,0,1-.122.016.754.754,0,0,0-.111-.011.791.791,0,0,1-.111-.011c-.071-.014-.081-.173-.152-.187-.036-.007-.095.041-.153.089s-.118.1-.153.089c-.071-.014-.031-.293-.1-.307-.036-.007-.1.05-.161.107s-.125.114-.161.107c-.071-.014-.113-.1-.184-.111s-.137-.04-.209-.054-.13-.056-.2-.07a.269.269,0,0,0-.125.022.273.273,0,0,1-.125.022c-.071-.014-.022-.312-.093-.327a.259.259,0,0,0-.129.031.258.258,0,0,1-.129.031.434.434,0,0,0-.115,0,.442.442,0,0,1-.115,0c-.071-.014-.125-.069-.2-.083-.036-.007-.091.032-.146.071s-.11.078-.146.071a.911.911,0,0,0-.11-.013.884.884,0,0,1-.11-.013c-.071-.014-.1-.138-.167-.153a.4.4,0,0,0-.116,0,.408.408,0,0,1-.116,0c-.071-.014-.035-.282-.106-.3-.036-.007-.1.044-.156.094s-.12.1-.155.095c-.071-.014-.131-.054-.2-.069s-.076-.186-.147-.2c-.036-.007-.089.027-.142.062s-.106.069-.142.062c-.071-.014-.118-.085-.189-.1-.036-.007-.087.024-.138.054s-.1.062-.139.054a.5.5,0,0,0-.114,0,.5.5,0,0,1-.114,0c-.068-.014.013-.366-.057-.387-.033-.01-.1.046-.165.1s-.136.113-.17.1c-.064-.024-.1-.1-.17-.132a.22.22,0,0,0-.125.008.212.212,0,0,1-.13.007c-.061-.032-.058-.173-.119-.208s-.109-.087-.168-.125-.027-.2-.083-.242c-.027-.02-.087,0-.146.026s-.121.047-.149.025c-.054-.043.024-.257-.028-.3-.026-.023-.086,0-.146.016s-.122.04-.147.015c-.05-.049-.142-.054-.19-.1s.014-.228-.031-.282.025-.226-.017-.283c-.021-.028-.089-.01-.158.008s-.138.037-.158.008c-.039-.06.091-.277.057-.339s-.105-.095-.136-.16-.139-.078-.164-.147-.036-.158-.056-.231.05-.2.038-.279a1.817,1.817,0,0,1-.025-.236c0-.086.086-.2.085-.289s.01-.175.009-.259-.2-.1-.2-.182.105-.209.107-.294-.21-.1-.208-.189.14-.217.144-.3-.067-.155-.061-.241.1-.2.112-.288-.075-.158-.064-.246.049-.187.063-.275.21-.206.226-.295-.138-.162-.118-.251.206-.188.231-.277.041-.175.069-.265-.07-.192-.036-.281.184-.158.223-.246.1-.164.143-.251-.1-.254-.052-.34.1-.187.152-.271.293-.043.352-.123.127-.139.19-.216.043-.23.11-.3.069-.23.139-.3.169-.1.241-.173c.035-.033.1-.016.163,0s.13.033.167,0c.071-.062.133-.13.209-.192s.143-.111.22-.171.138-.128.215-.185.1-.251.178-.306.183,0,.26-.052.169-.026.246-.074.086-.381.163-.427a.184.184,0,0,1,.132,0,.189.189,0,0,0,.13,0c.078-.043.153-.109.232-.149a.2.2,0,0,1,.126-.007.2.2,0,0,0,.124-.005c.079-.038.135-.3.214-.333a.184.184,0,0,1,.126.005.187.187,0,0,0,.124.006c.079-.034.155-.189.234-.22.04-.016.082.042.124.1s.083.114.123.1c.08-.03.157-.134.236-.162s.164-.241.243-.267.16-.023.24-.047.164-.085.243-.106c.04-.011.076.027.112.065s.072.075.111.066c.079-.02.165-.117.245-.135a.148.148,0,0,1,.111.038.15.15,0,0,0,.11.039c.079-.016.172-.15.251-.165s.171-.119.25-.133c.039-.007.073.026.106.058s.066.064.1.058c.078-.012.2-.248.274-.258.039-.006.061.078.084.161s.044.166.084.161c.077-.01.2-.242.276-.25a.152.152,0,0,1,.1.047.152.152,0,0,0,.1.047c.077-.007.172-.1.249-.1s.175-.1.252-.109.155-.013.232-.017h.014c-.028-.042-.086-.051-.116-.09L8.381,45.183a.279.279,0,0,0-.116,0,.284.284,0,0,1-.116,0c-.067-.022-.039-.239-.106-.261a.387.387,0,0,0-.109-.014.393.393,0,0,1-.109-.014c-.066-.022-.124-.063-.19-.086s-.06-.192-.126-.215a.416.416,0,0,0-.107-.017.418.418,0,0,1-.108-.017.325.325,0,0,0-.11-.011.326.326,0,0,1-.11-.011.249.249,0,0,0-.116,0,.247.247,0,0,1-.116,0,.22.22,0,0,0-.124.015.217.217,0,0,1-.124.015c-.065-.025-.139-.033-.2-.058s-.015-.272-.078-.3-.141-.028-.2-.054-.092-.12-.156-.146c-.032-.013-.083.008-.133.03s-.1.043-.133.03c-.064-.027-.034-.227-.1-.255s-.117-.072-.179-.1c-.031-.014-.11.058-.189.13s-.158.144-.19.13c-.063-.029.008-.3-.054-.326-.031-.015-.086.012-.141.039s-.109.054-.141.039c-.062-.03,0-.272-.063-.3-.031-.015-.1.029-.162.073s-.131.088-.161.073c-.062-.031-.111-.084-.172-.116s-.126-.059-.186-.092-.059-.17-.118-.2-.017-.234-.076-.269c-.029-.017-.092.019-.155.055s-.126.073-.155.055a.208.208,0,0,0-.114-.013.2.2,0,0,1-.114-.013c-.059-.036.064-.353.007-.39s-.13-.05-.186-.088c-.028-.019-.1.028-.174.075s-.146.095-.174.075c-.056-.04.033-.292-.022-.332-.028-.02-.085,0-.142.024s-.115.044-.141.024c-.055-.042-.044-.176-.1-.219s-.028-.195-.08-.239-.11-.081-.161-.126c-.026-.023-.1.013-.168.048s-.142.072-.167.048c-.051-.047-.1-.1-.148-.15s.032-.261-.016-.311-.067-.134-.114-.185-.02-.185-.065-.239c-.023-.027-.069-.026-.115-.026s-.093,0-.115-.027c-.044-.056-.055-.145-.1-.2s-.127-.069-.167-.128-.01-.185-.047-.246S.8,40.2.765,40.137s-.094-.1-.126-.166c-.016-.033-.085-.023-.153-.012s-.137.021-.152-.013c-.03-.069.16-.31.133-.38-.013-.036-.066-.042-.118-.048s-.105-.013-.117-.049c-.023-.074.055-.216.035-.291S.218,39.035.2,38.957s-.19-.071-.2-.151.109-.231.1-.313-.079-.139-.082-.224.135-.221.138-.307S.095,37.812.1,37.725s-.072-.158-.06-.247.155-.2.172-.292.129-.182.15-.274-.215-.17-.189-.261.047-.188.077-.28.1-.182.135-.273.256-.145.293-.235-.147-.235-.106-.323.114-.175.157-.262.157-.151.2-.235.118-.161.17-.244.03-.219.086-.3.163-.128.222-.207.156-.123.217-.2.186-.077.25-.15.09-.184.156-.255.034-.287.1-.355.155-.117.225-.182.174-.072.246-.133.191-.014.264-.073.157-.077.231-.133.122-.177.2-.23.122-.2.2-.251.174-.013.252-.061.11-.293.188-.339.16-.083.238-.127.172-.005.249-.047c.039-.021.086.018.133.058s.094.078.133.058c.078-.04.134-.26.213-.3s.159-.054.237-.091.156-.085.234-.119.152-.19.231-.223.159-.068.238-.1.16-.043.239-.074c.039-.015.079.038.119.091s.08.106.12.091c.079-.029.157-.141.235-.169s.162-.307.241-.334c.039-.013.077.037.115.087s.076.1.115.087c.079-.026.156-.036.235-.061a.28.28,0,0,1,.116,0,.287.287,0,0,0,.115,0c.078-.024.175-.371.254-.394.039-.011.076.018.113.049s.073.06.112.049a.179.179,0,0,1,.114.017.18.18,0,0,0,.113.017c.079-.021.172-.237.251-.258l.236-.062c.039-.01.074.035.108.081s.068.091.107.081c.078-.02.167-.154.245-.173s.17-.206.249-.227.154-.044.233-.065c.039-.011.073.053.107.117s.068.128.108.117c.078-.022.164-.154.243-.178s.155-.011.234-.036.16-.122.239-.148a.283.283,0,0,1,.116-.007.279.279,0,0,0,.119-.008.252.252,0,0,1,.117,0,.251.251,0,0,0,.12-.005c.078-.029.159-.1.237-.126s.158-.095.236-.126.151-.22.229-.253a.2.2,0,0,1,.119,0,.2.2,0,0,0,.121,0,.151.151,0,0,1,.124.023.149.149,0,0,0,.124.023c.078-.036.156-.11.234-.147s.163-.041.241-.08.14-.218.217-.259.161-.058.238-.1.128-.234.2-.279.144-.124.221-.171.145-.111.221-.16a.191.191,0,0,1,.127-.015.187.187,0,0,0,.129-.016c.076-.051.143-.126.217-.179a.18.18,0,0,1,.137-.009.175.175,0,0,0,.138-.01c.074-.056.057-.343.13-.4a.176.176,0,0,1,.142-.01.171.171,0,0,0,.143-.011c.072-.061.117-.176.187-.239s.182-.057.251-.123.188-.068.254-.136.143-.144.207-.215-.053-.356.009-.43.248-.022.308-.1.119-.16.176-.24.047-.207.1-.289.105-.161.155-.246.207-.121.252-.208.077-.185.118-.273-.12-.224-.083-.313.222-.148.255-.239.141-.177.169-.269.072-.187.1-.279a.719.719,0,0,0,.009-.184.581.581,0,0,0-.041-.109c-.027-.042-.091-.052-.117-.1s.03-.164.005-.208-.067-.074-.091-.119-.057-.084-.081-.129-.054-.087-.076-.133-.062-.08-.084-.128-.045-.095-.065-.143,0-.132-.015-.182.071-.178.053-.228c-.009-.025-.065-.017-.12-.009s-.112.016-.12-.009c-.016-.051.126-.212.11-.263s-.016-.111-.031-.164c-.007-.026-.055-.027-.1-.027s-.1,0-.1-.028c-.013-.053-.011-.118-.023-.172s-.028-.108-.039-.163.029-.139.02-.195.065-.155.057-.212-.039-.1-.045-.157-.057-.093-.062-.151-.067-.092-.07-.15.165-.188.164-.247,0-.117,0-.177-.188-.052-.187-.113.066-.143.069-.2.021-.126.025-.188,0-.117.008-.177c-.06,0-.114,0-.119-.033s.022-.066.056-.11a.071.071,0,0,1,0-.031c.006-.044.084-.1.133-.156a.05.05,0,0,0,0-.016c-.01-.068,0-.144-.011-.213,0-.034-.064-.044-.125-.053s-.121-.019-.125-.054c-.007-.07.007-.151,0-.222s-.016-.142-.02-.213.062-.171.06-.243.11-.185.111-.258-.032-.133-.03-.206-.056-.128-.052-.2-.068-.128-.062-.2.243-.209.251-.284.023-.148.033-.224-.229-.1-.216-.176.109-.17.124-.246.048-.156.065-.233.025-.153.044-.23-.076-.146-.055-.223.232-.167.255-.245.071-.153.1-.231.045-.153.072-.23.032-.154.061-.231-.042-.162-.011-.239.271-.132.3-.208-.087-.173-.052-.249.21-.127.247-.2-.145-.2-.106-.273.265-.106.305-.181,0-.171.046-.245.035-.167.08-.241.076-.155.122-.229.189-.108.236-.181-.046-.211,0-.284.267-.062.318-.133-.057-.229-.005-.3.148-.119.2-.189.115-.137.17-.206.127-.128.183-.2.065-.174.122-.241.27-.012.328-.079.06-.178.12-.243.1-.149.158-.214.141-.109.2-.173.034-.22.1-.282.119-.136.182-.2.178-.067.243-.128.11-.146.175-.207c.032-.03.092-.025.152-.02a.213.213,0,0,0,.152-.02c.065-.059.034-.248.1-.306s.143-.1.21-.16.194-.022.262-.078.072-.212.14-.267.157-.077.225-.131.085-.2.154-.257.128-.13.2-.184c.035-.026.1,0,.16.028s.125.055.16.029c.07-.052.054-.28.124-.332s.158-.069.229-.119.11-.176.181-.225.175-.024.247-.073.148-.086.22-.134.179,0,.251-.049.1-.23.168-.276a.176.176,0,0,1,.132,0,.179.179,0,0,0,.131,0c.073-.045.1-.232.173-.277s.135-.13.208-.174a.2.2,0,0,1,.126-.012.2.2,0,0,0,.125-.012.194.194,0,0,1,.125-.01.2.2,0,0,0,.124-.01c.073-.042.1-.265.175-.307a.158.158,0,0,1,.13.016.16.16,0,0,0,.129.016c.074-.041.14-.114.214-.154s.134-.148.208-.187.152-.065.226-.1.162,0,.236-.041.148-.078.223-.114a.243.243,0,0,1,.118-.017.247.247,0,0,0,.117-.016c.075-.036.15-.06.225-.1s.127-.243.2-.277A.207.207,0,0,1,27.48,4.9.213.213,0,0,0,27.6,4.9c.075-.034.131-.251.206-.284a.17.17,0,0,1,.119.009.171.171,0,0,0,.118.009c.075-.032.146-.131.221-.162a.227.227,0,0,1,.116-.007.233.233,0,0,0,.115-.007c.075-.031.146-.144.221-.174s.152-.037.228-.067c.037-.015.077.011.116.037s.078.052.116.037c.075-.029.145-.216.22-.245.038-.014.076.009.115.033s.077.047.115.033c.075-.028.15-.065.225-.092s.149-.183.224-.21a.16.16,0,0,1,.114.016.162.162,0,0,0,.113.017c.075-.027.15-.031.225-.057s.153-.268.229-.293.152-.065.227-.09c.038-.013.073.032.11.077s.072.09.11.077c.075-.024.149-.03.224-.053s.155-.168.231-.191.156-.156.231-.178A.364.364,0,0,1,32,3.121a.369.369,0,0,0,.112-.01c.037-.011.071.036.105.082s.067.093.1.082c.075-.022.15-.054.225-.075s.149-.038.224-.058.151-.059.226-.079.163-.188.239-.207a.158.158,0,0,1,.107.023.162.162,0,0,0,.107.023.22.22,0,0,1,.108.007.226.226,0,0,0,.108.008c.075-.018.183-.317.257-.334a.14.14,0,0,1,.105.035.14.14,0,0,0,.1.035c.074-.017.152-.056.227-.072a.161.161,0,0,1,.105.025.161.161,0,0,0,.1.026c.075-.016.179-.236.254-.251a.149.149,0,0,1,.1.031.151.151,0,0,0,.1.031c.074-.015.167-.139.241-.153.037-.007.063.051.09.109s.053.116.09.109c.074-.014.159-.1.233-.108s.178-.191.253-.2.144,0,.218-.013.155-.057.229-.068c.037-.006.065.031.094.067s.057.073.094.067c.073-.011.161-.089.235-.1a.138.138,0,0,1,.1.04.139.139,0,0,0,.1.041c.074-.01.169-.121.243-.13s.164-.1.238-.1c.036,0,.065.025.094.054s.057.058.094.054c.073-.008.193-.208.266-.215.036,0,.054.068.072.141s.035.144.071.141c.073-.007.194-.2.267-.211a.145.145,0,0,1,.1.041.144.144,0,0,0,.095.041c.072-.006.164-.083.236-.088s.166-.088.238-.093.146-.012.217-.016a.254.254,0,0,1,.1.021.257.257,0,0,0,.1.021c.036,0,.058.041.081.085s.045.086.081.085c.072,0,.234-.3.3-.305.036,0,.048.075.06.151s.023.151.059.151c.071,0,.2-.19.273-.192s.179-.113.249-.113a.183.183,0,0,1,.095.035.187.187,0,0,0,.094.035c.071,0,.165-.068.235-.067.035,0,.061.028.087.056a.131.131,0,0,0,.086.056.647.647,0,0,0,.11-.012.626.626,0,0,1,.111-.012c.07,0,.139.008.209.01.035,0,.057.036.08.071s.045.07.08.071h.1c.038,0,.075,0,.113,0s.088-.046.141-.094.108-.1.142-.094.055.04.076.078.042.075.076.078a.18.18,0,0,1,.09.041.186.186,0,0,0,.09.041.356.356,0,0,0,.113-.02A.349.349,0,0,1,42.773,2a.449.449,0,0,1,.1.023.454.454,0,0,0,.1.022.426.426,0,0,0,.11-.011.41.41,0,0,1,.111-.011.6.6,0,0,0,.106,0,.583.583,0,0,1,.109,0,.237.237,0,0,1,.091.037.233.233,0,0,0,.09.037.316.316,0,0,0,.115-.021.305.305,0,0,1,.116-.02c.034,0,.051.045.068.087s.034.082.068.087c.067.009.134.017.2.026a.411.411,0,0,0,.108-.005.4.4,0,0,1,.109-.005c.067.01.135.016.2.027a.389.389,0,0,0,.108-.005.39.39,0,0,1,.11,0,.253.253,0,0,0,.125-.038.255.255,0,0,1,.126-.038c.066.012.022.251.088.263.032.006.083-.026.135-.057s.1-.063.135-.057.065.01.1.014.069.008.1.015.065.011.1.016.068.01.1.017a.26.26,0,0,0,.119-.022.255.255,0,0,1,.119-.022c.065.014.069.146.134.161a.249.249,0,0,0,.133-.048.245.245,0,0,1,.133-.048c.064.015.034.211.1.226a.433.433,0,0,0,.1.007.416.416,0,0,1,.1.007.251.251,0,0,0,.118-.019.248.248,0,0,1,.119-.019.3.3,0,0,0,.111,0,.285.285,0,0,1,.111,0c.063.017.124.039.187.056s0,.261.065.278a.452.452,0,0,0,.1.011.437.437,0,0,1,.1.012.238.238,0,0,0,.132-.042c.05-.025.1-.051.133-.042.063.018.027.21.09.229a.258.258,0,0,0,.113-.007A.253.253,0,0,1,48.24,3.1c.031.009.087-.026.143-.06s.113-.069.144-.06c.062.019.129.03.191.049s.048.17.11.189a.43.43,0,0,0,.1.014.423.423,0,0,1,.1.014.235.235,0,0,0,.122-.021.227.227,0,0,1,.122-.021c.061.02-.028.3.034.318s.109.063.171.083c.031.01.1-.047.17-.1s.14-.113.171-.1c.061.02.064.141.125.161s.116.052.177.073a.331.331,0,0,0,.1.009.321.321,0,0,1,.1.009c.061.021.1.076.163.1h0c.06-.078.1-.244.17-.281.04-.022.091.013.141.048s.1.069.14.048c.08-.042.126-.3.206-.34a.2.2,0,0,1,.131,0,.2.2,0,0,0,.129,0,.2.2,0,0,1,.128-.005.2.2,0,0,0,.127,0c.081-.039.132-.334.213-.371s.17-.015.251-.052.161-.1.242-.139.162-.1.243-.137c.041-.017.086.039.13.095s.089.111.13.095c.081-.033.159-.108.24-.139s.158-.225.24-.256.164,0,.245-.032c.041-.015.082.014.122.043s.081.058.121.043c.081-.028.164-.2.245-.232s.162-.039.244-.065.16-.01.242-.035.169-.186.25-.209.17-.148.251-.171a.163.163,0,0,1,.118.03.165.165,0,0,0,.117.03c.081-.022.172-.147.253-.168a.165.165,0,0,1,.117.031A.165.165,0,0,0,55.8,1.6c.081-.019.174-.141.255-.16s.164-.044.245-.061.166-.059.247-.075a.244.244,0,0,1,.117.014.246.246,0,0,0,.115.014.184.184,0,0,1,.114.028.184.184,0,0,0,.112.028.164.164,0,0,1,.111.036.164.164,0,0,0,.11.036c.08-.013.2-.248.278-.26.04-.006.073.028.106.062s.065.067.1.062c.08-.011.184-.15.263-.16.04-.005.071.033.1.072s.062.076.1.072c.08-.009.168-.063.247-.071s.206-.233.285-.241a.162.162,0,0,1,.107.046.163.163,0,0,0,.105.046c.079-.007.182-.113.26-.119A.312.312,0,0,1,59.3.984.313.313,0,0,0,59.41,1c.039,0,.067.039.1.081s.056.083.095.081a.207.207,0,0,1,.107.034.207.207,0,0,0,.105.034c.078,0,.225-.264.3-.266.039,0,.067.037.1.075s.056.076.094.075c.077,0,.192-.134.27-.135.039,0,.068.033.1.066s.057.066.1.066c.077,0,.226-.237.3-.236.038,0,.05.087.062.173s.024.172.062.173.093-.05.147-.1.109-.1.148-.1a.3.3,0,0,0,.135-.061A.289.289,0,0,1,61.76.9a.207.207,0,0,1,.1.044.2.2,0,0,0,.1.044.326.326,0,0,0,.128-.036A.321.321,0,0,1,62.22.916c.038,0,.064.041.089.08s.051.077.088.08a.293.293,0,0,0,.132-.047.29.29,0,0,1,.133-.047c.037,0,.06.05.081.1s.044.094.081.1a.3.3,0,0,0,.128-.035.3.3,0,0,1,.129-.035c.038,0,.064.038.09.072s.052.068.089.072a.377.377,0,0,0,.122-.018.366.366,0,0,1,.123-.017.244.244,0,0,1,.1.044.244.244,0,0,0,.1.043.225.225,0,0,1,.1.048.219.219,0,0,0,.1.048c.037,0,.1-.063.168-.132s.132-.137.168-.131.047.077.057.149.02.144.057.149.092-.037.148-.078.112-.084.148-.078.061.041.085.077.049.071.085.077.058.047.08.088.043.081.079.088a.6.6,0,0,0,.113,0,.6.6,0,0,1,.115.005c.036.006.1-.052.164-.11s.128-.116.164-.109c.072.013.025.3.1.315.036.007.1-.06.172-.126s.137-.134.172-.126c.072.015,0,.347.073.362.036.008.11-.07.184-.148s.148-.156.184-.148a1.008,1.008,0,0,0,.109.015.983.983,0,0,1,.113.016c.071.016.007.325.078.342.036.008.092-.029.148-.066s.113-.074.148-.066c.071.017.1.113.174.131a.25.25,0,0,0,.132-.031.247.247,0,0,1,.133-.031l.211.053c.07.018.13.057.2.076s.009.3.078.324c.035.01.1-.051.173-.112s.139-.122.173-.112c.069.02.132.053.2.073s.085.147.153.167a.407.407,0,0,0,.112.011.411.411,0,0,1,.111.011c.068.021.105.1.173.121s.085.14.152.161a.235.235,0,0,0,.138-.04.236.236,0,0,1,.138-.04l.2.061a.77.77,0,0,0,.105.022.788.788,0,0,1,.107.023c.067.021.048.212.116.233.034.011.1-.04.164-.091s.13-.1.164-.091l.2.063c.068.021.031.246.1.267a.238.238,0,0,0,.13-.024.24.24,0,0,1,.13-.024.235.235,0,0,0,.134-.033A.237.237,0,0,1,71.15,2.9a.49.49,0,0,0,.11.015.52.52,0,0,1,.108.015c.068.02-.005.323.063.343a.239.239,0,0,0,.133-.031.241.241,0,0,1,.132-.032c.034.01.088-.02.141-.05s.106-.06.141-.051c.069.019,0,.325.067.344.035.009.1-.045.164-.1s.129-.108.164-.1c.069.017.068.184.137.2s.128.058.2.075.1.129.166.145c.035.008.1-.055.169-.118s.133-.126.169-.118c.07.015.122.071.192.085s.117.084.188.1c.036.007.054.054.072.1s.037.095.073.1a.329.329,0,0,1,.1.04.307.307,0,0,0,.1.041c.036.006.108-.077.179-.159s.143-.164.179-.159.04.093.043.18.007.176.044.18.105-.075.174-.154.136-.158.173-.154a.2.2,0,0,1,.095.048.19.19,0,0,0,.1.049c.036,0,.059.048.08.093s.044.09.081.093c.074.006.147.016.222.021a.689.689,0,0,0,.119-.008.732.732,0,0,1,.115-.008.439.439,0,0,0,.122-.021.461.461,0,0,1,.12-.021.213.213,0,0,1,.1.038.208.208,0,0,0,.1.038.172.172,0,0,1,.1.048.169.169,0,0,0,.1.048c.076,0,.167-.047.244-.05a.633.633,0,0,1,.11.008.6.6,0,0,0,.116.008c.077-.005.225-.3.3-.311a.62.62,0,0,1,.109,0,.588.588,0,0,0,.116,0,.148.148,0,0,1,.1.052.144.144,0,0,0,.106.052c.079-.01.172-.087.251-.1.04-.006.074.023.107.052s.069.058.109.051c.08-.014.173-.1.253-.117a.485.485,0,0,1,.116,0,.473.473,0,0,0,.121,0,.234.234,0,0,1,.115.015.228.228,0,0,0,.118.014c.081-.018.162-.026.243-.045s.167-.075.248-.1.167-.093.249-.114.177-.237.258-.26c.04-.011.077.027.115.066s.075.078.115.066c.081-.024.171-.207.253-.231a.159.159,0,0,1,.118.029.158.158,0,0,0,.119.029c.081-.025.163-.029.244-.056s.169-.257.25-.284c.041-.013.08.052.119.118s.078.132.119.118c.081-.028.164-.082.246-.11s.164-.131.246-.16.163-.026.245-.055.163-.253.244-.282.163-.049.244-.078c.041-.015.082.025.123.064s.082.079.123.064c.082-.029.163-.066.244-.1s.163-.075.245-.1.161-.312.243-.342.164-.023.245-.053a.254.254,0,0,1,.123,0,.254.254,0,0,0,.122,0c.081-.029.163-.007.245-.035a.228.228,0,0,1,.122,0,.231.231,0,0,0,.122,0c.081-.029.164-.217.245-.246s.162-.013.244-.04.165-.18.247-.208a.252.252,0,0,1,.122,0,.256.256,0,0,0,.12,0,.182.182,0,0,1,.12.016.184.184,0,0,0,.12.016c.081-.026.16-.007.241-.032s.17-.214.252-.238.17-.158.251-.181c.04-.012.077.04.113.091s.073.1.113.092c.081-.022.181-.286.262-.308.041-.011.074.058.108.127s.068.138.108.127c.081-.021.178-.217.258-.237S87.31.714,87.391.7a.2.2,0,0,1,.116.02.2.2,0,0,0,.116.02c.081-.019.179-.181.259-.2.041-.009.075.033.109.075s.068.083.108.075a.285.285,0,0,1,.117.007A.285.285,0,0,0,88.332.7c.08-.016.167-.08.247-.095A.587.587,0,0,1,88.7.6a.6.6,0,0,0,.117-.006c.08-.014.177-.136.257-.149a.151.151,0,0,1,.109.044.151.151,0,0,0,.108.045c.079-.013.191-.2.271-.215s.169-.069.248-.08a.23.23,0,0,1,.113.022.234.234,0,0,0,.112.022c.079-.01.172-.081.251-.09s.156,0,.234-.01.17-.065.249-.072S90.922.1,91,.1c.039,0,.064.057.088.118s.048.121.087.118c.078-.006.2-.177.275-.182a.146.146,0,0,1,.1.057.149.149,0,0,0,.1.057c.078,0,.224-.262.3-.265.039,0,.068.034.1.069s.058.069.1.068c.077,0,.164-.035.241-.035a.213.213,0,0,1,.105.037.218.218,0,0,0,.1.037c.077,0,.186-.106.262-.1s.151.011.227.013a.471.471,0,0,0,.12-.02.455.455,0,0,1,.124-.02c.038,0,.049.084.06.166s.022.164.06.166.093-.049.149-.1.112-.1.15-.1a.613.613,0,0,0,.117-.008.591.591,0,0,1,.12-.007c.038,0,.056.057.076.111s.037.107.074.111a.5.5,0,0,1,.107.026.5.5,0,0,0,.1.026.53.53,0,0,0,.115,0,.509.509,0,0,1,.118,0c.037,0,.1-.06.165-.125s.129-.13.166-.125A.161.161,0,0,1,95,.245a.162.162,0,0,0,.088.068.325.325,0,0,1,.1.041.327.327,0,0,0,.1.04c.072.013.13.058.2.072A.55.55,0,0,0,95.6.473a.531.531,0,0,1,.115.007.264.264,0,0,0,.13-.028.259.259,0,0,1,.131-.028c.07.016.021.29.091.307.033.008.068.014.1.02s.075.013.111.023.109-.061.183-.132S96.61.5,96.645.51h0c.069.02-.021.353.047.375s.134.044.2.067c.034.011.093-.025.152-.062s.119-.073.152-.061a.352.352,0,0,0,.112.013.348.348,0,0,1,.114.014c.066.026.095.119.16.145s.1.106.165.134.048.189.112.219.108.086.171.117c.031.015.09-.014.15-.044s.119-.06.151-.044.086-.005.142-.027.112-.043.142-.026c.061.034.027.214.087.249s.057.162.117.2c.029.018.093-.012.157-.043s.128-.062.157-.043c.058.038-.011.254.046.294s.1.1.151.143c.028.021.083.006.137-.009s.11-.03.138-.009a.2.2,0,0,0,.115.021.194.194,0,0,1,.117.022c.054.044.006.217.059.262s.055.151.107.2.055.148.105.2a.2.2,0,0,0,.1.039.2.2,0,0,1,.1.04.173.173,0,0,0,.115.027.17.17,0,0,1,.116.028c.048.051.01.2.057.247s.154.041.2.094-.047.248,0,.3c.021.027.07.028.118.029s.1,0,.119.03c.042.056-.031.224.01.282.02.029.1.006.17-.016s.151-.045.171-.015c.04.059-.027.217.011.278s-.031.215.006.277.067.126.1.19.069.125.1.189.132.074.164.139-.017.193.014.259.145.067.176.133-.048.216-.017.283c.015.034.1.012.19-.01s.175-.044.19-.011c.03.067-.192.327-.162.394s.163.054.194.121-.052.221-.02.287c.016.033.075.031.136.029s.119,0,.135.028c.033.065.022.164.056.227s.05.142.085.2-.069.25-.031.311c.019.031.072.031.124.032s.1,0,.122.03c.04.058.067.13.109.186.021.028.068.031.115.033a.161.161,0,0,1,.113.03c.045.053.041.157.089.207s.12.069.172.115.007.213.062.255.116.079.173.115c.029.019.092-.014.156-.046s.123-.063.153-.047c.06.033.057.161.12.19s.02.246.085.271c.033.012.109-.056.184-.125s.15-.136.183-.125c.067.021,0,.306.072.324a.339.339,0,0,0,.121,0,.374.374,0,0,1,.115,0c.071.014.1.127.174.138s.147.024.22.032a.318.318,0,0,0,.127-.028.332.332,0,0,1,.124-.029c.037,0,.1-.061.156-.124s.117-.125.155-.124a.167.167,0,0,1,.095.05.16.16,0,0,0,.1.05.162.162,0,0,1,.1.051.159.159,0,0,0,.1.051c.076,0,.2-.167.274-.17a.669.669,0,0,1,.108.007.669.669,0,0,0,.114.007c.038,0,.061.06.083.122s.045.124.083.121a.48.48,0,0,1,.11.009.465.465,0,0,0,.115.009c.077-.006.2-.2.275-.2.039,0,.067.042.095.087s.056.09.095.086c.078-.008.2-.217.277-.226.039,0,.07.026.1.057s.063.061.1.057c.078-.008.215-.3.293-.307l.231-.023a1.019,1.019,0,0,1,.118,0,1.042,1.042,0,0,0,.114,0c.04,0,.062.068.084.141s.045.144.084.14c.078-.008.164-.054.242-.06s.2-.213.28-.22.173-.085.251-.091.159-.02.236-.025c.039,0,.061.062.083.128s.044.13.083.127c.078-.005.177-.1.254-.1s.185-.123.262-.126.158-.022.236-.025a.2.2,0,0,1,.1.038.2.2,0,0,0,.1.038c.038,0,.066.035.094.072s.056.072.094.072a.6.6,0,0,1,.112.011.609.609,0,0,0,.109.012c.077,0,.169-.058.245-.057a.334.334,0,0,1,.108.023.339.339,0,0,0,.105.023c.038,0,.089-.043.14-.085s.1-.086.141-.085a.4.4,0,0,0,.122-.027.391.391,0,0,1,.124-.027c.038,0,.057.058.077.115s.039.113.076.115a.306.306,0,0,0,.127-.042.3.3,0,0,1,.129-.042.218.218,0,0,1,.1.042.213.213,0,0,0,.1.042c.037,0,.1-.062.159-.126s.122-.129.16-.125a.154.154,0,0,1,.092.066.155.155,0,0,0,.091.066c.073.007.152,0,.226.01.037,0,.052.065.067.125s.03.12.066.125c.073.01.145.018.217.028a.276.276,0,0,0,.127-.032.273.273,0,0,1,.128-.031.169.169,0,0,1,.089.063.172.172,0,0,0,.088.063c.035.006.093-.038.151-.083s.115-.09.151-.083c.071.014.08.169.15.184s.13.053.2.069.13.05.2.068a.353.353,0,0,0,.114,0,.34.34,0,0,1,.116,0,.377.377,0,0,0,.112.006.356.356,0,0,1,.115.007c.068.021.055.2.122.219.034.011.11-.06.187-.13s.154-.142.187-.13c.067.023.078.152.144.176s.039.214.1.241a.219.219,0,0,0,.133-.025.217.217,0,0,1,.134-.025.223.223,0,0,0,.127-.011.215.215,0,0,1,.128-.01c.064.029-.033.32.03.351a.252.252,0,0,0,.11.014.247.247,0,0,1,.113.015c.03.016.1-.023.162-.062s.133-.078.164-.061c.06.034-.056.331,0,.367.029.018.08,0,.131-.011s.1-.029.133-.01c.058.037.027.2.085.235.028.019.107-.03.186-.08s.159-.1.187-.08c.056.04-.035.275.02.317a.2.2,0,0,0,.11.025.2.2,0,0,1,.112.026.192.192,0,0,0,.114.022.187.187,0,0,1,.116.023c.052.045.12.075.171.121s-.156.395-.106.443.154.029.2.079.125.066.172.116.156.034.2.087.084.113.127.167-.039.234,0,.289c.021.028.08.019.139.009s.118-.019.139.01c.041.057.086.112.125.171s.062.133.1.193.115.087.151.148-.072.246-.037.309c.017.032.077.028.136.025s.121-.007.137.025c.032.065-.168.313-.137.379s.118.086.147.153.111.095.137.163.135.081.16.152-.016.186.007.258-.082.223-.062.3c.01.036.076.038.143.04s.134,0,.143.041c.019.074-.088.222-.071.3s-.036.187-.022.264.208.06.219.138.063.14.072.219-.173.248-.166.328.055.142.059.223.161.1.163.187-.036.183-.037.266.057.151.054.235-.143.212-.149.3.014.164.006.25,0,.17-.015.256-.01.172-.022.258,0,.169-.009.256-.021.173-.034.26-.094.186-.107.273-.19.206-.2.293.263.112.253.2-.26.228-.267.314-.034.18-.04.265.237.092.236.176-.023.167-.02.249.015.152.023.232-.055.188-.041.266-.089.221-.069.3.078.124.1.193.116.089.147.154.139.059.175.119-.143.321-.1.377.084.12.129.172c.023.026.1-.011.182-.049s.156-.073.181-.05c.049.047.026.175.079.218s.09.1.146.142.118.066.176.1c.029.018.08,0,.131-.013s.1-.031.13-.014c.06.032-.018.28.044.31s.108.088.172.116.133.047.2.073a.489.489,0,0,0,.109.023.518.518,0,0,1,.1.021.224.224,0,0,0,.133-.03.231.231,0,0,1,.132-.03c.066.022,0,.307.067.327.034.01.093-.03.152-.07s.117-.08.151-.071c.068.019.048.221.116.239.035.009.1-.056.173-.121s.138-.13.173-.122c.069.017.019.288.088.3a.257.257,0,0,0,.131-.029.255.255,0,0,1,.131-.029.294.294,0,0,0,.123-.011.293.293,0,0,1,.122-.011.755.755,0,0,0,.11.015.777.777,0,0,1,.111.015c.071.017.075.176.146.193.035.008.1-.037.156-.083s.121-.092.156-.083c.071.017.02.293.091.31.035.008.1-.046.164-.1s.129-.11.164-.1c.071.017.11.1.181.118s.136.045.206.061.129.06.2.077a.27.27,0,0,0,.126-.018.275.275,0,0,1,.126-.018c.07.017.011.313.082.33a.259.259,0,0,0,.13-.026.258.258,0,0,1,.13-.026.429.429,0,0,0,.115.005.446.446,0,0,1,.115.005c.07.017.122.073.193.09.035.008.091-.029.148-.066s.113-.074.148-.066a.935.935,0,0,0,.109.017.867.867,0,0,1,.11.017c.071.016.091.141.161.158a.406.406,0,0,0,.115,0,.412.412,0,0,1,.116,0c.071.017.025.283.1.3.035.009.1-.04.159-.089s.123-.1.158-.089c.071.017.129.059.2.076s.069.188.14.205c.035.008.089-.024.144-.057s.109-.065.144-.057c.071.017.115.089.186.106a.251.251,0,0,0,.141-.049.253.253,0,0,1,.14-.049.494.494,0,0,0,.114.008.5.5,0,0,1,.113.008c.068.016-.026.366.044.389.032.011.1-.043.168-.1s.14-.109.173-.095c.064.026.1.106.165.138a.221.221,0,0,0,.125,0,.211.211,0,0,1,.13,0c.06.034.052.174.111.212s.106.091.163.131.02.2.074.244c.027.021.087,0,.148-.021s.123-.042.149-.02c.052.045-.033.256.017.3.025.024.086.006.147-.011s.124-.035.148-.01c.048.05.141.059.186.111s-.022.228.021.283-.033.225.007.283c.02.029.089.013.158,0s.14-.033.158,0c.037.062-.1.274-.068.337s.1.1.13.165.136.083.159.153.03.159.047.233-.057.2-.048.277a1.839,1.839,0,0,1,.017.237c0,.086-.093.2-.095.286s-.016.174-.018.259.2.1.2.189-.113.205-.117.29.207.111.2.2-.147.213-.155.3.061.157.052.243-.111.2-.122.284.07.161.056.248-.056.185-.073.273-.217.2-.237.287.133.167.109.255-.212.18-.24.268-.047.174-.079.262.064.195.026.282-.189.151-.231.238-.1.161-.152.246.093.258.04.341-.1.184-.162.265-.294.033-.356.111-.132.134-.2.21-.051.229-.12.3-.077.227-.15.3-.172.1-.247.164c-.036.031-.1.013-.163-.005s-.129-.037-.167-.006c-.073.06-.137.125-.215.184s-.147.106-.226.163-.142.123-.221.177-.108.247-.188.3a.223.223,0,0,1-.132.022.226.226,0,0,0-.129.021c-.078.048-.17.02-.249.065s-.1.378-.178.421a.185.185,0,0,1-.132,0,.19.19,0,0,0-.13,0c-.08.04-.157.1-.237.141a.2.2,0,0,1-.127,0,.2.2,0,0,0-.124,0c-.08.035-.146.292-.226.325a.183.183,0,0,1-.126-.01.186.186,0,0,0-.123-.011c-.081.031-.161.183-.242.212-.041.015-.08-.044-.12-.1s-.079-.117-.12-.1c-.081.027-.161.128-.242.153s-.172.235-.253.258-.161.018-.241.038-.167.079-.246.1c-.04.01-.075-.03-.11-.069s-.069-.078-.109-.069c-.079.017-.169.111-.249.126a.148.148,0,0,1-.11-.042.151.151,0,0,0-.109-.042c-.079.014-.177.144-.256.156s-.176.113-.254.124c-.04.005-.072-.028-.1-.062s-.064-.067-.1-.062c-.078.01-.2.241-.282.248-.039,0-.059-.08-.078-.164s-.039-.168-.078-.164c-.078.007-.207.235-.285.24a.152.152,0,0,1-.1-.051.152.152,0,0,0-.1-.051.574.574,0,0,0-.172.07.555.555,0,0,1,.045.138c.005.067.021.134.024.2a.1.1,0,0,1,0,.02l10.51,2.574a.281.281,0,0,0,.116,0,.28.28,0,0,1,.116,0c.066.024.031.24.1.265a.4.4,0,0,0,.108.018.391.391,0,0,1,.109.018c.065.025.122.067.187.092s.053.194.118.22a.415.415,0,0,0,.107.021.423.423,0,0,1,.107.021.321.321,0,0,0,.109.015.324.324,0,0,1,.11.015.249.249,0,0,0,.116,0,.25.25,0,0,1,.116,0,.219.219,0,0,0,.125-.011.217.217,0,0,1,.125-.011c.064.027.138.037.2.065s.005.272.068.3.14.033.2.061.088.123.151.152c.031.014.083-.005.134-.025s.1-.04.134-.025c.063.03.026.228.088.258s.114.076.176.106c.031.015.113-.054.193-.123s.163-.139.194-.123c.062.031-.018.3.043.328.031.016.086-.009.142-.034s.111-.05.142-.035c.061.033-.007.272.053.3.03.017.1-.025.164-.067s.134-.084.164-.067c.06.033.108.088.167.122s.124.063.182.1.052.172.111.208.009.234.067.271c.029.018.093-.016.157-.05s.129-.069.157-.05a.208.208,0,0,0,.113.017.2.2,0,0,1,.113.017c.057.039-.076.351-.021.39s.128.055.183.094c.028.02.1-.024.177-.069s.149-.09.176-.069c.055.042-.043.291.011.333.027.021.085,0,.143-.019s.116-.04.142-.019c.053.043.038.177.089.222s.021.2.072.241.107.085.157.132c.025.024.1-.009.169-.043s.145-.067.169-.043c.05.049.1.106.143.155s-.041.26.005.311.063.136.107.189.014.186.057.241c.022.028.068.029.114.03s.093,0,.114.031c.042.057.05.147.089.2s.124.074.162.134,0,.186.039.248.025.161.058.226.091.1.12.171c.015.034.084.026.152.017s.138-.016.151.018c.028.07-.17.3-.146.375.012.036.064.044.116.052s.1.016.115.053c.021.075-.062.214-.045.29s.044.145.057.223.187.077.2.158-.117.227-.113.31.074.142.074.226-.143.216-.148.3.058.152.049.239.067.16.052.249-.162.2-.182.285-.135.178-.16.268.208.177.18.268-.054.187-.086.277-.107.179-.144.268-.261.136-.3.225.138.24.095.326-.12.171-.167.256-.162.145-.213.228-.124.157-.178.238-.038.218-.1.3-.167.123-.228.2-.16.117-.224.191-.188.07-.255.141-.1.181-.165.249-.045.286-.115.351-.159.112-.232.174-.177.066-.25.125-.191.008-.267.064-.159.072-.235.125-.128.173-.205.223-.129.2-.206.244-.175.007-.254.052-.121.288-.2.332-.163.077-.243.119a.259.259,0,0,1-.126.02.264.264,0,0,0-.124.019c-.04.019-.085-.021-.131-.062s-.091-.081-.131-.063c-.079.037-.142.255-.223.291s-.161.048-.24.082-.159.079-.239.111-.158.185-.239.215-.162.063-.241.092-.161.038-.241.065c-.04.014-.078-.041-.116-.1s-.076-.109-.116-.1c-.08.026-.162.136-.241.161s-.173.3-.252.326c-.04.012-.076-.04-.112-.091s-.072-.1-.112-.091c-.08.023-.157.031-.236.053a.283.283,0,0,1-.117,0,.287.287,0,0,0-.115,0c-.079.021-.188.364-.267.384-.04.01-.076-.021-.111-.052s-.071-.062-.111-.053a.178.178,0,0,1-.113-.021.18.18,0,0,0-.112-.021c-.08.019-.181.231-.26.249l-.237.053c-.04.009-.072-.038-.1-.085s-.065-.093-.1-.085c-.079.017-.173.148-.251.165s-.177.2-.257.218-.155.038-.235.057c-.039.009-.07-.056-.1-.121s-.064-.131-.1-.12c-.079.02-.169.148-.249.169s-.156.005-.235.028-.164.116-.244.14a.285.285,0,0,1-.116,0,.277.277,0,0,0-.12,0,.254.254,0,0,1-.117,0,.25.25,0,0,0-.12,0c-.079.026-.162.09-.241.118s-.161.089-.24.118-.159.214-.238.244a.2.2,0,0,1-.119,0,.2.2,0,0,0-.121,0,.151.151,0,0,1-.123-.028.148.148,0,0,0-.123-.027c-.079.033-.16.1-.239.139s-.165.035-.244.072-.147.213-.226.251-.162.052-.241.092-.136.23-.214.272-.148.119-.227.163-.149.106-.227.152a.191.191,0,0,1-.128.01.186.186,0,0,0-.129.011c-.078.048-.147.121-.223.171a.18.18,0,0,1-.137,0,.175.175,0,0,0-.138.005c-.076.053-.069.34-.143.4a.177.177,0,0,1-.143,0,.17.17,0,0,0-.142.006c-.074.059-.123.172-.2.232s-.184.051-.255.114-.19.061-.259.127-.148.138-.214.207a.111.111,0,0,0-.023.073.493.493,0,0,1,.062.085c.023.047.049.093.07.14s0,.132.021.181-.065.18-.045.23c.01.025.065.014.121,0s.111-.02.12,0c.019.05-.118.216-.1.267s.021.11.037.162c.008.026.056.025.1.024s.1,0,.1.024c.015.053.015.117.029.171s.032.107.044.161-.024.14-.013.2-.06.157-.051.213.043.1.051.155.06.091.067.149.07.089.075.148-.158.194-.155.253,0,.117,0,.177.19.046.19.106-.061.146-.062.207-.016.127-.018.188,0,.121,0,.183.078.1.073.165-.156.16-.163.223-.034.128-.043.191-.014.124-.024.187,0,.123-.016.186.054.119.041.183-.191.138-.206.2.091.121.074.185-.144.127-.163.19.138.132.118.2-.189.118-.211.181.02.132,0,.2,0,.133-.028.2-.038.13-.063.192-.131.109-.158.172.064.156.036.219-.2.084-.227.146.076.169.045.23-.1.112-.13.173-.071.121-.1.182-.08.116-.114.176-.027.143-.062.2-.206.046-.242.105h0a.752.752,0,0,0,0,.093c0,.035.063.046.123.057s.12.023.123.058c0,.07-.012.151-.01.221s.011.142.012.213-.068.169-.069.24-.117.181-.119.254.027.134.022.207.051.13.045.2.064.13.055.2-.25.2-.261.275-.028.147-.041.222.226.108.21.183-.116.166-.133.242-.054.155-.073.231-.031.152-.052.228.071.149.047.225-.238.159-.263.236-.076.151-.1.228-.05.151-.08.227-.036.153-.069.228.036.163,0,.239-.275.122-.311.2.081.176.044.251-.214.12-.254.194.138.2.1.277-.269.1-.312.171-.01.171-.055.244-.041.165-.088.238-.082.152-.13.224-.193.1-.243.173.039.213-.013.283-.269.052-.322.122.049.231-.006.3-.152.114-.208.182-.12.133-.177.2-.131.124-.189.19-.071.171-.131.237-.27,0-.33.067-.067.175-.128.239-.1.146-.166.208-.145.1-.209.166-.041.218-.106.279-.124.132-.189.192-.18.061-.247.12-.115.142-.182.2c-.033.029-.093.022-.153.015a.211.211,0,0,0-.152.014c-.067.057-.043.246-.111.3s-.147.1-.216.152-.2.015-.265.069-.079.209-.149.262-.159.071-.23.123-.092.2-.163.251-.133.126-.2.177c-.036.025-.1,0-.158-.034s-.123-.059-.159-.034c-.072.049-.063.278-.135.327s-.16.063-.233.111-.116.172-.189.219-.176.018-.249.064-.151.081-.224.126a.227.227,0,0,1-.127.02.227.227,0,0,0-.126.02c-.074.044-.1.226-.178.27a.176.176,0,0,1-.132,0,.178.178,0,0,0-.131,0c-.074.043-.108.229-.183.271s-.14.125-.214.166a.2.2,0,0,1-.127.008.2.2,0,0,0-.126.007.2.2,0,0,1-.125.006.2.2,0,0,0-.124.005c-.075.04-.11.262-.186.3a.157.157,0,0,1-.129-.02.16.16,0,0,0-.129-.021c-.075.038-.144.109-.219.146s-.139.143-.215.18-.154.06-.229.1a.262.262,0,0,1-.119.016.266.266,0,0,0-.119.016c-.076.035-.151.072-.227.107a.245.245,0,0,1-.119.012.246.246,0,0,0-.117.012c-.076.033-.151.055-.227.088s-.136.239-.212.27a.211.211,0,0,1-.119,0,.211.211,0,0,0-.117,0c-.076.031-.14.247-.216.277a.17.17,0,0,1-.119-.013.171.171,0,0,0-.118-.013c-.076.029-.15.126-.226.154a.228.228,0,0,1-.116,0,.23.23,0,0,0-.115,0c-.076.028-.151.139-.227.166s-.154.032-.23.059c-.038.014-.077-.014-.115-.041s-.077-.054-.115-.041c-.076.027-.152.211-.229.237-.038.013-.076-.012-.114-.037s-.076-.05-.114-.037c-.076.025-.152.059-.228.085s-.155.177-.231.2a.161.161,0,0,1-.113-.02.161.161,0,0,0-.112-.021c-.076.024-.151.026-.227.049s-.163.262-.239.285-.154.06-.23.082c-.038.011-.072-.035-.107-.081s-.069-.092-.107-.081c-.076.022-.15.024-.226.045s-.161.162-.237.183-.162.15-.238.17a.367.367,0,0,1-.113.006.363.363,0,0,0-.112.006c-.038.01-.07-.038-.1-.086s-.064-.1-.1-.086c-.076.019-.152.049-.227.067s-.15.032-.226.05-.153.054-.228.071-.17.182-.245.2a.158.158,0,0,1-.107-.027.16.16,0,0,0-.106-.027.221.221,0,0,1-.108-.011.224.224,0,0,0-.107-.011c-.075.016-.193.31-.268.325a.14.14,0,0,1-.1-.039.141.141,0,0,0-.1-.039c-.075.014-.154.051-.229.065a.16.16,0,0,1-.1-.029.162.162,0,0,0-.1-.029c-.075.013-.187.229-.262.242a.15.15,0,0,1-.1-.034.152.152,0,0,0-.1-.035c-.075.012-.172.133-.246.145-.037.006-.062-.053-.086-.112s-.048-.118-.086-.112c-.074.011-.162.09-.237.1s-.185.185-.26.2a.666.666,0,0,1-.11,0,.677.677,0,0,0-.108,0c-.074.009-.156.051-.231.06-.037,0-.064-.033-.092-.07s-.054-.075-.091-.071c-.074.008-.164.083-.238.091a.137.137,0,0,1-.1-.044.139.139,0,0,0-.1-.044c-.074.007-.173.115-.247.122s-.168.09-.241.1c-.036,0-.065-.027-.092-.057s-.055-.06-.092-.057c-.073.006-.2.2-.273.206-.037,0-.052-.07-.067-.143s-.03-.145-.066-.143c-.073,0-.2.2-.274.2a.142.142,0,0,1-.094-.045.146.146,0,0,0-.094-.045c-.073,0-.167.077-.239.08s-.169.083-.241.085-.146.007-.218.008a.253.253,0,0,1-.1-.024.262.262,0,0,0-.1-.024c-.036,0-.057-.043-.078-.087s-.042-.088-.078-.088c-.072,0-.244.294-.316.294-.036,0-.045-.076-.054-.152s-.018-.152-.054-.153-.087.045-.139.091-.1.092-.139.091a.3.3,0,0,0-.127.052.3.3,0,0,1-.127.052.183.183,0,0,1-.094-.039.187.187,0,0,0-.093-.038.345.345,0,0,0-.118.029.341.341,0,0,1-.119.029c-.035,0-.06-.03-.085-.059a.132.132,0,0,0-.085-.059.641.641,0,0,0-.11.008.634.634,0,0,1-.111.008c-.07,0-.138-.013-.208-.017-.035,0-.057-.038-.078-.074s-.042-.071-.077-.074c-.069-.005-.141,0-.21-.01-.035,0-.09.043-.145.089s-.111.093-.145.089-.054-.042-.074-.08-.039-.077-.073-.08a.18.18,0,0,1-.089-.044.184.184,0,0,0-.088-.044.358.358,0,0,0-.115.016.35.35,0,0,1-.115.016.448.448,0,0,1-.1-.026.461.461,0,0,0-.095-.026.42.42,0,0,0-.11.007.42.42,0,0,1-.112.007.587.587,0,0,0-.107,0,.579.579,0,0,1-.109,0,.236.236,0,0,1-.09-.04.233.233,0,0,0-.089-.04.312.312,0,0,0-.115.016.307.307,0,0,1-.117.016c-.034-.005-.05-.047-.065-.089s-.032-.083-.065-.089c-.067-.011-.133-.021-.2-.033a.408.408,0,0,0-.108,0,.407.407,0,0,1-.109,0c-.067-.013-.134-.02-.2-.034a.385.385,0,0,0-.108,0,.388.388,0,0,1-.11,0,.254.254,0,0,0-.127.034.253.253,0,0,1-.127.034c-.066-.014-.013-.251-.078-.266-.032-.007-.085.023-.136.052s-.1.06-.137.052-.065-.012-.1-.018-.069-.011-.1-.019-.065-.014-.1-.02-.067-.012-.1-.02a.259.259,0,0,0-.119.018.257.257,0,0,1-.12.018c-.064-.017-.064-.149-.128-.165a.25.25,0,0,0-.135.043.246.246,0,0,1-.135.043c-.064-.017-.026-.212-.09-.23a.428.428,0,0,0-.1-.01.422.422,0,0,1-.1-.011.252.252,0,0,0-.119.015.247.247,0,0,1-.12.014.3.3,0,0,0-.11,0,.289.289,0,0,1-.112,0c-.063-.019-.123-.043-.185-.062s.007-.261-.055-.28a.448.448,0,0,0-.1-.015.437.437,0,0,1-.1-.015.239.239,0,0,0-.133.037.236.236,0,0,1-.134.037c-.062-.02-.02-.211-.081-.232a.259.259,0,0,0-.113,0,.253.253,0,0,1-.114,0c-.031-.01-.088.022-.146.055s-.115.065-.146.055c-.061-.021-.128-.035-.189-.056s-.043-.171-.1-.193a.427.427,0,0,0-.1-.017.418.418,0,0,1-.1-.017A.232.232,0,0,0,92,78.94a.228.228,0,0,1-.123.017c-.061-.022.038-.3-.023-.319s-.107-.067-.167-.089c-.03-.011-.1.043-.174.1s-.144.108-.174.1c-.061-.022-.059-.143-.119-.165s-.114-.056-.174-.079a.328.328,0,0,0-.1-.013.323.323,0,0,1-.1-.013c-.06-.023-.1-.08-.159-.1-.037-.014-.055-.059-.078-.1-.051.071-.1.168-.155.191-.08.033-.163.008-.244.04-.04.016-.082-.011-.124-.039s-.082-.055-.122-.039c-.08.031-.156.211-.236.24s-.161.045-.241.073-.16.016-.24.044-.163.191-.243.218-.165.154-.245.179a.162.162,0,0,1-.119-.025.164.164,0,0,0-.118-.026c-.08.024-.167.153-.247.176a.165.165,0,0,1-.118-.027.164.164,0,0,0-.116-.027c-.08.022-.169.147-.249.169s-.162.05-.243.07-.164.065-.244.083a.244.244,0,0,1-.118-.01.245.245,0,0,0-.115-.01.184.184,0,0,1-.115-.024.184.184,0,0,0-.113-.024.163.163,0,0,1-.112-.032.164.164,0,0,0-.112-.032c-.079.016-.189.255-.269.27-.04.007-.074-.025-.108-.058s-.068-.065-.107-.058c-.079.014-.179.157-.258.17-.04.006-.072-.031-.1-.068s-.064-.074-.1-.068c-.079.012-.165.069-.244.08s-.2.241-.277.251a.161.161,0,0,1-.108-.042.164.164,0,0,0-.107-.042c-.079.009-.178.119-.257.128a.313.313,0,0,1-.113-.015.314.314,0,0,0-.112-.015c-.039,0-.069-.037-.1-.078s-.059-.081-.1-.078a.208.208,0,0,1-.108-.03.206.206,0,0,0-.106-.03c-.078.006-.216.272-.294.277-.039,0-.068-.035-.1-.072s-.058-.074-.1-.072c-.077,0-.188.141-.265.144-.039,0-.068-.031-.1-.063s-.06-.064-.1-.063c-.077,0-.217.245-.294.246-.039,0-.053-.085-.068-.17s-.03-.171-.068-.17c-.077,0-.211.211-.288.212s-.191.131-.267.131a.2.2,0,0,1-.1-.04.207.207,0,0,0-.1-.04.326.326,0,0,0-.127.041.323.323,0,0,1-.128.041c-.038,0-.065-.039-.091-.077S81.492,80,81.454,80a.291.291,0,0,0-.13.052.293.293,0,0,1-.131.052c-.038,0-.061-.048-.085-.094s-.047-.092-.084-.094a.3.3,0,0,0-.127.039.3.3,0,0,1-.128.04c-.038,0-.065-.036-.092-.069s-.054-.066-.091-.069a.373.373,0,0,0-.121.022.37.37,0,0,1-.123.022.241.241,0,0,1-.1-.04.245.245,0,0,0-.1-.04.223.223,0,0,1-.1-.044.222.222,0,0,0-.1-.044c-.037,0-.1.067-.164.137s-.127.141-.164.137-.05-.076-.062-.147-.025-.143-.062-.147-.091.04-.145.083-.109.088-.145.083-.063-.039-.088-.074-.051-.069-.087-.073-.06-.045-.083-.085-.046-.08-.083-.085a.6.6,0,0,0-.114,0,.6.6,0,0,1-.115,0c-.036-.005-.1.055-.16.115s-.124.121-.16.115c-.073-.011-.036-.3-.108-.311-.036-.006-.1.063-.168.132s-.132.138-.168.132c-.072-.012-.014-.347-.086-.36-.036-.006-.107.074-.178.155s-.143.161-.179.155a.981.981,0,0,0-.109-.012.986.986,0,0,1-.113-.012c-.072-.014-.019-.324-.09-.339-.036-.007-.091.032-.146.071s-.11.078-.146.071c-.071-.015-.108-.109-.179-.124a.25.25,0,0,0-.131.035.249.249,0,0,1-.132.035l-.213-.046c-.07-.016-.132-.052-.2-.069s-.02-.3-.09-.321c-.035-.008-.1.055-.169.118s-.134.126-.169.118c-.07-.017-.134-.049-.2-.066s-.09-.144-.159-.161a.41.41,0,0,0-.112-.007.411.411,0,0,1-.112-.007c-.068-.018-.109-.1-.177-.115s-.089-.137-.158-.156a.236.236,0,0,0-.136.045c-.051.027-.1.054-.137.045l-.206-.054a.778.778,0,0,0-.107-.019.8.8,0,0,1-.107-.019c-.068-.019-.055-.21-.124-.228-.034-.009-.1.044-.161.1s-.126.106-.161.1l-.2-.056c-.068-.019-.04-.245-.108-.263a.238.238,0,0,0-.129.029.237.237,0,0,1-.129.029.236.236,0,0,0-.133.038.236.236,0,0,1-.132.038.5.5,0,0,0-.111-.011.517.517,0,0,1-.109-.011c-.069-.018-.006-.323-.075-.34a.238.238,0,0,0-.131.036.241.241,0,0,1-.131.036c-.035-.008-.087.023-.139.055s-.1.064-.139.055c-.07-.016-.01-.325-.079-.341-.035-.008-.1.048-.16.1s-.125.112-.16.1c-.07-.015-.074-.181-.144-.2s-.13-.054-.2-.068-.1-.126-.171-.139c-.035-.007-.1.059-.165.124s-.129.13-.165.124c-.071-.013-.124-.067-.2-.078s-.12-.079-.191-.09c-.036-.005-.056-.052-.076-.1s-.04-.094-.076-.1a.316.316,0,0,1-.1-.037.31.31,0,0,0-.1-.037c-.036,0-.1.08-.173.165s-.137.169-.174.165-.043-.091-.049-.179-.014-.175-.05-.179-.1.078-.168.16-.131.162-.167.16a.2.2,0,0,1-.1-.045.19.19,0,0,0-.1-.045c-.037,0-.06-.046-.083-.09s-.047-.089-.085-.09c-.074,0-.148-.011-.223-.013a.684.684,0,0,0-.12.012.748.748,0,0,1-.114.012c-.075,0-.164.049-.24.05a.211.211,0,0,1-.1-.034.208.208,0,0,0-.1-.034.172.172,0,0,1-.1-.044.17.17,0,0,0-.1-.044c-.076,0-.165.053-.242.058a.642.642,0,0,1-.11,0,.589.589,0,0,0-.116,0c-.077.008-.214.312-.292.322a.626.626,0,0,1-.108,0,.591.591,0,0,0-.117,0,.148.148,0,0,1-.106-.049.144.144,0,0,0-.107-.048c-.079.013-.169.093-.248.108-.04.007-.074-.02-.109-.048s-.071-.056-.11-.048c-.079.017-.169.108-.249.126a.5.5,0,0,1-.116.008.466.466,0,0,0-.121.009.234.234,0,0,1-.116-.011.229.229,0,0,0-.118-.01c-.08.021-.161.032-.242.054s-.164.081-.245.1-.164.1-.245.123-.168.243-.249.269c-.04.013-.078-.025-.117-.062s-.078-.075-.118-.062c-.081.026-.164.213-.244.24a.16.16,0,0,1-.12-.025.157.157,0,0,0-.12-.025c-.081.028-.161.035-.242.064s-.16.263-.24.292c-.04.015-.082-.05-.123-.114s-.083-.129-.123-.114c-.08.03-.161.088-.242.118s-.159.137-.24.168-.162.032-.243.063-.154.258-.234.29-.161.055-.241.087c-.04.016-.082-.022-.125-.06s-.085-.076-.125-.059c-.08.032-.161.071-.241.1s-.16.08-.241.113-.15.318-.23.35-.163.029-.243.061a.254.254,0,0,1-.122.008.252.252,0,0,0-.122.008c-.08.032-.162.012-.243.044a.23.23,0,0,1-.122,0,.228.228,0,0,0-.122,0c-.08.032-.156.223-.236.254s-.162.019-.243.049-.159.186-.239.216a.253.253,0,0,1-.122,0,.254.254,0,0,0-.12,0,.183.183,0,0,1-.121-.012.182.182,0,0,0-.12-.012c-.08.029-.16.013-.24.04s-.163.22-.243.247-.164.164-.244.19c-.04.013-.078-.037-.117-.087s-.076-.1-.116-.088c-.081.025-.171.292-.251.317-.04.012-.077-.056-.113-.123s-.072-.135-.112-.124c-.08.024-.17.223-.25.246s-.167.145-.248.168a.2.2,0,0,1-.117-.016.2.2,0,0,0-.116-.016c-.08.022-.173.187-.253.207-.04.01-.076-.03-.111-.071s-.071-.081-.111-.071a.284.284,0,0,1-.117,0,.283.283,0,0,0-.115,0c-.08.019-.164.085-.244.1s-.155,0-.234.021-.172.142-.251.158a.15.15,0,0,1-.111-.041.152.152,0,0,0-.11-.041c-.08.015-.184.21-.263.224s-.166.075-.245.088a.23.23,0,0,1-.114-.018.232.232,0,0,0-.112-.018c-.079.013-.169.087-.248.1s-.155.007-.234.018-.167.071-.246.081-.156.011-.234.02c-.039,0-.066-.055-.092-.115s-.052-.119-.092-.115c-.078.009-.191.184-.269.192a.146.146,0,0,1-.1-.053.149.149,0,0,0-.1-.053c-.078.007-.214.27-.292.275-.039,0-.069-.031-.1-.065s-.06-.067-.1-.065c-.077,0-.162.04-.239.044a.215.215,0,0,1-.107-.033.217.217,0,0,0-.1-.033c-.077,0-.182.112-.259.114-.04,0-.081,0-.12,0s-.071,0-.107,0c-.076,0-.165.048-.241.048Z" transform="translate(728.452 0)" fill="#dd4f0a"/><path d="M14.217-14.007a1.932,1.932,0,0,0-1.281-.714c-.336,0-.672.21-.945.21a11.214,11.214,0,0,0-2.478-.546c-4.935,0-8.841,4.536-8.841,9.345C.672-1.7,3.486.294,7.308.294c3.045,0,6.363-1.239,7.476-4.305.189-.546.189-.84.777-.987.546-.126.987-.315.987-.987,0-1.533-2.31-1.659-3.612-1.659-1.407,0-4.452.063-4.452,1.638A.971.971,0,0,0,9.3-5.04c.567.147.651.189.651.8A1.29,1.29,0,0,1,8.61-2.856c-1.617,0-2.079-1.89-2.079-3.171,0-1.848.84-5.985,3.276-5.985,1.89,0,1.449,2.856,3.36,2.856A2.061,2.061,0,0,0,15.2-11.382,4.033,4.033,0,0,0,14.217-14.007ZM21.231.273A6.928,6.928,0,0,0,28.371-6.7c0-2.751-2.163-4.158-4.788-4.158a6.928,6.928,0,0,0-7.14,6.972C16.443-1.134,18.606.273,21.231.273Zm1.659-8.9c.588,0,.693.546.693,1.029a23.075,23.075,0,0,1-.5,3.759c-.126.63-.294,1.89-1.176,1.89-.546,0-.672-.483-.672-.966a20.156,20.156,0,0,1,.42-3.717C21.8-7.287,22.008-8.631,22.89-8.631ZM33.81-3.024c-.42.042-.483-.5-.483-.819-.021-1.344,1.386-4.473,2.5-4.557.336-.021.42.4.42.672C36.288-6.678,34.923-3.108,33.81-3.024Zm5.838-7.728a3.933,3.933,0,0,0-1.785.546,2.231,2.231,0,0,1-.8.336c-.609,0-1.2-1.008-2.667-.861-3.234.294-5.586,3.822-5.754,7.6-.084,1.7.714,3.4,2.646,3.4,2.163,0,3.192-1.89,3.738-1.89.672,0-.231,1.785,1.638,1.785,1.155,0,4.221-1.218,4.221-2.583,0-.336-.21-.483-.525-.525-.231-.021-.378,0-.462-.252a4.125,4.125,0,0,1-.021-1.344c.168-2.268.546-4.158.63-5.418C40.551-10.542,40.236-10.752,39.648-10.752Zm8.232-3.255c0-.819-.462-1.008-1.2-1.008a12.5,12.5,0,0,0-3.486.672c-.84.273-1.806.609-1.806,1.659,0,.42.231.609.651.609.168,0,.336-.042.5-.042.357,0,.441.168.4.5-.273,2.457-.924,6.321-1.218,9.723C41.6-.378,42.294.147,43.428.147c1.365,0,4.788-.924,4.788-2.667,0-.294-.1-.651-.462-.651-.21,0-.42.063-.63.063-.336,0-.357-.483-.357-.735Z" transform="translate(769.706 48.262)" fill="#fff"/><circle cx="4.342" cy="4.342" r="4.342" transform="translate(32.569 37.604)" fill="#f8f8f8"/><circle cx="4.342" cy="4.342" r="4.342" transform="translate(183.47 37.604)" fill="#f8f8f8"/><circle cx="4.342" cy="4.342" r="4.342" transform="translate(333.286 37.604)" fill="#f8f8f8"/><circle cx="4.342" cy="4.342" r="4.342" transform="translate(483.102 37.604)" fill="#f8f8f8"/><circle cx="4.342" cy="4.342" r="4.342" transform="translate(634.003 37.604)" fill="#f8f8f8"/><path d="M2787.456,1519.857v25.487H2332.3v-41.3" transform="translate(-2145.247 -1431.652)" fill="none" stroke="#dd4f0a" stroke-width="1" stroke-dasharray="1"/><path d="M0,0H171.528V18.456H0Z" transform="translate(347.399 103.942)" fill="#f8f8f8"/><path d="M2.3-3.47a2.639,2.639,0,0,0-.53,1.43c0,1.3,1.15,2.02,3.39,2.02A15.08,15.08,0,0,0,8.14-.26c.12-.02.18-.06.17-.15a8.361,8.361,0,0,0-.16-.98c-.02-.09-.07-.12-.21-.09a12.722,12.722,0,0,1-2.71.29c-1.72,0-2.37-.31-2.37-.94a1.643,1.643,0,0,1,.26-.76c.05-.08.04-.13-.05-.18C2.81-3.21,2.56-3.34,2.3-3.47Zm.22-3.78c-.02.36-.04.65-.04.89,0,.12.04.16.13.18a12.481,12.481,0,0,0,1.75.17,6.876,6.876,0,0,0,.82-.03c-.35.21-.79.49-1.31.83a2.389,2.389,0,0,1,.7.32.42.42,0,0,0,.21.06.426.426,0,0,0,.25-.09,5.826,5.826,0,0,1,2.45-.99c.12-.01.17-.07.17-.21a6.585,6.585,0,0,0-.05-.85c-.01-.08-.05-.12-.15-.11-.64.04-1.39.09-2.12.09A12.615,12.615,0,0,1,2.52-7.25ZM12.2-3.47a2.639,2.639,0,0,0-.53,1.43c0,1.3,1.15,2.02,3.39,2.02a15.08,15.08,0,0,0,2.98-.24c.12-.02.18-.06.17-.15a8.362,8.362,0,0,0-.16-.98c-.02-.09-.07-.12-.21-.09a12.722,12.722,0,0,1-2.71.29c-1.72,0-2.37-.31-2.37-.94a1.643,1.643,0,0,1,.26-.76c.05-.08.04-.13-.05-.18C12.71-3.21,12.46-3.34,12.2-3.47Zm.22-3.78c-.02.36-.04.65-.04.89,0,.12.04.16.13.18a12.481,12.481,0,0,0,1.75.17,6.876,6.876,0,0,0,.82-.03c-.35.21-.79.49-1.31.83a2.389,2.389,0,0,1,.7.32.42.42,0,0,0,.21.06.426.426,0,0,0,.25-.09,5.826,5.826,0,0,1,2.45-.99c.12-.01.17-.07.17-.21a6.585,6.585,0,0,0-.05-.85c-.01-.08-.05-.12-.15-.11-.64.04-1.39.09-2.12.09A12.615,12.615,0,0,1,12.42-7.25Zm13.46,4.2c.85-.35,1.5-.57,2.15-.8A3.2,3.2,0,0,1,28.64-4c.1-.02.15-.06.15-.14a.4.4,0,0,0-.08-.22,6.16,6.16,0,0,0-.7-.88,3.007,3.007,0,0,1-.76.54c-.51.26-1.08.52-1.47.7a1.1,1.1,0,0,0-1.22-1.08,1.99,1.99,0,0,0-1,.31l-.01-.02A10.32,10.32,0,0,0,24.3-5.9c.73-.08,1.59-.19,2.34-.3.14-.02.18-.06.17-.16a3.372,3.372,0,0,0-.1-.72c-.02-.09-.05-.12-.16-.1a16.087,16.087,0,0,1-1.82.31c.12-.27.17-.4.23-.54a.779.779,0,0,1,.17-.24.193.193,0,0,0,.07-.15.179.179,0,0,0-.12-.17,6.314,6.314,0,0,0-1.14-.28,2.434,2.434,0,0,1-.07.61,7.705,7.705,0,0,1-.3.86,22.057,22.057,0,0,1-2.3.01c.03.3.07.67.1.83.02.11.05.16.14.16.59,0,1.13-.01,1.6-.03a10.219,10.219,0,0,1-2.09,2.48c-.05.04-.07.07-.07.11a.163.163,0,0,0,.04.09,4.757,4.757,0,0,0,.57.66.2.2,0,0,0,.11.07c.04,0,.07-.03.12-.09a13.476,13.476,0,0,1,1-1.09,2.414,2.414,0,0,1,1.38-.72c.45-.02.57.18.6.69-1.51.78-2.11,1.48-2.11,2.44,0,1.16.87,1.65,2.51,1.65A17.786,17.786,0,0,0,27.65.35c.08,0,.12-.07.11-.19a4.475,4.475,0,0,0-.09-.82c-.01-.09-.05-.12-.14-.11a17.09,17.09,0,0,1-2.49.2c-1.05,0-1.39-.27-1.39-.69,0-.48.32-.87,1.21-1.33-.01.36-.01.86-.01,1.22,0,.1.04.16.13.16a5.41,5.41,0,0,0,.71-.05c.13-.02.19-.07.19-.18Zm9.54,1.04A5.332,5.332,0,0,1,33.01-.3a1.535,1.535,0,0,1,.36.5c.08.18.12.25.19.25A.655.655,0,0,0,33.8.36a5.533,5.533,0,0,0,2.04-1.71C35.83-.46,35.8.43,35.8.7c0,.1.01.11.12.11h.74c.1,0,.11-.01.11-.11,0-.28-.04-1.25-.04-2.17A5.734,5.734,0,0,0,38.74.29a.835.835,0,0,0,.23.1c.08,0,.1-.08.17-.26a1.951,1.951,0,0,1,.37-.61,5.757,5.757,0,0,1-2.35-1.53h.66c.95,0,1.28.02,1.34.02.1,0,.11-.01.11-.12v-.63c0-.1-.01-.11-.11-.11-.06,0-.39.02-1.34.02H36.75a1.471,1.471,0,0,1,.04-.42c.01-.06.05-.13.06-.2.12,0,.29-.01.57-.01h.68c.54,0,.7.02.77.02.1,0,.11-.01.11-.11,0-.06-.02-.22-.02-.64v-.57c0-.43.02-.57.02-.63,0-.11-.01-.12-.11-.12-.07,0-.23.02-.77.02h-.68c-.53,0-.69-.02-.76-.02-.1,0-.11.01-.11.12,0,.06.02.21.02.64v.56a5.517,5.517,0,0,1-.02.56c-.16-.02-.31-.03-.47-.04-.01-.1-.01-.25-.01-.52v-.56c0-.43.02-.58.02-.64,0-.11-.01-.12-.11-.12-.06,0-.22.02-.74.02H34.6c-.51,0-.66-.02-.73-.02-.1,0-.11.01-.11.12,0,.06.02.2.02.63v.57c0,.42-.02.58-.02.64,0,.1.01.11.11.11.07,0,.22-.02.73-.02h.64c.26,0,.43.01.54.01l.04.62h-.68c-.95,0-1.28-.02-1.35-.02-.1,0-.11.01-.11.11v.63c0,.11.01.12.11.12.07,0,.4-.02,1.35-.02Zm2.79-2.14h-.9V-4.8h.9Zm-2.89,0h-.8V-4.8h.8Zm-2.67-.71c-.15.04-.16.06-.12.17.06.16.11.33.16.5l-.9.06c.49-.65,1.03-1.45,1.54-2.27.15-.24.2-.32.3-.38a.177.177,0,0,0,.12-.16c0-.06-.03-.09-.13-.14a5.489,5.489,0,0,0-.77-.37,3.311,3.311,0,0,1-.28.61c-.21.36-.43.74-.67,1.12l-.39-.47c.29-.44.53-.86.8-1.37a.535.535,0,0,1,.18-.24.154.154,0,0,0,.09-.13c0-.06-.04-.1-.13-.16-.24-.12-.51-.22-.78-.33a3.908,3.908,0,0,1-.2.57,7.536,7.536,0,0,1-.53,1.03l-.19-.2c-.07-.08-.08-.08-.16.01l-.41.48c-.09.11-.1.14-.02.21a12.449,12.449,0,0,1,1.22,1.41c-.19.28-.38.55-.58.81-.23,0-.47,0-.76-.01.04.29.09.58.15.84.03.11.07.17.11.17a.277.277,0,0,0,.16-.05.9.9,0,0,1,.38-.08l.67-.05V-.61c0,.92-.02,1.25-.02,1.31,0,.1.01.11.11.11h.74c.11,0,.12-.01.12-.11,0-.05-.02-.39-.02-1.31V-3.37c.14-.01.29-.03.43-.05l.05.4c.01.1.04.13.18.09l.46-.11c.12-.03.14-.06.12-.16a10.7,10.7,0,0,0-.43-1.71c-.04-.09-.05-.09-.18-.06ZM35.64-8.1c-.75,0-1-.02-1.07-.02-.1,0-.11.01-.11.12,0,.06.02.23.02.67v.61c0,.44-.02.6-.02.66,0,.11.01.12.11.12.07,0,.32-.02,1.07-.02H37c.75,0,1,.02,1.07.02.1,0,.11-.01.11-.12,0-.06-.02-.22-.02-.66v-.61c0-.44.02-.61.02-.67,0-.11-.01-.12-.11-.12-.07,0-.32.02-1.07.02Zm1.58,1.42h-1.8v-.7h1.8ZM30.03-.2a2.885,2.885,0,0,1,.47.26.494.494,0,0,0,.23.12c.05,0,.08-.07.13-.23a9.024,9.024,0,0,0,.36-1.9,1.183,1.183,0,0,1,.05-.35.282.282,0,0,0,.04-.15c0-.05-.03-.08-.15-.12-.17-.05-.44-.11-.72-.16a6.142,6.142,0,0,1-.01.62A6.487,6.487,0,0,1,30.03-.2Zm2.73-2.38c-.12.04-.14.05-.11.16a7.928,7.928,0,0,1,.31,1.57c.01.12.03.12.18.07l.42-.15c.13-.04.14-.06.13-.17a8.325,8.325,0,0,0-.34-1.54c-.03-.1-.05-.11-.16-.07ZM42.36-8a9.253,9.253,0,0,1-.08,1.14,21.137,21.137,0,0,0-.24,2.49,6.4,6.4,0,0,0,.3,2.03c.02.07.07.14.14.13.25-.03.68-.09.8-.12a.14.14,0,0,0,.13-.16,1.25,1.25,0,0,1,.05-.3,8.187,8.187,0,0,1,.59-1.28.471.471,0,0,0,.1-.25.23.23,0,0,0-.06-.16,2.073,2.073,0,0,1-.31-.65c-.27.51-.48.89-.7,1.28a10.1,10.1,0,0,1,.03-1.1c.06-.52.14-1.23.28-1.91a1.154,1.154,0,0,1,.18-.47.229.229,0,0,0,.07-.16c0-.09-.06-.15-.19-.2A5.241,5.241,0,0,0,42.36-8Zm3.2.02a4.791,4.791,0,0,1,.21,1.09c.07.64.12,1.68.12,2.39a4.815,4.815,0,0,1-.84,3.19A4.949,4.949,0,0,1,43.35.03a2.32,2.32,0,0,1,.85.46.29.29,0,0,0,.21.11.346.346,0,0,0,.2-.07,5.51,5.51,0,0,0,1.65-1.61,6.569,6.569,0,0,0,.76-3.47c0-.72-.07-1.63-.14-2.58a3.54,3.54,0,0,1,.02-.46c.02-.17,0-.22-.2-.27A5.775,5.775,0,0,0,45.56-7.98Zm8.82,2.15V-6.97h3.08c.94,0,1.26.02,1.32.02.1,0,.11-.01.11-.11V-7.8c0-.11-.01-.12-.11-.12-.06,0-.38.02-1.32.02H54.84c-.94,0-1.28-.02-1.34-.02-.1,0-.11.01-.11.12,0,.06.02.54.02,1.58a15.628,15.628,0,0,1-.13,2.45,4.575,4.575,0,0,1-.82,2.13,1.975,1.975,0,0,1,.55.54c.08.12.14.18.19.18s.09-.06.17-.19a5.859,5.859,0,0,0,.85-2.29,11.9,11.9,0,0,0,.14-1.54h.17a5.943,5.943,0,0,0,1.19,2.23,6.85,6.85,0,0,1-1.93,1.15,1.62,1.62,0,0,1,.48.55c.09.16.13.23.2.23a.747.747,0,0,0,.24-.1A7.185,7.185,0,0,0,56.4-2.04,7.434,7.434,0,0,0,58.3-.9a.632.632,0,0,0,.21.07c.08,0,.13-.07.19-.25a3.254,3.254,0,0,1,.38-.72,7.47,7.47,0,0,1-2-.99,8.127,8.127,0,0,0,1.08-1.93,1.075,1.075,0,0,1,.19-.36.223.223,0,0,0,.09-.17c0-.06-.03-.14-.27-.38-.26-.25-.33-.28-.42-.28a.22.22,0,0,0-.13.04.391.391,0,0,1-.21.04Zm2.82.89a6.356,6.356,0,0,1-.83,1.53,4.747,4.747,0,0,1-.93-1.53ZM52.3-3.56c0-.61.02-.89.02-.95,0-.1-.01-.11-.11-.11-.06,0-.22.02-.75.02h-.62c-.54,0-.68-.02-.73-.02-.11,0-.12.01-.12.11v.76c0,.11.01.12.12.12.05,0,.19-.02.73-.02h.48v2.22a6.425,6.425,0,0,1-.84.64,4.531,4.531,0,0,1-.59.31,8.737,8.737,0,0,0,.41.94c.04.08.1.13.14.13.06,0,.1-.03.15-.1a.927.927,0,0,1,.2-.2,11.3,11.3,0,0,0,1.03-.88A1.934,1.934,0,0,0,52.8.3a6.825,6.825,0,0,0,2.34.29c1.04,0,2.23-.03,3.5-.1.32-.02.32-.02.37-.34a1.863,1.863,0,0,1,.27-.76c-1.49.15-3.01.22-4.3.22A5.646,5.646,0,0,1,53.13-.6a1.534,1.534,0,0,1-.83-.83Zm-2-4.09c-.11.07-.12.1-.04.18a9.007,9.007,0,0,1,1.32,1.6c.03.04.06.07.09.07s.07-.03.13-.07l.56-.43c.12-.09.11-.12.05-.2a8.649,8.649,0,0,0-1.35-1.53c-.04-.03-.06-.05-.09-.05a.277.277,0,0,0-.13.06Zm11.77-.24a6.648,6.648,0,0,1,.1,1.83c-.05,1.2-.14,2.64-.14,4.32,0,1.53.6,2.04,1.88,2.04A5.713,5.713,0,0,0,67.7-1.2c.16-.14.2-.22.2-.31a.657.657,0,0,0-.08-.24,3.477,3.477,0,0,1-.23-.95,5.273,5.273,0,0,1-3.5,1.84c-.8,0-.92-.23-.92-1.24,0-1.31.05-2.33.15-3.87a5.994,5.994,0,0,1,.14-1.22.97.97,0,0,0,.1-.33c0-.1-.07-.15-.24-.19A10.343,10.343,0,0,0,62.07-7.89ZM73.81-6.03a3.618,3.618,0,0,0-1.92,3.17c0,2.08,1.93,3.09,3.69,3.09.12,0,.16-.06.19-.21a3.557,3.557,0,0,0,.11-.86c0-.11-.06-.15-.22-.15C73.92-1.1,73-1.8,73-3.09a3.277,3.277,0,0,1,2.55-2.95,4.462,4.462,0,0,1,1.22-.22c.13,0,.19-.03.19-.15a5.713,5.713,0,0,0-.11-.88c-.01-.07-.06-.13-.21-.11-2.58.34-4.78.67-6.01.85a13.8,13.8,0,0,1-1.59.17,6.968,6.968,0,0,0,.37,1.08.234.234,0,0,0,.19.15.584.584,0,0,0,.22-.08c.15-.05.25-.07.63-.16,1.07-.22,2.14-.43,3.36-.66Zm5.36-.92a5.36,5.36,0,0,1,.12,1.31,18.13,18.13,0,0,0,.24,2.91C79.8-1.04,80.62-.12,81.4-.12c.7,0,1.32-.54,1.7-1.56a.306.306,0,0,0-.07-.37,3.823,3.823,0,0,1-.64-.77c-.39,1.04-.64,1.39-.96,1.39-.42,0-.68-.68-.82-1.47a12.594,12.594,0,0,1-.18-2.28,4.494,4.494,0,0,1,.09-.98.871.871,0,0,0,.08-.28c0-.07-.07-.14-.16-.18A4.328,4.328,0,0,0,79.17-6.95Zm5.12,1.42a6.738,6.738,0,0,1,1.87,3.49c.02.12.09.15.21.11a3.394,3.394,0,0,0,.78-.4c.08-.05.14-.09.11-.22A6.612,6.612,0,0,0,85.3-5.97a.154.154,0,0,0-.11-.06.3.3,0,0,0-.11.04C84.92-5.91,84.67-5.77,84.29-5.53Zm7.82-1.11a17.632,17.632,0,0,1-2.49.16c.06.32.13.69.16.8s.08.14.2.14a17.318,17.318,0,0,0,2.43-.24c.13.28.28.62.38.83a17.438,17.438,0,0,1-2.69.25,5.046,5.046,0,0,0,.18.82c.03.1.07.14.18.14a23.623,23.623,0,0,0,2.74-.3,11.629,11.629,0,0,0,.83,1.18,4.631,4.631,0,0,0-1.72-.25c-1.56,0-2.48.67-2.48,1.74,0,1.23,1.22,1.88,3.52,1.88q.375,0,.72-.03c.14-.01.18-.05.21-.15a6.5,6.5,0,0,0,.2-.91c.01-.08-.02-.13-.12-.13-.36.02-.73.06-1.1.06-1.53,0-2.38-.21-2.38-.86,0-.47.55-.76,1.49-.76a4.869,4.869,0,0,1,1.88.32,2.518,2.518,0,0,1,.59.32.266.266,0,0,0,.14.06c.06,0,.1-.03.16-.1a2.9,2.9,0,0,0,.41-.62c.05-.11.05-.15-.05-.24a7.457,7.457,0,0,1-1.31-1.73,12.308,12.308,0,0,0,1.69-.49c.1-.04.1-.09.08-.18a3.791,3.791,0,0,0-.18-.66c-.03-.09-.08-.11-.18-.06a11.744,11.744,0,0,1-1.82.52c-.13-.28-.26-.59-.35-.84.68-.15,1.29-.3,1.96-.51a.153.153,0,0,0,.12-.18c-.04-.2-.11-.48-.17-.67-.03-.08-.08-.09-.17-.05a15.6,15.6,0,0,1-2.04.53c-.06-.17-.09-.26-.16-.52a1.775,1.775,0,0,1-.04-.3c0-.06.02-.13.02-.19,0-.1-.08-.18-.22-.18a7.071,7.071,0,0,0-1.21.11,2.536,2.536,0,0,1,.35.64C91.97-7.04,92.03-6.87,92.11-6.64ZM102.39-2.2c-.47-.04-.71-.04-.96-.04-1.21,0-2,.61-2,1.42,0,.83.74,1.4,2.04,1.4,1.37,0,2.02-.44,2.03-1.52A7.935,7.935,0,0,1,105.49.2a.153.153,0,0,0,.11.05.147.147,0,0,0,.13-.08,3.008,3.008,0,0,0,.44-.74c.03-.12.03-.15-.07-.24a8.916,8.916,0,0,0-2.65-1.21c-.03-.46-.05-.95-.07-1.41a18.112,18.112,0,0,0,1.96-.24c.11-.01.15-.04.15-.14,0-.3-.02-.63-.03-.82-.01-.09-.04-.11-.16-.08-.72.11-1.2.21-1.96.26,0-.36-.01-.73-.01-1.13a20.457,20.457,0,0,0,2.31-.26c.08-.01.11-.03.11-.16a5.343,5.343,0,0,0-.05-.73c-.01-.12-.05-.15-.17-.12a16.827,16.827,0,0,1-2.19.3c.01-.3.01-.44.02-.64a1.285,1.285,0,0,1,.15-.48.2.2,0,0,0-.11-.3,5.794,5.794,0,0,0-1.26-.18,2.876,2.876,0,0,1,.12.67c.01.34.02.6.02.97a22.863,22.863,0,0,1-2.62-.1c.02.41.04.65.07.9.01.1.06.14.17.14a16.457,16.457,0,0,0,2.39.05c.01.38.01.77.02,1.15a14.07,14.07,0,0,1-2.25-.08,5.968,5.968,0,0,0,.06.85c.01.13.05.17.16.17a17.707,17.707,0,0,0,2.06.04C102.35-3.05,102.37-2.64,102.39-2.2Zm.02.95a.96.96,0,0,1-.11.56,1.235,1.235,0,0,1-.91.3c-.69,0-.99-.19-.99-.45,0-.32.35-.53,1.08-.53A4.313,4.313,0,0,1,102.41-1.25Zm10.26-5.3c-1.2.07-2.49.15-3.1.2a6.6,6.6,0,0,1-1.22.04,7.007,7.007,0,0,0,.25,1.01c.03.1.07.14.17.14s.25-.09.47-.12c.79-.11,2.2-.23,3.46-.3,0,.33.01.67.01,1.02a1.225,1.225,0,0,0-.76-.2,1.457,1.457,0,0,0-1.51,1.5,1.385,1.385,0,0,0,1.39,1.53,1.154,1.154,0,0,0,.94-.4,3.34,3.34,0,0,1-2.05,2.2,2.229,2.229,0,0,1,.76.4.566.566,0,0,0,.3.15.953.953,0,0,0,.39-.19,3.734,3.734,0,0,0,1.78-3.23,3.115,3.115,0,0,0-.15-.99c-.01-.61-.01-1.25-.01-1.86,1.04-.01,2.01-.01,3.05.02.12.01.17-.02.17-.13.01-.25.01-.51,0-.76-.01-.13-.03-.15-.15-.15-.96,0-1.99.01-3.07.05.01-.38.01-.51.02-.64a1.045,1.045,0,0,1,.08-.29.422.422,0,0,0,.09-.23c0-.09-.11-.16-.28-.19a10.16,10.16,0,0,0-1.17-.14,3.177,3.177,0,0,1,.12.73C112.66-7.11,112.66-6.86,112.67-6.55Zm-.64,2.57a.6.6,0,0,1,.66.64.642.642,0,0,1-.68.69.62.62,0,0,1-.64-.68A.636.636,0,0,1,112.03-3.98Zm11.34-3.94h-1.56l.28,5.95h1.01ZM121.87-1V.35h1.42V-1Z" transform="translate(368.026 117.17)" fill="#001650"/><path d="M7.6,0l7.6,13.027H0Z" transform="translate(179.128 65.831)" fill="#dd4f0a"/></g><path d="M2902.794,1443.49c-1.235,6.648-1.189-24.109,9.766-20.326S2904.029,1436.842,2902.794,1443.49Z" transform="translate(-1810.878 -175.258)" fill="#dd4f0a" stroke="#dd4f0a" stroke-linejoin="round" stroke-width="1"/><path d="M.4,15.487C-.524,20.473-.49-2.595,7.726.243S1.328,10.5.4,15.487Z" transform="translate(1113.926 1260.575) rotate(60)" fill="#dd4f0a" stroke="#dd4f0a" stroke-linejoin="round" stroke-width="1"/></g></svg>