<svg xmlns="http://www.w3.org/2000/svg" xmlns:xlink="http://www.w3.org/1999/xlink" viewBox="0 0 342 264">
  <defs>
    <clipPath id="clip-path">
      <rect id="長方形_813" data-name="長方形 813" width="180.577" height="75.523" fill="#fff"/>
    </clipPath>
  </defs>
  <g id="グループ_4937" data-name="グループ 4937" transform="translate(-3806 -3187.287)">
    <rect id="長方形_812" data-name="長方形 812" width="342" height="264" transform="translate(3806 3187.287)" fill="#ce391e"/>
    <g id="グループ_4936" data-name="グループ 4936" transform="translate(3886.711 3281.526)" clip-path="url(#clip-path)">
      <path id="パス_21106" data-name="パス 21106" d="M7.614,32.744c-.65,0-1.339.044-1.984.092-.694.044-1.342.092-2.033.092-1.982,0-3.6-.463-3.6-2.724,0-3.183,2.86-1.385,3.69-4.012,1.15-3.692,2.63-14.721,2.63-18.275,0-3.736-3.093-1.659-3.093-4.427C3.227.488,6.044.4,8.351.4,12.6.4,17.441.258,21.963.166,27.036.073,36.311.9,36.311,14.1c0,5.078-1.8,18.644-18.27,18.644Zm8.445-8.261c.046,1.524-.049,2.676,1.613,2.676,5.631,0,6.74-8.537,6.74-14.119,0-3.6-.558-7.569-4.527-7.569-2.812,0-2.394,2.586-2.627,4.292Z" transform="translate(0.002 0.249)" fill="#fff"/>
      <path id="パス_21107" data-name="パス 21107" d="M13.628,18.886c0-8.811,6.921-15.318,15.691-15.318,5.767,0,10.522,3.091,10.522,9.134,0,8.816-6.924,15.323-15.689,15.323-5.769,0-10.524-3.091-10.524-9.139m11.446-6.043a44.322,44.322,0,0,0-.922,8.166c0,1.063.277,2.125,1.475,2.125,1.938,0,2.307-2.768,2.586-4.156a50.981,50.981,0,0,0,1.106-8.258c0-1.06-.233-2.261-1.524-2.261-1.936,0-2.4,2.952-2.722,4.384" transform="translate(21.268 5.568)" fill="#fff"/>
      <path id="パス_21108" data-name="パス 21108" d="M50.127,16.855a11.16,11.16,0,0,0-.274,2.12c0,1.017.507,1.385,1.429,1.385,1.06.046,1.613,0,1.613,1.244,0,3.554-7.7,6-10.519,6-2.955,0-1.57-4.1-3.185-4.1-1.014,0-4.937,4.292-9.735,4.1-2.584-.092-4.015-1.751-4.107-4.753-.092-2.584.968-6.368,1.339-9.551.136-1.2.461-2.261-1.06-2.445-.924-.092-1.938-.233-1.938-1.429,0-1.846,2.584-3.188,3.969-3.831A18.211,18.211,0,0,1,35.086,3.7c1.754,0,2.353.927,2.353,2.632A78.416,78.416,0,0,1,36.1,14.917c-.092.6-1.247,5.167.74,5.167,1.475,0,2.538-1.846,3.045-2.955,1.89-4.335,1.014-10.148,3.091-11.856,1.293-1.155,4.568-1.616,6.276-1.616,1.431,0,2.676.415,2.676,1.982,0,.6-.184,1.708-.23,2.307Z" transform="translate(36.969 5.708)" fill="#fff"/>
      <path id="パス_21109" data-name="パス 21109" d="M48.139,6.878c-.136,1.567-.461,3.229-.461,4.842,0,.371.138.832.553.832.876,0,2.863-3.462,6.6-3.462,4.612,0,6.414,4.2,6.181,8.168-.553,9.136-6.274,16.334-16.657,16.334-3.785,0-8.494-1.385-8.494-5.953a56.939,56.939,0,0,1,1.063-7.751A78.3,78.3,0,0,0,38.081,8.537c0-1.293,0-1.751-1.383-1.844s-1.941-.187-1.941-1.8c0-1.982,1.8-2.63,3.416-3.183A32.09,32.09,0,0,1,46.154,0c2.817,0,2.494,1.339,2.307,3.925ZM45.832,27.132c.092.648.184,1.57,1.014,1.57,2.863,0,3.833-9,3.785-9.782-.046-.83-.092-2.586-1.291-2.586-2.63,0-3.646,10.015-3.508,10.8" transform="translate(54.242 0)" fill="#fff"/>
      <path id="パス_21110" data-name="パス 21110" d="M56.774,24.549c0,.556.046,1.616.784,1.616.461,0,.922-.138,1.385-.138.784,0,1.014.784,1.014,1.431,0,3.828-7.521,5.859-10.519,5.859-2.494,0-4.018-1.152-3.738-4.476.645-7.474,2.074-15.968,2.676-21.366.092-.737-.092-1.106-.876-1.106-.371,0-.74.092-1.109.092-.922,0-1.429-.417-1.429-1.339,0-2.3,2.12-3.045,3.969-3.644A27.376,27.376,0,0,1,56.59,0c1.616,0,2.63.415,2.63,2.215Z" transform="translate(70.168 0)" fill="#fff"/>
      <path id="パス_21111" data-name="パス 21111" d="M75.326,9.058c0,5.582-6.23,9.92-11.443,9.92-.645,0-1.8,0-1.8.97,0,1.339,1.664,2.077,2.817,2.077,3.324,0,5.859-2.63,7.336-2.63a2.035,2.035,0,0,1,1.846,1.936c0,2.445-3.091,3.969-4.986,4.847a18.929,18.929,0,0,1-7.981,1.846c-5.631,0-10.522-2.445-10.289-8.629.415-9.6,9.367-15.827,17.763-15.827,3.646,0,6.737,1.429,6.737,5.49M61.99,13.9c0,.556.184,1.293.83,1.293,1.293,0,3.554-3.416,3.416-5.628-.044-.6-.323-1.431-1.06-1.431-1.892,0-3.185,4.292-3.185,5.767" transform="translate(79.307 5.568)" fill="#fff"/>
      <path id="パス_21112" data-name="パス 21112" d="M26.4,13.7a22.615,22.615,0,0,0,3.877-.274c.784-.141,1.152-.279,1.337-.279,2.768,0,4.384,4.66,4.384,6.875,0,2.031-.878,3.831-3.139,3.831-3.505,0-1.8-4.847-6.55-4.847-4.153,0-4.292.556-4.522,2.264a42.6,42.6,0,0,0-.74,5.306c0,.6.463.553.97.553,3.091,0,1.152-4.2,4.568-4.2,2.353,0,2.86,3.139,2.86,4.937,0,2.586-.369,9.415-4.107,9.415-3.413,0-.83-4.847-3.413-4.847-.878,0-1.754-.136-1.754,6.924,0,2.906,3.185,1.385,3.185,3.736,0,3.508-6.924,3.324-9.277,3.324-7.149,0-9.551-.648-9.551-3.278,0-2.584,2.445-1.244,3.367-3.505,1.293-3.232,2.863-14.58,2.863-18.183,0-4.012-3.091-1.659-3.091-4.891,0-2.535,2.722-3.042,4.752-3.042,3.736,0,5.352.182,7.011.182Z" transform="translate(7.062 20.52)" fill="#fff"/>
      <path id="パス_21113" data-name="パス 21113" d="M40.644,18.525c-.182,2.768-1.011,6.921-1.383,11.9a9.086,9.086,0,0,0,.046,2.955c.184.553.507.507,1.014.553.694.092,1.155.415,1.155,1.155,0,3-6.737,5.674-9.275,5.674-4.107,0-2.123-3.923-3.6-3.923-1.2,0-3.459,4.153-8.212,4.153-4.246,0-6-3.739-5.815-7.477.369-8.3,5.539-16.055,12.644-16.7,3.229-.323,4.522,1.892,5.859,1.892a4.909,4.909,0,0,0,1.754-.737,8.624,8.624,0,0,1,3.923-1.2c1.293,0,1.982.463,1.89,1.754m-9.364,4.891c0-.6-.184-1.524-.924-1.475-2.445.184-5.536,7.06-5.49,10.012,0,.691.138,1.892,1.06,1.8,2.445-.184,5.444-8.03,5.354-10.337" transform="translate(22.724 26.173)" fill="#fff"/>
      <path id="パス_21114" data-name="パス 21114" d="M45.664,32.555c1.2,0,1.8,1.524,1.8,2.538,0,1.662-2.074,2.955-3.367,3.644a17.656,17.656,0,0,1-8.908,2.4c-5.674,0-10.058-2.54-10.058-8.724,0-8.537,7.7-15.732,16.106-15.732,3.736,0,7.613,1.844,7.751,6.135a5.682,5.682,0,0,1-5.4,5.677c-1.521,0-3.416-1.014-3.416-2.768,0-1.247.786-2.307.786-3.093a.826.826,0,0,0-.83-.83c-2.86-.046-3.692,7.474-3.692,9.551,0,1.475.323,3.785,2.307,3.785a9.429,9.429,0,0,0,4.66-1.616,4.719,4.719,0,0,1,2.261-.968" transform="translate(39.218 26.034)" fill="#fff"/>
      <path id="パス_21115" data-name="パス 21115" d="M46.719,34.287c-.461,2.031.138,3.278,1.293,3.278,1.106,0,1.938-.878,2.63-.878.968,0,1.247.878,1.247,1.662,0,3.6-8.768,6.555-11.446,6.555-2.768,0-4.614-1.342-4.614-4.294a27.425,27.425,0,0,1,.463-4.384l1.383-8.12c.323-1.8.184-2.031-1.662-2.031-1.106,0-1.708-.323-1.708-1.57a2.917,2.917,0,0,1,2.909-3.278c1.475-.184,1.616-.645,2.261-2.768.415-1.385.922-2.722,2.169-3.324a14.41,14.41,0,0,1,5.769-1.014c1.152,0,1.751.507,1.751,1.708-.092.922-.415,3.554-.415,4.292,0,1.385,1.524.922,2.909.922.6,0,1.152.141,1.152.832a13.791,13.791,0,0,1-.23,1.984c-.141,1.014-.141,1.982-1.385,1.982-3.183,0-3.183-.138-3.877,3.879Z" transform="translate(53.537 22.039)" fill="#fff"/>
      <path id="パス_21116" data-name="パス 21116" d="M40.94,32c0-8.811,6.921-15.318,15.691-15.318,5.766,0,10.522,3.091,10.522,9.134,0,8.816-6.924,15.323-15.689,15.323C45.7,41.138,40.94,38.048,40.94,32m11.446-6.043a44.321,44.321,0,0,0-.922,8.166c0,1.063.277,2.125,1.475,2.125,1.938,0,2.307-2.768,2.586-4.156a50.982,50.982,0,0,0,1.106-8.258c0-1.06-.233-2.261-1.524-2.261-1.936,0-2.4,2.952-2.722,4.384" transform="translate(63.892 26.034)" fill="#fff"/>
      <path id="パス_21117" data-name="パス 21117" d="M64.033,34.429c.274,4.476-1.662,6.23-7.984,6.507-1.708.092-3.554-.371-3.554-2.445,0-2.771,1.846-8.537,1.938-12.829.049-1.247-.092-1.616-1.337-1.616-1.431,0-2.169-.369-2.169-2.031,0-2.491,3.738-3.229,5.49-4.1a9.585,9.585,0,0,1,4.245-1.2c2.814,0,1.57,4.384,3.045,4.384,1.339,0,1.2-4.43,5.493-4.43a5.209,5.209,0,0,1,5.029,5.49c0,2.817-1.385,5.539-4.522,5.539-1.662,0-2.307-.648-3.091-1.984-.138-.279-.556-1.109-.924-1.109-.645,0-.922,1.938-.968,2.353Z" transform="translate(79.479 26.004)" fill="#fff"/>
      <path id="パス_21118" data-name="パス 21118" d="M67.932,49.35c-4.107,0-8.261-2.261-8.261-6.783a4.433,4.433,0,0,1,4.706-4.614c2.218,0,3.925,1.244,3.925,3.554,0,.784-.187,1.567-.187,2.351,0,.51.187.924.737.924,1.477,0,2.218-2.215,2.169-3.37C70.93,38,66.595,25.953,64.838,25.953c-.691,0-1.657,1.572-2.673,1.572a2.558,2.558,0,0,1-2.125-2.632c.279-2.952,8.03-8.122,10.706-8.122,2.586,0,3.459,2.217,4.338,4.248,1.244,2.952,3.416,11.072,4.571,11.349,1.244.279,1.8-4.476,1.8-5.4,0-3.231-2.123-4.061-2.123-6.414A3.7,3.7,0,0,1,83.3,17.05c3.646,0,4.153,3.226,4.153,6.135.182,9.968-7.613,26.164-19.52,26.164" transform="translate(93.123 26.173)" fill="#fff"/>
    </g>
  </g>
</svg>
