<svg xmlns="http://www.w3.org/2000/svg" width="46.211" height="44.998" viewBox="0 0 46.211 44.998">
  <g id="line-logo-svgrepo-com" transform="translate(0 -3.893)">
    <path id="パス_22383" data-name="パス 22383" d="M46.1,21.262h0l-.014-.118v-.011l-.054-.445L46,20.38l-.011-.093-.023,0a17.551,17.551,0,0,0-4.51-8.846,22.994,22.994,0,0,0-8.968-5.9,27.215,27.215,0,0,0-9.4-1.648A26.389,26.389,0,0,0,10.731,6.884C3.629,10.657-.559,17.592.06,24.552a18.233,18.233,0,0,0,4.081,9.915,22.009,22.009,0,0,0,8.65,6.336,32.887,32.887,0,0,0,6.435,1.732l.26.051c.611.121.775.287.818.353a.765.765,0,0,1,.006.5c-.029.122-.059.244-.089.367a7.306,7.306,0,0,0-.291,3.084,2.151,2.151,0,0,0,2.182,2h0a8.085,8.085,0,0,0,3.62-1.4l.126-.074c2.25-1.321,4.369-2.812,5.964-3.962,3.49-2.518,7.447-5.373,10.412-9.065A17.908,17.908,0,0,0,46.1,21.262ZM14.391,28.308H10.4a1.091,1.091,0,0,1-1.091-1.091V18.849a1.091,1.091,0,0,1,2.182,0v7.277h2.9a1.091,1.091,0,0,1,0,2.182Zm4.159-1.12a1.091,1.091,0,0,1-2.182,0V18.82a1.091,1.091,0,0,1,2.182,0Zm9.861,0a1.091,1.091,0,0,1-1.974.641l-3.928-5.41v4.769a1.091,1.091,0,0,1-2.182,0V19.059a1.091,1.091,0,0,1,1.974-.641l3.928,5.41V18.82a1.091,1.091,0,1,1,2.182,0Zm7.949.919h-5.4a1.091,1.091,0,0,1-1.091-1.091V18.648a1.091,1.091,0,0,1,1.091-1.091h5.232a1.091,1.091,0,0,1,0,2.182H32.051v2h3.36a1.091,1.091,0,0,1,0,2.182h-3.36v2h4.308a1.091,1.091,0,0,1,0,2.182Z" transform="translate(0)" fill="#fff"/>
  </g>
</svg>
