<svg xmlns="http://www.w3.org/2000/svg" id="logo" xmlns:xlink="http://www.w3.org/1999/xlink" viewBox="0 0 126.695 52.988">
  <defs>
    <clipPath id="clip-path">
      <rect id="長方形_6" class="fill" data-name="長方形 6"/>
    </clipPath>
  </defs>
  <g id="グループ_7" data-name="グループ 7" clip-path="url(#clip-path)">
    <path class="fill" id="パス_1" data-name="パス 1" d="M5.342,23.021c-.456,0-.94.031-1.392.065-.487.031-.941.065-1.426.065C1.133,23.151,0,22.826,0,21.239c0-2.233,2.007-.972,2.589-2.815A71.428,71.428,0,0,0,4.435,5.6c0-2.621-2.17-1.164-2.17-3.106C2.265.39,4.241.326,5.86.326c2.979,0,6.378-.1,9.551-.162C18.969.1,25.476.681,25.476,9.941c0,3.563-1.261,13.081-12.818,13.081Zm5.925-5.8C11.3,18.295,11.233,19.1,12.4,19.1c3.951,0,4.729-5.99,4.729-9.906,0-2.526-.392-5.311-3.176-5.311-1.973,0-1.68,1.815-1.843,3.011Z" transform="translate(0.001 0.127)" />
    <path class="fill" id="パス_2" data-name="パス 2" d="M13.628,14.315A10.682,10.682,0,0,1,24.637,3.568c4.046,0,7.382,2.168,7.382,6.408A10.683,10.683,0,0,1,21.012,20.727c-4.048,0-7.384-2.168-7.384-6.412m8.031-4.24a31.1,31.1,0,0,0-.647,5.729c0,.746.194,1.491,1.035,1.491,1.36,0,1.619-1.942,1.815-2.916a35.768,35.768,0,0,0,.776-5.794c0-.744-.163-1.586-1.069-1.586-1.358,0-1.683,2.071-1.91,3.076" transform="translate(10.856 2.842)" />
    <path class="fill" id="パス_3" data-name="パス 3" d="M42.238,12.917a7.83,7.83,0,0,0-.192,1.488c0,.713.356.972,1,.972.744.032,1.132,0,1.132.873,0,2.494-5.406,4.209-7.38,4.209-2.073,0-1.1-2.88-2.235-2.88-.711,0-3.464,3.011-6.831,2.88-1.813-.065-2.817-1.229-2.882-3.334-.065-1.813.679-4.468.94-6.7.1-.841.323-1.586-.744-1.716-.649-.065-1.36-.163-1.36-1,0-1.3,1.813-2.237,2.785-2.688a12.777,12.777,0,0,1,5.212-1.329c1.231,0,1.651.65,1.651,1.847a55.016,55.016,0,0,1-.94,6.022c-.065.42-.875,3.625.519,3.625,1.035,0,1.78-1.3,2.136-2.073,1.326-3.042.711-7.12,2.168-8.318.907-.81,3.205-1.134,4.4-1.134,1,0,1.877.291,1.877,1.391,0,.42-.129,1.2-.162,1.619Z" transform="translate(18.87 2.914)" />
    <path class="fill" id="パス_4" data-name="パス 4" d="M44.146,4.826c-.1,1.1-.323,2.265-.323,3.4,0,.261.1.584.388.584.614,0,2.009-2.429,4.632-2.429,3.236,0,4.5,2.948,4.337,5.731-.388,6.41-4.4,11.46-11.687,11.46-2.655,0-5.959-.972-5.959-4.177a39.95,39.95,0,0,1,.746-5.438,54.939,54.939,0,0,0,.81-7.964c0-.907,0-1.229-.97-1.294s-1.362-.131-1.362-1.265c0-1.391,1.263-1.845,2.4-2.233a22.515,22.515,0,0,1,5.6-1.2c1.976,0,1.75.94,1.619,2.754ZM42.527,19.036c.065.455.129,1.1.711,1.1,2.009,0,2.689-6.311,2.655-6.863-.032-.582-.065-1.815-.905-1.815-1.845,0-2.558,7.026-2.461,7.576" transform="translate(27.686 0)" />
    <path class="fill" id="パス_5" data-name="パス 5" d="M53.25,17.224c0,.39.032,1.134.55,1.134.323,0,.647-.1.972-.1.55,0,.711.55.711,1,0,2.686-5.276,4.111-7.38,4.111-1.75,0-2.819-.808-2.623-3.14.453-5.244,1.455-11.2,1.877-14.99.065-.517-.065-.776-.614-.776-.26,0-.519.065-.778.065-.647,0-1-.293-1-.94,0-1.617,1.488-2.136,2.785-2.557A19.208,19.208,0,0,1,53.12,0c1.134,0,1.845.291,1.845,1.554Z" transform="translate(35.815 0)" />
    <path class="fill" id="パス_6" data-name="パス 6" d="M68.013,7.42c0,3.916-4.371,6.96-8.029,6.96-.453,0-1.263,0-1.263.681,0,.94,1.168,1.457,1.976,1.457,2.332,0,4.111-1.845,5.147-1.845a1.428,1.428,0,0,1,1.3,1.358c0,1.716-2.168,2.785-3.5,3.4a13.281,13.281,0,0,1-5.6,1.3c-3.951,0-7.382-1.716-7.219-6.054.291-6.735,6.572-11.1,12.463-11.1,2.558,0,4.727,1,4.727,3.852m-9.356,3.4c0,.39.129.907.582.907.907,0,2.494-2.4,2.4-3.949-.031-.422-.226-1-.744-1-1.328,0-2.235,3.011-2.235,4.046" transform="translate(40.479 2.842)" />
    <path class="fill" id="パス_7" data-name="パス 7" d="M19.871,13.537a15.867,15.867,0,0,0,2.72-.192c.55-.1.808-.2.938-.2,1.942,0,3.076,3.27,3.076,4.824,0,1.425-.616,2.688-2.2,2.688-2.459,0-1.261-3.4-4.6-3.4-2.914,0-3.011.39-3.173,1.588a29.885,29.885,0,0,0-.519,3.722c0,.422.325.388.681.388,2.168,0,.808-2.946,3.205-2.946,1.651,0,2.007,2.2,2.007,3.464,0,1.815-.259,6.606-2.882,6.606-2.395,0-.582-3.4-2.395-3.4-.616,0-1.231-.1-1.231,4.858,0,2.039,2.235.972,2.235,2.621,0,2.461-4.858,2.332-6.509,2.332-5.016,0-6.7-.455-6.7-2.3,0-1.813,1.716-.873,2.362-2.459C7.795,29.465,8.9,21.5,8.9,18.975c0-2.815-2.168-1.164-2.168-3.431,0-1.779,1.91-2.134,3.334-2.134,2.621,0,3.755.128,4.919.128Z" transform="translate(3.604 10.474)" />
    <path class="fill" id="パス_8" data-name="パス 8" d="M32.861,18c-.128,1.942-.71,4.856-.97,8.352a6.375,6.375,0,0,0,.032,2.073c.129.388.356.356.711.388.487.065.81.291.81.81,0,2.1-4.727,3.981-6.507,3.981-2.882,0-1.489-2.752-2.526-2.752-.843,0-2.427,2.914-5.762,2.914-2.979,0-4.209-2.623-4.08-5.246.259-5.826,3.886-11.264,8.871-11.719,2.265-.226,3.173,1.328,4.111,1.328a3.444,3.444,0,0,0,1.231-.517,6.051,6.051,0,0,1,2.752-.843c.907,0,1.391.325,1.326,1.231m-6.57,3.431c0-.42-.129-1.069-.649-1.035-1.716.129-3.884,4.953-3.852,7.025,0,.485.1,1.328.744,1.263,1.716-.129,3.819-5.634,3.757-7.253" transform="translate(11.599 13.359)" />
    <path class="fill" id="パス_9" data-name="パス 9" d="M39.537,27.819c.843,0,1.263,1.069,1.263,1.78,0,1.166-1.455,2.073-2.362,2.556a12.388,12.388,0,0,1-6.25,1.685c-3.981,0-7.057-1.782-7.057-6.121,0-5.99,5.406-11.038,11.3-11.038,2.621,0,5.341,1.294,5.438,4.3A3.986,3.986,0,0,1,38.08,24.97c-1.067,0-2.4-.711-2.4-1.942,0-.875.552-1.619.552-2.17a.58.58,0,0,0-.582-.582c-2.007-.032-2.591,5.244-2.591,6.7,0,1.035.226,2.655,1.619,2.655A6.616,6.616,0,0,0,37.95,28.5a3.311,3.311,0,0,1,1.586-.679" transform="translate(20.018 13.288)" />
    <path class="fill" id="パス_10" data-name="パス 10" d="M43.015,28.27c-.323,1.425.1,2.3.907,2.3.776,0,1.36-.616,1.845-.616.679,0,.875.616.875,1.166,0,2.526-6.151,4.6-8.031,4.6-1.942,0-3.237-.941-3.237-3.013A19.241,19.241,0,0,1,35.7,29.63l.97-5.7c.226-1.263.129-1.425-1.166-1.425-.776,0-1.2-.226-1.2-1.1a2.047,2.047,0,0,1,2.041-2.3c1.035-.129,1.134-.453,1.586-1.942a3.418,3.418,0,0,1,1.522-2.332,10.11,10.11,0,0,1,4.048-.711c.808,0,1.229.356,1.229,1.2-.065.647-.291,2.494-.291,3.011,0,.972,1.069.647,2.041.647.419,0,.808.1.808.584a9.675,9.675,0,0,1-.162,1.392c-.1.711-.1,1.391-.972,1.391-2.233,0-2.233-.1-2.72,2.722Z" transform="translate(27.326 11.249)" />
    <path class="fill" id="パス_11" data-name="パス 11" d="M40.94,27.429A10.682,10.682,0,0,1,51.949,16.682c4.046,0,7.382,2.168,7.382,6.408A10.683,10.683,0,0,1,48.324,33.841c-4.048,0-7.384-2.168-7.384-6.412m8.031-4.24a31.1,31.1,0,0,0-.647,5.729c0,.746.194,1.491,1.035,1.491,1.36,0,1.619-1.942,1.815-2.916a35.769,35.769,0,0,0,.776-5.794c0-.744-.163-1.586-1.069-1.586-1.358,0-1.683,2.071-1.91,3.076" transform="translate(32.611 13.288)" />
    <path class="fill" id="パス_12" data-name="パス 12" d="M60.123,29.128c.192,3.14-1.166,4.371-5.6,4.565-1.2.065-2.494-.26-2.494-1.716,0-1.944,1.3-5.99,1.36-9,.034-.875-.065-1.134-.938-1.134-1,0-1.522-.259-1.522-1.425,0-1.748,2.623-2.265,3.852-2.88a6.725,6.725,0,0,1,2.979-.843c1.974,0,1.1,3.076,2.136,3.076.94,0,.843-3.108,3.854-3.108a3.655,3.655,0,0,1,3.528,3.852c0,1.976-.972,3.886-3.173,3.886a2.183,2.183,0,0,1-2.168-1.392c-.1-.2-.39-.778-.649-.778-.453,0-.647,1.36-.679,1.651Z" transform="translate(40.567 13.273)" />
    <path class="fill" id="パス_13" data-name="パス 13" d="M65.467,39.629c-2.882,0-5.8-1.586-5.8-4.759a3.11,3.11,0,0,1,3.3-3.237,2.47,2.47,0,0,1,2.754,2.494c0,.55-.131,1.1-.131,1.649,0,.358.131.649.517.649,1.037,0,1.556-1.554,1.522-2.364-.065-2.4-3.106-10.846-4.339-10.846-.485,0-1.162,1.1-1.876,1.1A1.794,1.794,0,0,1,59.93,22.47c.2-2.071,5.634-5.7,7.511-5.7,1.815,0,2.427,1.556,3.043,2.98.873,2.071,2.4,7.768,3.207,7.962.873.2,1.261-3.14,1.261-3.787,0-2.267-1.489-2.849-1.489-4.5a2.6,2.6,0,0,1,2.785-2.459c2.558,0,2.914,2.264,2.914,4.3.128,6.994-5.341,18.357-13.7,18.357" transform="translate(47.531 13.359)" />
  </g>
</svg>
