<svg id="グループ_4986" data-name="グループ 4986" xmlns="http://www.w3.org/2000/svg" xmlns:xlink="http://www.w3.org/1999/xlink" width="1163.446" height="723.754" viewBox="0 0 1163.446 723.754">
  <defs>
    <clipPath id="clip-path">
      <rect id="長方形_890" data-name="長方形 890" width="1163.446" height="723.754" fill="none"/>
    </clipPath>
  </defs>
  <g id="グループ_4984" data-name="グループ 4984" clip-path="url(#clip-path)">
    <path id="パス_22390" data-name="パス 22390" d="M0,282.558c4,16.685,12.63,41,33.413,51.638,34.12,17.472,76.445-14.468,85.05-3.038,10.771,14.307-59.5,59.122-63.788,130.613-.252,4.225-2.861,59.465,30.375,82.013,24.649,16.721,69.128,15.537,100.238,3.037,13.2-5.3,33.236-15.437,54.675-9.112,6.509,1.92,4.286,3.211,12.15,6.075,19.932,7.257,30.585-2.366,57.713,0,12.393,1.081,18.59,1.622,24.3,6.075,12.241,9.544,8.848,25.078,15.188,45.563,1.974,6.382,10.716,34.637,30.375,45.563,28.076,15.6,66.257-10.914,121.5-12.15,5.474-.121,16.436-.115,27.338,6.075,13.095,7.436,18.419,19.434,21.263,24.3,15.907,27.228,65.859,22.429,121.5,30.375,73.9,10.552,65.48,29.637,124.538,33.413,21.366,1.367,72.5,3.988,127.576-24.3,46.425-23.848,71.357-57.181,85.05-75.938,20.051-27.465,34.093-46.7,30.375-69.863-2.876-17.912-14.376-25.74-15.187-51.638-.234-7.506-.486-20.005,6.075-33.413,7.114-14.544,18.416-22.338,30.375-30.375,11.84-7.958,14.607-7.375,36.45-18.225,25.91-12.87,39.062-19.525,48.6-30.375,5.692-6.473,19.461-22.134,18.225-39.488-2.46-34.5-63.059-59.08-106.313-66.825-45.484-8.144-87.869-.556-88.088-3.037-.158-1.792,22.335-1.145,45.563-15.188,7.852-4.748,24.628-15.215,33.413-36.45,3.332-8.052,12.32-28.847,3.038-45.563-11.214-20.193-44.272-25.937-63.788-24.3-4.389.368-11.418,1.388-21.263,0-7.275-1.027-20.9-2.946-27.338-12.15-5.161-7.372-3.5-16.248-3.037-21.263,2.43-26.265-17.445-60.99-39.488-72.9-31.125-16.816-87.344.638-106.313,9.113-2.968,1.327-9.918,4.617-18.225,3.038-12.123-2.309-16.649-14.407-27.338-27.338A135.683,135.683,0,0,0,710.778,9.182c-36.973-21.448-99.1-2.011-136.688,24.3C557.781,44.9,549.31,55.359,528.527,60.82c-15.9,4.177-27.669,2.457-51.638,0-40.845-4.186-61.27-6.282-75.938-6.075-19.592.273-61.215,1.376-100.238,27.338-20.376,13.556-19.6,33.373-42.525,42.525-10.1,4.034-19.759,4.781-36.45,6.075a308.024,308.024,0,0,1-45.563,0c-44.5-2.19-85.075,26.581-103.275,39.488-19.771,14.018-48.567,34.436-63.788,72.9A137.1,137.1,0,0,0,0,282.558" transform="translate(0 0)" fill="#fff"/>
  </g>
</svg>
