<svg id="グループ_4975" data-name="グループ 4975" xmlns="http://www.w3.org/2000/svg" xmlns:xlink="http://www.w3.org/1999/xlink" width="930.443" height="621.486" viewBox="0 0 930.443 621.486">
  <defs>
    <clipPath id="clip-path">
      <rect id="長方形_886" data-name="長方形 886" width="930.443" height="621.486" fill="none"/>
    </clipPath>
  </defs>
  <g id="グループ_4974" data-name="グループ 4974" clip-path="url(#clip-path)">
    <path id="パス_22387" data-name="パス 22387" d="M671.751,611.035c3.221.269,56.149,4.005,84.764-27.548,28.849-31.812,1.282-64.537,27.548-93.24,22.49-24.575,47.715-7.446,97.478-36.024,16.15-9.275,46.281-26.58,48.739-52.977,2.437-26.171-23.149-52.39-40.263-69.93-21.687-22.225-37.58-28.461-36.024-40.263,1.549-11.759,18.061-11.117,36.024-31.786,5.917-6.807,21.742-25.016,19.072-46.62-2.782-22.509-24.073-35.95-27.548-38.144-31.4-19.826-58.415.322-74.168-16.953-13.015-14.272,2.621-31.093-10.6-61.454-1.068-2.454-11.581-25.823-33.657-38.368-31.026-17.631-53.965,7.023-94.257.888-43.482-6.62-44-38.57-83.994-53.64-61.441-23.155-87.785,41.86-182.242,44.5-82.664,2.31-120.608-45.859-182.242-16.953a128.724,128.724,0,0,0-43.479,32.269c-29.953,34.569-17.889,68.4-44.3,96.264-9.763,10.3-26.806,22.149-58.442,26.16C30.714,188.1-.093,218.8,0,248.671.087,276.561,27.076,295.047,30.019,297a154.935,154.935,0,0,0,38,15.777c14.486,3.846,25.433,4.467,25.563,7.239.2,4.215-25.088,3.9-49.021,21.263a89.014,89.014,0,0,0-14.834,13.594c-3.9,5.98-13.431,22.454-8.538,40.015,6.921,24.838,37.891,34.607,42.382,36.025,18.557,5.855,28.048.606,44.5,10.6,5.745,3.488,13.2,8.012,17.552,16.739,8.375,16.777-4.692,29.061-.6,48.953,3.842,18.671,19.913,30.013,25.429,33.906,21.4,15.1,47.393,14.052,80.525,12.714,31.668-1.278,37.379-6.2,48.739,0,18.442,10.061,13.439,28.5,31.786,46.62,20.6,20.341,50.915,20.8,66.5,21.03,36.476.547,43.884-12.9,86.071-25.268,53.083-15.56,123.8-13.094,173.765,6.357,11.411,4.442,19.813,7.3,33.905,8.476" transform="translate(0 0)" fill="#001650"/>
  </g>
</svg>
