<svg xmlns="http://www.w3.org/2000/svg" width="503.558" height="73.267" viewBox="0 0 503.558 73.267"><g transform="translate(-379 -3236)"><g transform="translate(-13.458)"><path d="M5.467-6.633H6.479c.726,0,1.474.011,2.123.011.176.011.231-.033.231-.187,0-.264-.011-.55-.022-.814,0-.132-.033-.187-.165-.187-.594.022-1.3.044-2.167.044H4.257c-.847,0-1.716-.011-2.244-.055,0,.341.011.693.044,1.023,0,.143.044.2.187.2.385-.022.858-.022,1.914-.022v1.738H3.465C2.442-4.884,1.573-4.895.9-4.95c.022.363.033.8.077,1.045.011.143.044.22.187.209.506-.022,1.32-.055,2.288-.055h.7v1.958A1.286,1.286,0,0,0,4.884-.451a4.458,4.458,0,0,0,1.9.3,17.177,17.177,0,0,0,2.046-.1c.165-.011.22-.044.22-.231,0-.341-.011-.671-.033-.869,0-.121-.033-.165-.132-.165a12.749,12.749,0,0,1-1.936.132,3.894,3.894,0,0,1-1.2-.121c-.2-.077-.3-.242-.3-.583V-3.751H7.513c.726,0,1.573.011,2.343.022.165.011.2-.011.209-.2a5.165,5.165,0,0,0,0-.825c-.011-.143-.033-.2-.132-.2-.7.033-1.595.055-2.42.055H5.467ZM17.71-3.4c.814,0,1.628.011,2.453.022.154.011.2-.033.2-.165a8.108,8.108,0,0,0,0-1.034c0-.132-.033-.165-.2-.154-.847.011-1.694.033-2.53.033H14.091a14.132,14.132,0,0,1-2.376-.132A11.939,11.939,0,0,0,11.88-3.5c.033.165.121.231.253.231A8.8,8.8,0,0,1,13.75-3.4Zm4.5-1.386a9.645,9.645,0,0,1,2.222,1.2.213.213,0,0,0,.132.066c.044,0,.088-.044.143-.11a4.479,4.479,0,0,0,.484-.836.326.326,0,0,0,.044-.121c0-.066-.044-.11-.121-.165A7.634,7.634,0,0,0,23-5.83c-.1-.022-.154.033-.209.11C22.66-5.544,22.484-5.225,22.209-4.785ZM23.54-7.37a10.638,10.638,0,0,1,2.134,1.353.283.283,0,0,0,.165.077.122.122,0,0,0,.11-.066,4.708,4.708,0,0,0,.561-.825.266.266,0,0,0,.044-.143.174.174,0,0,0-.088-.143A7.478,7.478,0,0,0,24.4-8.338c-.132-.066-.2-.044-.275.088C23.936-7.964,23.727-7.656,23.54-7.37ZM23.078-1.1A6.947,6.947,0,0,0,23.892.022a.283.283,0,0,0,.22.132.244.244,0,0,0,.176-.088,3.614,3.614,0,0,1,.638-.374,25.538,25.538,0,0,0,3.289-2.068,20.494,20.494,0,0,0,2.794-2.541.342.342,0,0,0,.121-.253.538.538,0,0,0-.055-.209,5.494,5.494,0,0,1-.319-1.232,20.017,20.017,0,0,1-3.168,3.069,18.426,18.426,0,0,1-3.014,1.9A5.086,5.086,0,0,1,23.078-1.1ZM38.687-3.465H36.333c-.715,0-1.122-.011-1.716-.055a6.267,6.267,0,0,0,.044.88c.011.176.055.242.187.242.473-.022,1.012-.044,1.507-.044h2.332V-1.21H36.124c-.638,0-1.177,0-1.771-.044a6.514,6.514,0,0,0,.055.913c.011.165.044.22.154.22.506-.033,1-.055,1.518-.055h2.607v.33c0,.132.022.165.2.165.22,0,.572-.011.748-.022s.242-.044.242-.209c-.022-.561-.044-1.067-.044-1.562V-4.015c0-.484.022-.946.022-1.441.011-.11-.033-.176-.165-.176-.484.022-1.089.022-1.628.022H36.146a17.118,17.118,0,0,1-1.76-.055c.022.418.033.627.055.9.011.176.066.264.165.253.5-.011,1.023-.066,1.54-.066h2.541Zm5.027-3.388A11.644,11.644,0,0,1,45.958-5.06c.055.055.1.088.143.088s.077-.033.132-.088c.154-.165.517-.605.682-.825a.237.237,0,0,0,.066-.143c0-.044-.033-.088-.1-.154a11.47,11.47,0,0,0-2.1-1.562.293.293,0,0,0-.143-.055.206.206,0,0,0-.154.088C44.275-7.491,43.956-7.15,43.714-6.853Zm.242,5.489a7.622,7.622,0,0,0,.88,1.221.285.285,0,0,0,.187.121.3.3,0,0,0,.2-.11,3.8,3.8,0,0,1,.737-.506A23.651,23.651,0,0,0,49.28-2.794a17.98,17.98,0,0,0,2.53-2.332c.121-.143.176-.231.176-.33a.538.538,0,0,0-.055-.209,4.91,4.91,0,0,1-.308-1.287A16.526,16.526,0,0,1,48.609-3.96a16.3,16.3,0,0,1-3.168,2.046A6.627,6.627,0,0,1,43.956-1.364Z" transform="translate(608.556 3296.475)" fill="#001650"/><g transform="translate(3.458)"><g transform="translate(615 3244)" fill="#868686"><path d="M 8 15.25 C 4.002339839935303 15.25 0.75 11.99765968322754 0.75 8 C 0.75 4.002339839935303 4.002339839935303 0.75 8 0.75 C 11.99765968322754 0.75 15.25 4.002339839935303 15.25 8 C 15.25 11.99765968322754 11.99765968322754 15.25 8 15.25 Z" stroke="none"/><path d="M 8 1.5 C 4.415889739990234 1.5 1.5 4.415889739990234 1.5 8 C 1.5 11.58411026000977 4.415889739990234 14.5 8 14.5 C 11.58411026000977 14.5 14.5 11.58411026000977 14.5 8 C 14.5 4.415889739990234 11.58411026000977 1.5 8 1.5 M 8 0 C 12.41827964782715 0 16 3.581720352172852 16 8 C 16 12.41827964782715 12.41827964782715 16 8 16 C 3.581720352172852 16 0 12.41827964782715 0 8 C 0 3.581720352172852 3.581720352172852 0 8 0 Z" stroke="none" fill="#001650"/></g><g transform="translate(632 3238)" fill="#fff" stroke="#001650" stroke-width="1.5"><circle cx="8" cy="8" r="8" stroke="none"/><circle cx="8" cy="8" r="7.25" fill="none"/></g><g transform="translate(629 3255)" stroke="#001650" stroke-width="1.5"><circle cx="8" cy="8" r="8" stroke="none"/><circle cx="8" cy="8" r="7.25" fill="none"/></g></g></g><g transform="translate(-16)"><path d="M3.861-1.419h.407c.946,0,1.276.022,1.342.022.11,0,.121-.011.121-.11v-.66c0-.11-.011-.121-.121-.121-.066,0-.4.022-1.342.022H3.861v-.473h.473c.924,0,1.243.022,1.32.022.11,0,.121-.011.121-.121,0-.066-.022-.33-.022-.913V-4.928c0-.594.022-.847.022-.9,0-.11-.011-.121-.121-.121-.077,0-.4.022-1.32.022H3.861v-.484H4.5c.979,0,1.342.022,1.408.022.1,0,.088-.011.088-.121v-.649c0-.11-.011-.121-.11-.121-.066,0-.407.022-1.386.022H3.861v-.616c.451-.055.891-.132,1.331-.22a3.224,3.224,0,0,1,.5-.077c.143,0,.231-.044.231-.11a.269.269,0,0,0-.088-.2,4.766,4.766,0,0,0-.627-.6A4,4,0,0,1,4.6-8.9,21.1,21.1,0,0,1,.7-8.481a2.212,2.212,0,0,1,.341.594c.088.253.1.264.407.242.473-.022.946-.066,1.419-.11v.495H2.057c-.99,0-1.331-.022-1.4-.022-.11,0-.121.011-.121.121v.649c0,.11.011.121.121.121.066,0,.407-.022,1.4-.022h.814v.484h-.44c-.935,0-1.254-.022-1.32-.022-.121,0-.132.011-.132.121,0,.055.022.308.022.9v1.177c0,.583-.022.836-.022.913,0,.11.011.121.132.121.066,0,.385-.022,1.32-.022h.44v.473H2.222c-.957,0-1.276-.022-1.342-.022-.11,0-.121.011-.121.121v.66c0,.1.011.11.121.11.066,0,.385-.022,1.342-.022h.649v.638c-.44.044-.858.066-1.243.088A10.04,10.04,0,0,1,.473-.682C.528-.352.594,0,.66.286.693.407.748.473.814.473A.426.426,0,0,0,1,.407,1.769,1.769,0,0,1,1.408.33C2.651.2,4.081-.011,5.247-.242a.86.86,0,0,0,.209-.044c-.11.121-.231.231-.352.341a2.04,2.04,0,0,1,.7.528c.1.1.154.154.209.154s.121-.055.231-.165A7,7,0,0,0,7.876-2.563,19.378,19.378,0,0,0,8.283-5.72h.924a31.261,31.261,0,0,1-.275,4.653c-.077.517-.264.693-.594.693a5.9,5.9,0,0,1-.913-.088,2.509,2.509,0,0,1,.22.737c.033.363.033.363.286.385.187.011.374.022.605.022a1.253,1.253,0,0,0,1.4-1.21,33.674,33.674,0,0,0,.319-5.038c0-.352,0-.671.022-1.045,0-.11-.022-.132-.132-.132-.066,0-.352.022-1.2.022H8.316c.011-.275.011-.55.011-.847A4.739,4.739,0,0,1,8.393-8.69a.844.844,0,0,0,.066-.264c0-.066-.055-.11-.165-.121-.385-.044-.7-.066-1.1-.077A10.885,10.885,0,0,1,7.271-7.6c0,.308-.011.594-.011.88-.682,0-.935-.022-.99-.022-.121,0-.132.011-.132.121v.8c0,.11.011.121.132.121.055,0,.3-.011.946-.022a15.1,15.1,0,0,1-.363,2.8A6.209,6.209,0,0,1,5.6-.451l.033-.2a4.551,4.551,0,0,1,.1-.506c-.649.11-1.276.2-1.87.264Zm.957-2.024H3.861v-.583h.957Zm0-1.793v.572H3.861v-.572ZM1.958-3.443v-.583h.913v.583Zm0-1.221v-.572h.913v.572ZM15.521-7.733v1.078h-.616c-.979,0-1.309-.022-1.386-.022-.11,0-.121.011-.121.132,0,.066.022.407.022,1.188v2.5c0,.77-.022,1.122-.022,1.188,0,.11.011.121.121.121.077,0,.407-.022,1.386-.022h2.31c.99,0,1.32.022,1.386.022.121,0,.132-.011.132-.121,0-.066-.022-.418-.022-1.188v-2.5c0-.781.022-1.122.022-1.188,0-.121-.011-.132-.132-.132-.066,0-.4.022-1.386.022h-.671V-7.733H19.36c1,0,1.331.022,1.4.022.11,0,.121-.011.121-.11v-.847c0-.121-.011-.132-.121-.132-.066,0-.4.022-1.4.022h-6.6c-.99,0-1.331-.022-1.4-.022-.11,0-.121.011-.121.132v.847c0,.1.011.11.121.11.066,0,.407-.022,1.4-.022ZM17.71-2.475H16.533V-3.74H17.71Zm-3.3,0V-3.74h1.122v1.265Zm3.3-3.278v1.166H16.533V-5.753Zm-3.3,1.166V-5.753h1.122v1.166ZM19.58-.759H12.562V-4.972a3.7,3.7,0,0,1,.077-1.144.479.479,0,0,0,.077-.231c0-.088-.077-.143-.209-.165-.352-.044-.671-.066-1.1-.088a12.682,12.682,0,0,1,.066,1.551v3.6c0,1.386-.022,2.09-.022,2.167,0,.11.011.121.121.121h.869c.11,0,.121-.011.121-.121V.275H19.58v.44c0,.11.011.121.121.121h.88c.11,0,.121-.011.121-.121,0-.066-.022-.792-.022-2.189V-4.983a3.336,3.336,0,0,1,.088-1.155.362.362,0,0,0,.066-.209c0-.1-.077-.143-.209-.165-.352-.044-.693-.066-1.111-.088a14.573,14.573,0,0,1,.066,1.606Zm11.9-2.024c0-.814.022-1.221.022-1.287,0-.11-.011-.121-.11-.121-.066,0-.4.022-1.32.022H28.05c-.748,0-1.111-.011-1.254-.022l.033-.594h2.86c.979,0,1.342.022,1.408.022.11,0,.121-.011.121-.121,0-.077-.022-.242-.022-.726v-.814c0-.484.022-.638.022-.7,0-.121-.011-.132-.121-.132-.066,0-.429.022-1.408.022H27.324c-.99,0-1.342-.022-1.4-.022-.121,0-.132.011-.132.132,0,.066.022.561.022,1.661a16.832,16.832,0,0,1-.231,3.025,8.108,8.108,0,0,1-.242.957,6.284,6.284,0,0,0-.264-1.507c-.022-.11-.044-.121-.176-.088l-.429.11c-.132.033-.165.044-.132.165a9.351,9.351,0,0,1,.231,1.474c.011.132.033.132.209.088l.407-.11a.244.244,0,0,0,.132-.066,7.212,7.212,0,0,1-.616,1.364,2.416,2.416,0,0,1,.572.407c.11.1.176.154.231.154s.11-.077.176-.22a11.044,11.044,0,0,0,.737-2.233c.077-.33.143-.814.2-1.265V-.429c0,.781-.022,1.1-.022,1.166,0,.11.011.121.132.121h.649c.11,0,.121-.011.121-.121,0-.066-.022-.418-.022-1.166v-.957h.528v.671c0,.726-.022,1.056-.022,1.133,0,.11.011.121.121.121h.572c.11,0,.121-.011.121-.121,0-.077-.022-.407-.022-1.133v-.671h.517v.671c0,.726-.022,1.056-.022,1.133,0,.11.011.121.121.121h.583c.11,0,.121-.011.121-.121,0-.077-.022-.407-.022-1.133v-.671H30.6v.935c0,.231-.055.319-.209.319-.088,0-.077,0-.264-.011a1.731,1.731,0,0,1,.176.583c.044.341.055.341.374.319a.99.99,0,0,0,.583-.176.828.828,0,0,0,.253-.693c0-.319-.033-.836-.033-1.353ZM30.151-6.391v.748h-3.3v-.748Zm-2.673,4.18V-3.322h.528v1.111ZM30.6-3.322v1.111h-.528V-3.322ZM28.776-2.211V-3.322h.517v1.111ZM24.354-5.423c-.165.055-.176.077-.121.2a6.093,6.093,0,0,1,.231.627c-.341.033-.693.055-1.067.066.517-.682,1.078-1.529,1.617-2.387.165-.264.22-.352.33-.418a.2.2,0,0,0,.132-.176c0-.066-.033-.1-.143-.154a5.023,5.023,0,0,0-.847-.407,4.661,4.661,0,0,1-.308.682c-.209.363-.429.748-.66,1.133-.154-.187-.308-.352-.462-.528a16.487,16.487,0,0,0,.891-1.529.68.68,0,0,1,.2-.264.169.169,0,0,0,.1-.143c0-.066-.033-.121-.143-.176-.275-.132-.561-.242-.858-.363a4.3,4.3,0,0,1-.22.627,9.43,9.43,0,0,1-.6,1.166c-.066-.066-.143-.132-.209-.209s-.088-.088-.176.011l-.44.539c-.1.121-.11.154-.022.22a14.858,14.858,0,0,1,1.364,1.54c-.2.3-.407.583-.627.869-.242,0-.495,0-.792-.011.044.341.088.616.154.924.022.121.077.187.132.187a.3.3,0,0,0,.176-.055.987.987,0,0,1,.418-.088l.693-.055V-.671C23.089.341,23.067.7,23.067.77c0,.11.011.121.121.121H24c.121,0,.132-.011.132-.121,0-.055-.022-.429-.022-1.441V-3.685c.2-.022.385-.044.594-.077.022.132.044.264.077.385.022.143.055.154.2.11l.528-.154c.132-.044.154-.066.121-.176a10.421,10.421,0,0,0-.6-1.914c-.044-.1-.066-.132-.2-.077ZM30-7.832c1.045,0,1.408.022,1.463.022.11,0,.121-.011.121-.121v-.748c0-.11-.011-.121-.121-.121-.055,0-.418.022-1.463.022H26.972c-1.045,0-1.408-.022-1.474-.022-.121,0-.132.011-.132.121v.748c0,.11.011.121.132.121.066,0,.429-.022,1.474-.022Zm-8.525,7.6a2.511,2.511,0,0,1,.517.286c.121.1.187.143.242.143s.1-.088.154-.264a8.9,8.9,0,0,0,.374-2.046,1.3,1.3,0,0,1,.055-.385.327.327,0,0,0,.055-.165c0-.055-.044-.1-.165-.132-.176-.044-.484-.1-.792-.143a6.757,6.757,0,0,1-.011.682A6.969,6.969,0,0,1,21.472-.231ZM35.816-1.749A9.846,9.846,0,0,1,32.164-.3a2.08,2.08,0,0,1,.4.671c.077.209.121.286.22.286a1.288,1.288,0,0,0,.264-.066A8.516,8.516,0,0,0,36.608-1.3C36.6-.088,36.564.528,36.564.759c0,.11.011.121.11.121h.946c.1,0,.11-.011.11-.121,0-.231-.044-.869-.044-2.09A9.115,9.115,0,0,0,41.327.616a1.057,1.057,0,0,0,.253.055c.1,0,.132-.077.22-.3a2.271,2.271,0,0,1,.429-.737,9.776,9.776,0,0,1-3.806-1.386h2.068c.99,0,1.331.022,1.4.022.11,0,.121-.011.121-.121v-.7c0-.1-.011-.11-.121-.11-.066,0-.407.022-1.4.022H37.708v-.066a1.465,1.465,0,0,1,.033-.484l.033-.066H39.9c1.078,0,1.452.022,1.518.022.11,0,.121-.011.121-.132v-.616c0-.11-.011-.121-.121-.121-.066,0-.44.022-1.518.022h-2v-.583h1.386c1.056,0,1.419.022,1.485.022.121,0,.132-.011.132-.121V-5.3c0-.11-.011-.121-.132-.121-.066,0-.429.022-1.485.022H37.9v-.55h1.386c1.056,0,1.419.022,1.485.022.121,0,.132-.011.132-.121V-6.6c0-.11-.011-.121-.132-.121-.066,0-.429.022-1.485.022H37.9v-.55h1.9c1.067,0,1.419.022,1.5.022.11,0,.121-.011.121-.132v-.649c0-.1-.011-.11-.121-.11-.077,0-.429.022-1.5.022H38.126c.066-.1.121-.209.187-.33a1.067,1.067,0,0,1,.209-.275.237.237,0,0,0,.11-.165A.166.166,0,0,0,38.5-9.02a10.675,10.675,0,0,0-1.045-.231,3.148,3.148,0,0,1-.176.572,4.879,4.879,0,0,1-.3.583H34.958l.187-.275a1.793,1.793,0,0,1,.3-.352.184.184,0,0,0,.1-.165c0-.066-.044-.121-.143-.154A8.845,8.845,0,0,0,34.364-9.3a3.046,3.046,0,0,1-.3.682,6.683,6.683,0,0,1-2.013,2.145,2.427,2.427,0,0,1,.451.638c.077.154.121.231.187.231s.121-.044.231-.143c.22-.2.44-.407.649-.616v1.749c0,.814-.022,1.177-.022,1.243,0,.121.011.132.121.132.066,0,.462-.022,1.54-.022h1.364c.011.187.011.385.011.561v.055H33.913c-.99,0-1.331-.022-1.4-.022-.11,0-.121.011-.121.11v.7c0,.11.011.121.121.121.066,0,.407-.022,1.4-.022ZM34.65-4.081v-.583h2.222v.583Zm0-2.618v-.55h2.222v.55Zm0,1.3v-.55h2.222v.55Z" transform="translate(502.527 3296.475)" fill="#001650"/><g transform="translate(114 1016.047)"><g transform="translate(391 2223.953)" fill="#fff" stroke="#001650" stroke-width="1.5"><rect width="38" height="25" stroke="none"/><rect x="0.75" y="0.75" width="36.5" height="23.5" fill="none"/></g><line x2="21" transform="translate(399 2251.338)" fill="none" stroke="#001650" stroke-width="1.5"/></g><g transform="translate(-7 1014.998)"><rect width="3" height="4" transform="translate(517 2235.002)" fill="#121212"/><rect width="4" height="6" transform="translate(522 2234.002)" fill="#121212"/><rect width="5" height="8" transform="translate(528 2233.002)" fill="#121212"/><rect width="4" height="6" transform="translate(535 2234.002)" fill="#121212"/><rect width="3" height="4" transform="translate(541 2235.002)" fill="#121212"/></g></g><g transform="translate(-5)"><path d="M-24.816-5.7a17.412,17.412,0,0,0,1.287-1.386,3.624,3.624,0,0,1,.66-.605.315.315,0,0,0,.154-.242A.2.2,0,0,0-22.8-8.1a9.786,9.786,0,0,0-1.221-.77,3.188,3.188,0,0,1-.693,1.133,17.847,17.847,0,0,1-2.343,2.3,17.658,17.658,0,0,1-3.465,2.255,4.117,4.117,0,0,1,.946.649.307.307,0,0,0,.231.11.31.31,0,0,0,.165-.044,19.03,19.03,0,0,0,3.025-2.112v2.563c0,.748-.033,1.463-.044,2.255-.011.132.033.176.154.176a9.175,9.175,0,0,0,1.1,0c.121,0,.176-.044.165-.187-.022-.88-.033-1.529-.033-2.288Zm5.28-1.155A11.644,11.644,0,0,1-17.292-5.06c.055.055.1.088.143.088s.077-.033.132-.088c.154-.165.517-.605.682-.825a.237.237,0,0,0,.066-.143c0-.044-.033-.088-.1-.154a11.47,11.47,0,0,0-2.1-1.562.293.293,0,0,0-.143-.055.206.206,0,0,0-.154.088C-18.975-7.491-19.294-7.15-19.536-6.853Zm.242,5.489a7.622,7.622,0,0,0,.88,1.221.285.285,0,0,0,.187.121.3.3,0,0,0,.2-.11,3.8,3.8,0,0,1,.737-.506A23.651,23.651,0,0,0-13.97-2.794a17.98,17.98,0,0,0,2.53-2.332c.121-.143.176-.231.176-.33a.538.538,0,0,0-.055-.209,4.91,4.91,0,0,1-.308-1.287A16.526,16.526,0,0,1-14.641-3.96a16.3,16.3,0,0,1-3.168,2.046A6.627,6.627,0,0,1-19.294-1.364ZM-4.818-7.271c.187-.286.253-.4.341-.55a.919.919,0,0,1,.231-.231.3.3,0,0,0,.132-.22.193.193,0,0,0-.121-.176,6.927,6.927,0,0,0-1.287-.539,4.058,4.058,0,0,1-.594,1.353A12.272,12.272,0,0,1-9.229-4.18a4.583,4.583,0,0,1,.924.506.252.252,0,0,0,.176.077.394.394,0,0,0,.22-.1A13.283,13.283,0,0,0-5.555-6.171l2.728-.055A10.6,10.6,0,0,1-4.114-4.048a11.029,11.029,0,0,0-1.419-.88.286.286,0,0,0-.11-.044.208.208,0,0,0-.143.077c-.253.231-.484.517-.726.781A9.2,9.2,0,0,1-4.928-3.08,13.339,13.339,0,0,1-8.976-.1,3.125,3.125,0,0,1-7.931.462a.33.33,0,0,0,.209.1.6.6,0,0,0,.275-.1,13.405,13.405,0,0,0,3.509-2.75A12.191,12.191,0,0,1-2.871-1.221a.191.191,0,0,0,.121.066.229.229,0,0,0,.132-.055A6.761,6.761,0,0,0-1.936-1.9a.213.213,0,0,0,.066-.143A.217.217,0,0,0-1.936-2.2,9.779,9.779,0,0,0-3.124-3.311,17.169,17.169,0,0,0-1.507-5.973a1.38,1.38,0,0,1,.33-.418A.282.282,0,0,0-1.056-6.6a.269.269,0,0,0-.088-.2,3.564,3.564,0,0,0-.748-.671.379.379,0,0,0-.2-.088.322.322,0,0,0-.187.077,1.076,1.076,0,0,1-.6.165Zm8.635.737a2.507,2.507,0,0,1,.11-.99A.48.48,0,0,0,4-7.755c0-.077-.044-.143-.176-.176a9.417,9.417,0,0,0-1.386-.22,11.425,11.425,0,0,1,.11,2.013v4.059c0,.9.231,1.419.781,1.65a5.417,5.417,0,0,0,2.09.3A22,22,0,0,0,8.69-.33c.165-.011.231-.055.231-.2,0-.231-.033-.649-.066-.957-.011-.132-.033-.176-.2-.154a19.409,19.409,0,0,1-3.1.253,5.636,5.636,0,0,1-1.386-.121c-.286-.088-.363-.264-.363-.781V-3.751A28.859,28.859,0,0,0,7.579-5.115a5.842,5.842,0,0,1,.913-.363c.132-.033.187-.11.187-.2a.319.319,0,0,0-.088-.2,6.311,6.311,0,0,0-.913-.99A3.414,3.414,0,0,1,6.5-6.072,20.663,20.663,0,0,1,3.817-5.005ZM7.832-7.777A5.458,5.458,0,0,1,8.943-6.5a.115.115,0,0,0,.187.033l.462-.341a.111.111,0,0,0,.033-.176A5.063,5.063,0,0,0,8.58-8.162c-.066-.055-.11-.066-.165-.022ZM8.844-8.5a5.2,5.2,0,0,1,1.1,1.265.113.113,0,0,0,.187.033l.44-.341a.127.127,0,0,0,.033-.2A4.594,4.594,0,0,0,9.559-8.877c-.066-.055-.1-.066-.165-.022Zm8.305,7.084.341-2.255a.873.873,0,0,1,.22-.55.285.285,0,0,0,.1-.2.285.285,0,0,0-.1-.2,3.793,3.793,0,0,0-.671-.605.348.348,0,0,0-.165-.066.2.2,0,0,0-.121.044,1.337,1.337,0,0,1-.649.1H14.586c-.462,0-.792-.022-1.529-.055.022.363.044.715.077.946.022.187.066.22.2.209.286-.011.781-.033,1.21-.033h1.771l-.374,2.673H13.387c-.55,0-.957,0-1.584-.044a5.627,5.627,0,0,0,.055.924c.022.165.066.22.187.22.539-.022.968-.022,1.419-.022h4.048c.506,0,1.034.011,1.529.011.165,0,.2-.011.209-.22s.011-.484,0-.693c-.011-.176-.055-.209-.242-.2-.418,0-.9.011-1.342.011ZM27.72-3.4c.814,0,1.628.011,2.453.022.154.011.2-.033.2-.165a8.107,8.107,0,0,0,0-1.034c0-.132-.033-.165-.2-.154-.847.011-1.694.033-2.53.033H24.1a14.132,14.132,0,0,1-2.376-.132A11.938,11.938,0,0,0,21.89-3.5c.033.165.121.231.253.231A8.8,8.8,0,0,1,23.76-3.4ZM-11.622,3.486v8.536h1.485V8.436H-8.7c2.046,0,3.135-.935,3.135-2.508s-.946-2.442-3.047-2.442ZM-10.136,4.6h1.452c1.133,0,1.628.495,1.628,1.342,0,.869-.55,1.386-1.683,1.386h-1.4ZM1.832,3.486H.369L-.753,7.545c-.308,1.1-.55,2.09-.792,3.113H-1.7c-.264-1.045-.484-2.046-.8-3.157L-3.613,3.486h-1.6l2.585,8.536H-.775ZM8.64,10.229V11.3c0,.33-.121.44-.44.44a7.042,7.042,0,0,1-1.067-.044,2.459,2.459,0,0,1,.363.77c.077.33.077.33.418.33a2.468,2.468,0,0,0,1.474-.275,1.033,1.033,0,0,0,.363-.957c0-.363-.011-.781-.011-1.166v-.165h.451c1.034,0,1.386.022,1.452.022.11,0,.121-.011.121-.121V9.4c0-.121-.011-.132-.121-.132-.066,0-.418.022-1.452.022H9.74V8.546H10.5c.99,0,1.331.022,1.4.022.1,0,.11-.011.11-.121V7.7c0-.11-.011-.121-.11-.121-.066,0-.407.022-1.4.022H7.584V6.863h1.7c1.089,0,1.463.022,1.529.022.1,0,.11-.011.11-.121V6.038c0-.11-.011-.121-.11-.121-.066,0-.44.022-1.529.022h-1.7a.947.947,0,0,1,.055-.33.408.408,0,0,0,.044-.165c0-.033-.033-.066-.077-.088A.993.993,0,0,0,7.76,5.2a5.787,5.787,0,0,0,.528-.693h.7a4.682,4.682,0,0,1,.4.9c.033.121.055.132.22.1l.759-.143c.143-.022.165-.055.121-.154a4.9,4.9,0,0,0-.407-.7h.341c1.034,0,1.4.022,1.463.022.11,0,.121-.011.121-.121V3.75c0-.121-.011-.132-.121-.132-.066,0-.429.022-1.463.022H8.74a1.469,1.469,0,0,1,.077-.2.835.835,0,0,1,.165-.253.248.248,0,0,0,.088-.176c0-.044-.033-.1-.154-.121-.264-.055-.682-.11-1.023-.143a2.42,2.42,0,0,1-.176.561,3.842,3.842,0,0,1-.7,1.166V3.75c0-.121-.011-.132-.132-.132-.066,0-.363.022-1.265.022H4.5a1.11,1.11,0,0,1,.077-.165.537.537,0,0,1,.176-.264.242.242,0,0,0,.1-.176c0-.055-.044-.11-.154-.132-.308-.066-.693-.121-1-.154a2.218,2.218,0,0,1-.2.528,5.249,5.249,0,0,1-1.463,1.8,2.482,2.482,0,0,1,.506.55c.1.154.154.22.22.22S2.9,5.8,3.008,5.7A6.608,6.608,0,0,0,4.021,4.509h.6a5.058,5.058,0,0,1,.363.891c.033.121.055.132.22.1l.77-.143c.143-.022.154-.055.11-.154A5.307,5.307,0,0,0,5.7,4.509c.825,0,1.111.022,1.177.022h.077a4.065,4.065,0,0,1-.308.308,2.745,2.745,0,0,1,.6.385l.077.077c-.253-.033-.572-.055-.891-.066a4.058,4.058,0,0,1,.055.7H5.021c-1.078,0-1.463-.022-1.529-.022-.11,0-.121.011-.121.121v.726c0,.11.011.121.121.121.066,0,.451-.022,1.529-.022H6.5V7.6H3.8c-.99,0-1.32-.022-1.386-.022-.121,0-.132.011-.132.121v.748c0,.11.011.121.132.121.066,0,.4-.022,1.386-.022H8.64v.748H4.119c-1.023,0-1.375-.022-1.441-.022-.11,0-.121.011-.121.132v.726c0,.11.011.121.121.121.066,0,.418-.022,1.441-.022Zm-4.378.495c-.132.088-.143.11-.055.187A7.43,7.43,0,0,1,5.4,12.264c.055.1.066.088.22-.011l.715-.473c.121-.088.121-.11.044-.2a6.753,6.753,0,0,0-1.232-1.265c-.044-.033-.066-.055-.1-.055s-.066.022-.132.066Z" transform="translate(748.525 3296.475)" fill="#001650"/><g transform="translate(-12.75 -43.359)"><line y1="9" transform="translate(761.5 3303.336)" fill="none" stroke="#001650" stroke-width="1.5"/><g transform="translate(751.75 3279.359)" fill="#fff" stroke="#001650" stroke-width="1.5"><rect width="19.5" height="27.477" rx="3" stroke="none"/><rect x="0.75" y="0.75" width="18" height="25.977" rx="2.25" fill="none"/></g><line x2="10" transform="translate(756.5 3312.336)" fill="none" stroke="#001650" stroke-width="1.5"/><line x2="18" transform="translate(752.5 3284.5)" fill="none" stroke="#001650" stroke-width="1.5"/></g></g><path d="M3.861-1.419h.407c.946,0,1.276.022,1.342.022.11,0,.121-.011.121-.11v-.66c0-.11-.011-.121-.121-.121-.066,0-.4.022-1.342.022H3.861v-.473h.473c.924,0,1.243.022,1.32.022.11,0,.121-.011.121-.121,0-.066-.022-.33-.022-.913V-4.928c0-.594.022-.847.022-.9,0-.11-.011-.121-.121-.121-.077,0-.4.022-1.32.022H3.861v-.484H4.5c.979,0,1.342.022,1.408.022.1,0,.088-.011.088-.121v-.649c0-.11-.011-.121-.11-.121-.066,0-.407.022-1.386.022H3.861v-.616c.451-.055.891-.132,1.331-.22a3.224,3.224,0,0,1,.5-.077c.143,0,.231-.044.231-.11a.269.269,0,0,0-.088-.2,4.766,4.766,0,0,0-.627-.6A4,4,0,0,1,4.6-8.9,21.1,21.1,0,0,1,.7-8.481a2.212,2.212,0,0,1,.341.594c.088.253.1.264.407.242.473-.022.946-.066,1.419-.11v.495H2.057c-.99,0-1.331-.022-1.4-.022-.11,0-.121.011-.121.121v.649c0,.11.011.121.121.121.066,0,.407-.022,1.4-.022h.814v.484h-.44c-.935,0-1.254-.022-1.32-.022-.121,0-.132.011-.132.121,0,.055.022.308.022.9v1.177c0,.583-.022.836-.022.913,0,.11.011.121.132.121.066,0,.385-.022,1.32-.022h.44v.473H2.222c-.957,0-1.276-.022-1.342-.022-.11,0-.121.011-.121.121v.66c0,.1.011.11.121.11.066,0,.385-.022,1.342-.022h.649v.638c-.44.044-.858.066-1.243.088A10.04,10.04,0,0,1,.473-.682C.528-.352.594,0,.66.286.693.407.748.473.814.473A.426.426,0,0,0,1,.407,1.769,1.769,0,0,1,1.408.33C2.651.2,4.081-.011,5.247-.242a.86.86,0,0,0,.209-.044c-.11.121-.231.231-.352.341a2.04,2.04,0,0,1,.7.528c.1.1.154.154.209.154s.121-.055.231-.165A7,7,0,0,0,7.876-2.563,19.378,19.378,0,0,0,8.283-5.72h.924a31.261,31.261,0,0,1-.275,4.653c-.077.517-.264.693-.594.693a5.9,5.9,0,0,1-.913-.088,2.509,2.509,0,0,1,.22.737c.033.363.033.363.286.385.187.011.374.022.605.022a1.253,1.253,0,0,0,1.4-1.21,33.674,33.674,0,0,0,.319-5.038c0-.352,0-.671.022-1.045,0-.11-.022-.132-.132-.132-.066,0-.352.022-1.2.022H8.316c.011-.275.011-.55.011-.847A4.739,4.739,0,0,1,8.393-8.69a.844.844,0,0,0,.066-.264c0-.066-.055-.11-.165-.121-.385-.044-.7-.066-1.1-.077A10.885,10.885,0,0,1,7.271-7.6c0,.308-.011.594-.011.88-.682,0-.935-.022-.99-.022-.121,0-.132.011-.132.121v.8c0,.11.011.121.132.121.055,0,.3-.011.946-.022a15.1,15.1,0,0,1-.363,2.8A6.209,6.209,0,0,1,5.6-.451l.033-.2a4.551,4.551,0,0,1,.1-.506c-.649.11-1.276.2-1.87.264Zm.957-2.024H3.861v-.583h.957Zm0-1.793v.572H3.861v-.572ZM1.958-3.443v-.583h.913v.583Zm0-1.221v-.572h.913v.572ZM15.521-7.733v1.078h-.616c-.979,0-1.309-.022-1.386-.022-.11,0-.121.011-.121.132,0,.066.022.407.022,1.188v2.5c0,.77-.022,1.122-.022,1.188,0,.11.011.121.121.121.077,0,.407-.022,1.386-.022h2.31c.99,0,1.32.022,1.386.022.121,0,.132-.011.132-.121,0-.066-.022-.418-.022-1.188v-2.5c0-.781.022-1.122.022-1.188,0-.121-.011-.132-.132-.132-.066,0-.4.022-1.386.022h-.671V-7.733H19.36c1,0,1.331.022,1.4.022.11,0,.121-.011.121-.11v-.847c0-.121-.011-.132-.121-.132-.066,0-.4.022-1.4.022h-6.6c-.99,0-1.331-.022-1.4-.022-.11,0-.121.011-.121.132v.847c0,.1.011.11.121.11.066,0,.407-.022,1.4-.022ZM17.71-2.475H16.533V-3.74H17.71Zm-3.3,0V-3.74h1.122v1.265Zm3.3-3.278v1.166H16.533V-5.753Zm-3.3,1.166V-5.753h1.122v1.166ZM19.58-.759H12.562V-4.972a3.7,3.7,0,0,1,.077-1.144.479.479,0,0,0,.077-.231c0-.088-.077-.143-.209-.165-.352-.044-.671-.066-1.1-.088a12.682,12.682,0,0,1,.066,1.551v3.6c0,1.386-.022,2.09-.022,2.167,0,.11.011.121.121.121h.869c.11,0,.121-.011.121-.121V.275H19.58v.44c0,.11.011.121.121.121h.88c.11,0,.121-.011.121-.121,0-.066-.022-.792-.022-2.189V-4.983a3.336,3.336,0,0,1,.088-1.155.362.362,0,0,0,.066-.209c0-.1-.077-.143-.209-.165-.352-.044-.693-.066-1.111-.088a14.573,14.573,0,0,1,.066,1.606Zm4.235-6.028H29.8c1.045,0,1.408.022,1.474.022.1,0,.11-.011.11-.132v-.836c0-.11-.011-.121-.11-.121-.066,0-.429.022-1.474.022H27.566v-.506a1.044,1.044,0,0,1,.077-.473.389.389,0,0,0,.066-.209c0-.066-.066-.1-.176-.11-.385-.033-.748-.055-1.166-.066a4.39,4.39,0,0,1,.066.891v.473H24.244c-1.045,0-1.43-.022-1.5-.022-.11,0-.121.011-.121.121,0,.066.022.693.022,2.068A16.789,16.789,0,0,1,22.4-2.376a6.1,6.1,0,0,1-.9,2.3,3.826,3.826,0,0,1,.737.616c.11.121.165.176.22.176s.1-.066.176-.209a7.465,7.465,0,0,0,.88-2.431,18.35,18.35,0,0,0,.308-3.531ZM28.2-3.333c-.132.066-.143.11-.088.2a18.571,18.571,0,0,1,1.078,1.771c-.979.176-2.079.319-3.157.44a34.625,34.625,0,0,0,1.309-3.905,1.469,1.469,0,0,1,.275-.616.331.331,0,0,0,.1-.22c0-.088-.033-.143-.187-.187a11.306,11.306,0,0,0-1.221-.33,5.331,5.331,0,0,1-.143,1.023A30.9,30.9,0,0,1,24.794-.8a12.372,12.372,0,0,1-1.254.022c.088.44.176.836.264,1.144.044.121.088.165.165.165a.351.351,0,0,0,.176-.066,1.052,1.052,0,0,1,.407-.121c1.8-.2,3.707-.484,5.126-.737.154.33.3.66.44.99.044.11.1.143.231.077l.814-.429c.132-.066.143-.11.1-.22A26.027,26.027,0,0,0,29.15-3.652c-.066-.1-.088-.088-.231-.022ZM34.87.858c.121,0,.132-.011.132-.121V.3h4.444v.4c0,.1.011.11.121.11h.946c.11,0,.121-.011.121-.11,0-.066-.022-.341-.022-1.815v-.946c0-.671.022-.968.022-1.034,0-.11-.011-.121-.121-.121-.077,0-.451.022-1.518.022H35.442c-1.056,0-1.441-.022-1.507-.022-.11,0-.121.011-.121.121,0,.077.022.363.022,1.2v.825c0,1.474-.022,1.749-.022,1.815,0,.11.011.121.121.121ZM35-2.2h4.444V-.7H35Zm5.511-1.914c.979,0,1.32.022,1.386.022.121,0,.132-.011.132-.121v-.836c0-.11-.011-.121-.132-.121-.066,0-.407.022-1.386.022H37.862V-6.512h1.551c1.056,0,1.43.022,1.5.022.1,0,.11-.011.11-.121v-.814c0-.11-.011-.121-.11-.121-.066,0-.44.022-1.5.022H37.862v-.44a2.931,2.931,0,0,1,.066-.825.621.621,0,0,0,.066-.22c0-.066-.066-.11-.176-.121-.363-.044-.825-.066-1.243-.077a9.452,9.452,0,0,1,.066,1.419v.264H35.332c.066-.121.121-.253.176-.374a.691.691,0,0,1,.187-.3c.066-.055.121-.11.121-.176s-.077-.132-.231-.187c-.264-.1-.627-.231-.968-.33a4.163,4.163,0,0,1-.275.781,7.184,7.184,0,0,1-1.474,2.013,3.438,3.438,0,0,1,.715.506c.121.121.187.187.253.187s.121-.077.231-.209a8.073,8.073,0,0,0,.682-.9h1.892v1.364H33.836c-.979,0-1.32-.022-1.386-.022-.11,0-.121.011-.121.121v.836c0,.11.011.121.121.121.066,0,.407-.022,1.386-.022Z" transform="translate(840.527 3296.475)" fill="#001650"/><g transform="translate(843 3240)" fill="#fff" stroke="#001650" stroke-width="1.5"><rect width="38" height="25" stroke="none"/><rect x="0.75" y="0.75" width="36.5" height="23.5" fill="none"/></g><line x2="21" transform="translate(851.5 3267.336)" fill="none" stroke="#001650" stroke-width="1.5"/><g transform="translate(865 3249) rotate(90)"><path d="M 5.694228172302246 5.25 L 1.305771708488464 5.25 L 3.5 1.488465666770935 L 5.694228172302246 5.25 Z" stroke="none"/><path d="M 3.5 2.976958513259888 L 2.611559391021729 4.5 L 4.38844108581543 4.5 L 3.5 2.976958513259888 M 3.5 0 L 7 6 L 0 6 L 3.5 0 Z" stroke="none" fill="#001650"/></g><path d="M3.861-1.419h.407c.946,0,1.276.022,1.342.022.11,0,.121-.011.121-.11v-.66c0-.11-.011-.121-.121-.121-.066,0-.4.022-1.342.022H3.861v-.473h.473c.924,0,1.243.022,1.32.022.11,0,.121-.011.121-.121,0-.066-.022-.33-.022-.913V-4.928c0-.594.022-.847.022-.9,0-.11-.011-.121-.121-.121-.077,0-.4.022-1.32.022H3.861v-.484H4.5c.979,0,1.342.022,1.408.022.1,0,.088-.011.088-.121v-.649c0-.11-.011-.121-.11-.121-.066,0-.407.022-1.386.022H3.861v-.616c.451-.055.891-.132,1.331-.22a3.224,3.224,0,0,1,.5-.077c.143,0,.231-.044.231-.11a.269.269,0,0,0-.088-.2,4.766,4.766,0,0,0-.627-.6A4,4,0,0,1,4.6-8.9,21.1,21.1,0,0,1,.7-8.481a2.212,2.212,0,0,1,.341.594c.088.253.1.264.407.242.473-.022.946-.066,1.419-.11v.495H2.057c-.99,0-1.331-.022-1.4-.022-.11,0-.121.011-.121.121v.649c0,.11.011.121.121.121.066,0,.407-.022,1.4-.022h.814v.484h-.44c-.935,0-1.254-.022-1.32-.022-.121,0-.132.011-.132.121,0,.055.022.308.022.9v1.177c0,.583-.022.836-.022.913,0,.11.011.121.132.121.066,0,.385-.022,1.32-.022h.44v.473H2.222c-.957,0-1.276-.022-1.342-.022-.11,0-.121.011-.121.121v.66c0,.1.011.11.121.11.066,0,.385-.022,1.342-.022h.649v.638c-.44.044-.858.066-1.243.088A10.04,10.04,0,0,1,.473-.682C.528-.352.594,0,.66.286.693.407.748.473.814.473A.426.426,0,0,0,1,.407,1.769,1.769,0,0,1,1.408.33C2.651.2,4.081-.011,5.247-.242a.86.86,0,0,0,.209-.044c-.11.121-.231.231-.352.341a2.04,2.04,0,0,1,.7.528c.1.1.154.154.209.154s.121-.055.231-.165A7,7,0,0,0,7.876-2.563,19.378,19.378,0,0,0,8.283-5.72h.924a31.261,31.261,0,0,1-.275,4.653c-.077.517-.264.693-.594.693a5.9,5.9,0,0,1-.913-.088,2.509,2.509,0,0,1,.22.737c.033.363.033.363.286.385.187.011.374.022.605.022a1.253,1.253,0,0,0,1.4-1.21,33.674,33.674,0,0,0,.319-5.038c0-.352,0-.671.022-1.045,0-.11-.022-.132-.132-.132-.066,0-.352.022-1.2.022H8.316c.011-.275.011-.55.011-.847A4.739,4.739,0,0,1,8.393-8.69a.844.844,0,0,0,.066-.264c0-.066-.055-.11-.165-.121-.385-.044-.7-.066-1.1-.077A10.885,10.885,0,0,1,7.271-7.6c0,.308-.011.594-.011.88-.682,0-.935-.022-.99-.022-.121,0-.132.011-.132.121v.8c0,.11.011.121.132.121.055,0,.3-.011.946-.022a15.1,15.1,0,0,1-.363,2.8A6.209,6.209,0,0,1,5.6-.451l.033-.2a4.551,4.551,0,0,1,.1-.506c-.649.11-1.276.2-1.87.264Zm.957-2.024H3.861v-.583h.957Zm0-1.793v.572H3.861v-.572ZM1.958-3.443v-.583h.913v.583Zm0-1.221v-.572h.913v.572ZM15.521-7.733v1.078h-.616c-.979,0-1.309-.022-1.386-.022-.11,0-.121.011-.121.132,0,.066.022.407.022,1.188v2.5c0,.77-.022,1.122-.022,1.188,0,.11.011.121.121.121.077,0,.407-.022,1.386-.022h2.31c.99,0,1.32.022,1.386.022.121,0,.132-.011.132-.121,0-.066-.022-.418-.022-1.188v-2.5c0-.781.022-1.122.022-1.188,0-.121-.011-.132-.132-.132-.066,0-.4.022-1.386.022h-.671V-7.733H19.36c1,0,1.331.022,1.4.022.11,0,.121-.011.121-.11v-.847c0-.121-.011-.132-.121-.132-.066,0-.4.022-1.4.022h-6.6c-.99,0-1.331-.022-1.4-.022-.11,0-.121.011-.121.132v.847c0,.1.011.11.121.11.066,0,.407-.022,1.4-.022ZM17.71-2.475H16.533V-3.74H17.71Zm-3.3,0V-3.74h1.122v1.265Zm3.3-3.278v1.166H16.533V-5.753Zm-3.3,1.166V-5.753h1.122v1.166ZM19.58-.759H12.562V-4.972a3.7,3.7,0,0,1,.077-1.144.479.479,0,0,0,.077-.231c0-.088-.077-.143-.209-.165-.352-.044-.671-.066-1.1-.088a12.682,12.682,0,0,1,.066,1.551v3.6c0,1.386-.022,2.09-.022,2.167,0,.11.011.121.121.121h.869c.11,0,.121-.011.121-.121V.275H19.58v.44c0,.11.011.121.121.121h.88c.11,0,.121-.011.121-.121,0-.066-.022-.792-.022-2.189V-4.983a3.336,3.336,0,0,1,.088-1.155.362.362,0,0,0,.066-.209c0-.1-.077-.143-.209-.165-.352-.044-.693-.066-1.111-.088a14.573,14.573,0,0,1,.066,1.606ZM23.8-3.223c.154-.055.308-.121.462-.187.319-.132.319-.132.33-.484,0-.165.011-.308.022-.44.088-.011.231-.011.44-.011V-.924q-.38.033-.726.033a8.3,8.3,0,0,0,.165.847c.033.132.077.176.132.176a.27.27,0,0,0,.176-.066.6.6,0,0,1,.286-.1c.528-.077,1.188-.209,1.925-.363C27.005.33,26.994.693,26.994.748c0,.11.011.121.121.121h.693c.11,0,.121-.011.121-.121,0-.033-.022-.286-.022-.748a2.325,2.325,0,0,1,.374.5c.088.165.132.242.209.242a.682.682,0,0,0,.242-.11,6.11,6.11,0,0,0,1.111-.9,5.021,5.021,0,0,0,1.144.858.629.629,0,0,0,.253.1c.077,0,.121-.066.187-.242a2.391,2.391,0,0,1,.385-.693,4.231,4.231,0,0,1-1.364-.77,5.8,5.8,0,0,0,.77-1.672.675.675,0,0,1,.176-.341.229.229,0,0,0,.088-.176c0-.066-.066-.165-.264-.363-.187-.176-.3-.231-.363-.231a.464.464,0,0,0-.132.033.645.645,0,0,1-.22.022H29.249c-.7,0-.913-.022-.968-.022-.11,0-.121.011-.121.132v.649c0,.11.011.121.121.121a1.5,1.5,0,0,0,.176-.011,5.7,5.7,0,0,0,.781,1.87,6.23,6.23,0,0,1-1.331.979V-4.356H30.03c1.078,0,1.452.022,1.518.022.1,0,.11-.011.11-.132v-.682c0-.11-.011-.121-.11-.121-.066,0-.44.022-1.518.022H26.048c-1.078,0-1.452-.022-1.518-.022-.11,0-.121.011-.121.132v.649c-.209.088-.418.165-.6.231v-1.9c.583,0,.781.022.858.022.11,0,.121-.011.121-.121v-.792c0-.121-.011-.132-.121-.132-.077,0-.275.022-.858.022v-.495a3.773,3.773,0,0,1,.066-1.111A.575.575,0,0,0,23.947-9c0-.055-.066-.1-.176-.11A9.264,9.264,0,0,0,22.66-9.2a10.514,10.514,0,0,1,.088,1.562v.473h-.066c-.693,0-.913-.022-.968-.022-.11,0-.121.011-.121.132v.792c0,.11.011.121.121.121.055,0,.275-.022.968-.022h.066v2.211l-.2.044a8.154,8.154,0,0,1-1.012.2,7.619,7.619,0,0,0,.176,1.045c.033.11.077.143.143.143a.264.264,0,0,0,.165-.066,1.675,1.675,0,0,1,.4-.187l.33-.1V-.715c0,.319-.077.418-.352.418a4.8,4.8,0,0,1-.7-.033,3.084,3.084,0,0,1,.264.77c.077.341.077.341.418.33A1.619,1.619,0,0,0,23.5.528c.242-.187.341-.484.341-1.089,0-.55-.033-1.144-.033-2.2Zm6.512.33a4.545,4.545,0,0,1-.506,1.155,4.247,4.247,0,0,1-.517-1.155Zm-3.3,1.672c-.4.077-.748.132-1.067.187v-.715h1.067Zm0-3.135v.616H25.949v-.616ZM25.949-2.442v-.616h1.067v.616Zm.99-6.413c-.968,0-1.309-.022-1.386-.022-.11,0-.121.011-.121.121,0,.077.022.319.022.891v1.133c0,.583-.022.825-.022.9,0,.1.011.11.121.11.077,0,.418-.022,1.386-.022h2.277c.979,0,1.309.022,1.375.022.11,0,.121-.011.121-.11,0-.066-.022-.319-.022-.9V-7.865c0-.572.022-.825.022-.891,0-.11-.011-.121-.121-.121-.066,0-.4.022-1.375.022ZM29.623-6.49H26.5v-.462h3.124ZM26.5-8.1h3.124v.462H26.5ZM36.575-4.3c1.034,0,1.375.022,1.441.022.11,0,.121-.011.121-.121v-.649c0-.121-.011-.132-.121-.132-.066,0-.407.022-1.441.022h-.77V-5.7h.429c.924,0,1.243.022,1.309.022.121,0,.132-.011.132-.121,0-.066-.022-.308-.022-.9V-7.81c0-.583.022-.825.022-.891,0-.11-.011-.121-.132-.121-.066,0-.385.022-1.309.022H34.265c-.924,0-1.243-.022-1.32-.022-.11,0-.121.011-.121.121,0,.066.022.308.022.891V-6.7c0,.594-.022.836-.022.9,0,.11.011.121.121.121.077,0,.4-.022,1.32-.022h.473v.539h-1c-1.023,0-1.375-.022-1.441-.022-.11,0-.121.011-.121.132V-4.4c0,.11.011.121.121.121.066,0,.418-.022,1.441-.022ZM36.6-6.4H33.891V-6.9H36.6Zm-2.706-1.65H36.6v.484H33.891Zm.484,4.246c-.891,0-1.177-.022-1.254-.022-.11,0-.121.011-.121.121,0,.077.022.22.022.649v.616c0,.44-.022.583-.022.66,0,.11.011.121.121.121.077,0,.363-.022,1.254-.022h.407V-.506c0,.253-.066.341-.341.341A4.6,4.6,0,0,1,33.77-.22a2.835,2.835,0,0,1,.275.8c.044.231.044.231.4.22.583,0,.836-.011,1.045-.154a1.069,1.069,0,0,0,.385-.935c0-.407-.044-.781-.044-1.144v-.253h.286c.88,0,1.188.022,1.265.022.11,0,.121-.011.121-.121,0-.066-.022-.22-.022-.66v-.616c0-.429.022-.583.022-.649,0-.11-.011-.121-.121-.121-.077,0-.385.022-1.265.022ZM36.421-2.42H34.056v-.649h2.365Zm0,1.166c-.132.066-.165.088-.088.187A6.24,6.24,0,0,1,37.092.187c.055.11.066.132.2.044l.4-.264a2.106,2.106,0,0,1,.451.561c.077.132.121.187.2.187a.647.647,0,0,0,.275-.11,10.5,10.5,0,0,0,3.146-2.4,2.113,2.113,0,0,1,.363-.363c.077-.044.132-.077.132-.154s-.033-.121-.121-.2a6.151,6.151,0,0,0-.814-.638,3.408,3.408,0,0,1-.407.583A9.323,9.323,0,0,1,37.9-.352a5.391,5.391,0,0,0-.748-1.122c-.088-.1-.088-.11-.22-.044Zm4.6-4.983a3.469,3.469,0,0,1-.363.484,7.658,7.658,0,0,1-2.849,1.98,2.554,2.554,0,0,1,.528.638c.1.187.143.264.22.264a.629.629,0,0,0,.253-.1,8.687,8.687,0,0,0,2.651-1.969c.176-.209.253-.275.363-.319a.185.185,0,0,0,.132-.154c0-.055-.011-.1-.11-.187A5.379,5.379,0,0,0,41.019-6.237Zm-.231-2.805a3.352,3.352,0,0,1-.341.44,6.628,6.628,0,0,1-2.541,1.628,2.736,2.736,0,0,1,.506.66c.1.176.143.242.22.242a.757.757,0,0,0,.253-.088A7.762,7.762,0,0,0,41.261-7.8a2.941,2.941,0,0,1,.4-.286c.077-.033.121-.077.121-.143s-.055-.121-.132-.187A6.986,6.986,0,0,0,40.788-9.042ZM32.131-.066a2.151,2.151,0,0,1,.572.4c.11.11.176.165.242.165s.132-.077.253-.209a8.069,8.069,0,0,0,.66-.9,1.835,1.835,0,0,1,.242-.33.17.17,0,0,0,.077-.132c0-.055-.066-.1-.187-.154a5.764,5.764,0,0,0-.759-.308,1.746,1.746,0,0,1-.2.44A3.769,3.769,0,0,1,32.131-.066Z" transform="translate(378.527 3296.475)" fill="#001650"/><g transform="translate(3)"><g transform="translate(384 3243)" fill="#fff" stroke="#001650" stroke-width="1.5"><rect width="10" height="7" stroke="none"/><rect x="0.75" y="0.75" width="8.5" height="5.5" fill="none"/></g><g transform="translate(381 3245)" fill="#fff" stroke="#001650" stroke-width="1.5"><rect width="32" height="19" stroke="none"/><rect x="0.75" y="0.75" width="30.5" height="17.5" fill="none"/></g><g transform="translate(386 3243)" fill="#fff" stroke="#001650" stroke-width="1.5"><circle cx="11" cy="11" r="11" stroke="none"/><circle cx="11" cy="11" r="10.25" fill="none"/></g><g transform="translate(389 3246)" fill="#fff" stroke="#001650" stroke-width="1.5"><circle cx="8" cy="8" r="8" stroke="none"/><circle cx="8" cy="8" r="7.25" fill="none"/></g></g></g></svg>