<svg xmlns="http://www.w3.org/2000/svg" width="514.151" height="74.871" viewBox="0 0 514.151 74.871"><g transform="translate(-372 -1287.1)"><path d="M9.8-8.514H8.382l-.66,3.993C7.557-3.465,7.458-2.6,7.293-1.452H7.139c-.121-1.133-.253-2.035-.418-3L6.006-8.514H4.1L3.41-4.587c-.187,1.023-.3,2.068-.451,3.135H2.8C2.673-2.541,2.53-3.575,2.376-4.62L1.76-8.514H.253L1.914.022H3.74l.693-4.015c.2-1.089.319-2.035.473-3.157H5.06c.154,1.111.264,2.057.473,3.2L6.27.022H8.1Zm6.468,0H10.637V.022h5.72V-1.155H12.122V-3.9h3.135V-5.082H12.122V-7.337h4.147Zm1.056,0V.022h3.2c1.947,0,3.025-.913,3.025-2.42a2.039,2.039,0,0,0-1.958-2.057v-.077a1.859,1.859,0,0,0,1.694-1.859c0-1.342-.781-2.123-2.915-2.123ZM18.777-7.4h1.43c1.188,0,1.606.4,1.606,1.155s-.572,1.243-1.738,1.243h-1.3Zm0,3.509h1.4c1.188,0,1.881.517,1.881,1.386,0,.891-.561,1.419-1.694,1.419H18.777ZM31.823-8.558a5.368,5.368,0,0,1,.99,1.375c.044.077.1.1.176.055l.5-.3a.117.117,0,0,0,.055-.176A5.18,5.18,0,0,0,32.6-8.877c-.055-.055-.1-.066-.154-.033ZM32.9-9.185a5.283,5.283,0,0,1,.979,1.364.119.119,0,0,0,.187.055l.462-.3a.133.133,0,0,0,.055-.2,4.869,4.869,0,0,0-.935-1.232c-.055-.055-.088-.077-.154-.033ZM29.744-7c.6,0,1.254.011,1.848.033.121,0,.143-.055.143-.209a4.893,4.893,0,0,0,0-.8c0-.143-.022-.209-.132-.209-.55.033-1.243.044-1.859.044H27.72c-.5,0-1.056-.011-1.826-.055.033.4.044.792.077,1.056.011.132.044.187.187.187C26.774-6.974,27.214-7,27.72-7Zm1.628,2.552c.759,0,1.518.022,2.09.044.1,0,.165-.044.165-.187s.011-.7,0-.847-.011-.22-.121-.22c-.649.044-1.287.066-2.145.066H26.422c-.638,0-1.254,0-1.87-.055a6.618,6.618,0,0,0,.088,1.056c.011.143.044.22.143.209.561-.033,1.1-.066,1.65-.066h2.09a4.672,4.672,0,0,1-.561,2.365A4.885,4.885,0,0,1,25.773-.121a2.889,2.889,0,0,1,.979.583.324.324,0,0,0,.231.11.67.67,0,0,0,.33-.132,5.541,5.541,0,0,0,1.936-2.079A6.283,6.283,0,0,0,29.9-4.444ZM41.69-6.072V-7.117a3.029,3.029,0,0,1,.088-.968.589.589,0,0,0,.044-.2c0-.088-.044-.143-.2-.176a10.223,10.223,0,0,0-1.287-.187,7.312,7.312,0,0,1,.1,1.507l-.011,1.078H38.06v-.8a2.756,2.756,0,0,1,.077-1.056.747.747,0,0,0,.066-.231c0-.077-.044-.132-.165-.154A10.679,10.679,0,0,0,36.7-8.481a7.645,7.645,0,0,1,.132,1.617v.8H36.5c-.847,0-1.562-.022-2.024-.055a9.87,9.87,0,0,0,.077,1.067c.011.143.044.209.132.209.341-.022,1.221-.055,1.815-.055h.33v.418c0,.693-.022,1.232-.055,1.8-.011.121.055.143.2.154a6.787,6.787,0,0,0,.946,0c.121-.011.2-.033.187-.154-.033-.583-.033-1.177-.033-1.826v-.4h2.343a5.323,5.323,0,0,1-.649,2.805,4.776,4.776,0,0,1-2.97,1.947,2.539,2.539,0,0,1,.913.66c.088.088.143.121.209.121a.923.923,0,0,0,.308-.1,5.182,5.182,0,0,0,2.6-2.046,6.542,6.542,0,0,0,.847-3.388h.451c.539,0,1.21.011,1.584.011.154.011.176-.033.187-.176a5.729,5.729,0,0,0,0-.869c-.011-.121-.022-.187-.154-.176-.506.022-1.122.033-1.661.033Zm.341-2.387a5.236,5.236,0,0,1,.891,1.43.12.12,0,0,0,.187.066l.451-.231c.088-.044.1-.088.066-.165a5.133,5.133,0,0,0-.847-1.331.116.116,0,0,0-.154-.044Zm1.056-.5a5.268,5.268,0,0,1,.891,1.43c.033.066.077.1.176.055l.44-.22a.124.124,0,0,0,.066-.187,4.65,4.65,0,0,0-.847-1.287c-.055-.066-.088-.077-.154-.044ZM50.655-5.7a17.412,17.412,0,0,0,1.287-1.386,3.624,3.624,0,0,1,.66-.605.315.315,0,0,0,.154-.242.2.2,0,0,0-.088-.165,9.786,9.786,0,0,0-1.221-.77,3.188,3.188,0,0,1-.693,1.133,17.847,17.847,0,0,1-2.343,2.3,17.658,17.658,0,0,1-3.465,2.255,4.117,4.117,0,0,1,.946.649.307.307,0,0,0,.231.11.31.31,0,0,0,.165-.044,19.03,19.03,0,0,0,3.025-2.112v2.563c0,.748-.033,1.463-.044,2.255-.011.132.033.176.154.176a9.175,9.175,0,0,0,1.1,0c.121,0,.176-.044.165-.187-.022-.88-.033-1.529-.033-2.288Zm5.28-1.155A11.644,11.644,0,0,1,58.179-5.06c.055.055.1.088.143.088s.077-.033.132-.088c.154-.165.517-.605.682-.825a.237.237,0,0,0,.066-.143c0-.044-.033-.088-.1-.154A11.47,11.47,0,0,0,57-7.744a.293.293,0,0,0-.143-.055.206.206,0,0,0-.154.088C56.5-7.491,56.177-7.15,55.935-6.853Zm.242,5.489a7.622,7.622,0,0,0,.88,1.221.285.285,0,0,0,.187.121.3.3,0,0,0,.2-.11,3.8,3.8,0,0,1,.737-.506A23.651,23.651,0,0,0,61.5-2.794a17.98,17.98,0,0,0,2.53-2.332c.121-.143.176-.231.176-.33a.538.538,0,0,0-.055-.209,4.91,4.91,0,0,1-.308-1.287A16.526,16.526,0,0,1,60.83-3.96a16.3,16.3,0,0,1-3.168,2.046A6.627,6.627,0,0,1,56.177-1.364Z" transform="translate(371.747 1349.549)" fill="#001650"/><g transform="translate(385 1292.1)" fill="#fff" stroke="#001650" stroke-width="1.5"><rect width="38" height="25" stroke="none"/><rect x="0.75" y="0.75" width="36.5" height="23.5" fill="none"/></g><line x2="21" transform="translate(393.5 1319.485)" fill="none" stroke="#001650" stroke-width="1.5"/><g transform="translate(8)"><path d="M6.754-5.7A17.412,17.412,0,0,0,8.041-7.084a3.624,3.624,0,0,1,.66-.605.315.315,0,0,0,.154-.242A.2.2,0,0,0,8.767-8.1a9.786,9.786,0,0,0-1.221-.77,3.188,3.188,0,0,1-.693,1.133,17.847,17.847,0,0,1-2.343,2.3A17.658,17.658,0,0,1,1.045-3.179a4.117,4.117,0,0,1,.946.649.307.307,0,0,0,.231.11.31.31,0,0,0,.165-.044A19.03,19.03,0,0,0,5.412-4.576v2.563c0,.748-.033,1.463-.044,2.255-.011.132.033.176.154.176a9.175,9.175,0,0,0,1.1,0c.121,0,.176-.044.165-.187-.022-.88-.033-1.529-.033-2.288Zm10.417-1.5c.671,0,1.188.022,1.551.022.165.011.2-.033.2-.22a5.585,5.585,0,0,0,0-.858c0-.121-.033-.176-.132-.176-.429.022-1.012.055-1.727.055h-1.98a15.155,15.155,0,0,1-1.8-.077,9.587,9.587,0,0,0,.055,1.056c.011.176.044.242.154.242.462-.033,1.012-.044,1.507-.044Zm.836,2.354a8.578,8.578,0,0,1-4.62,4.587A3.225,3.225,0,0,1,14.41.319a.359.359,0,0,0,.242.132.528.528,0,0,0,.22-.077A9.615,9.615,0,0,0,19.36-4.488a1.26,1.26,0,0,1,.374-.517.265.265,0,0,0,.121-.209.324.324,0,0,0-.11-.231,6.492,6.492,0,0,0-.737-.682.283.283,0,0,0-.165-.077.237.237,0,0,0-.143.066,1.21,1.21,0,0,1-.583.121H14.344a19.467,19.467,0,0,1-2.024-.088,8.339,8.339,0,0,0,.121,1.111c.022.143.066.209.165.209.55-.033,1.1-.044,1.65-.044Zm6.919-2.8c-.715,0-1.265,0-1.859-.044a6.409,6.409,0,0,0,.1,1.144c.022.121.055.2.143.187.594-.044,1.166-.066,1.738-.066l2.838-.011a13.493,13.493,0,0,1-2.068,2.761,13.362,13.362,0,0,1-3.872,2.8,3.014,3.014,0,0,1,.924.715.246.246,0,0,0,.187.1.7.7,0,0,0,.253-.088,15.826,15.826,0,0,0,3.7-2.9,20.023,20.023,0,0,1,2.86,2.728.226.226,0,0,0,.154.088A.19.19,0,0,0,30.151-.3a5.894,5.894,0,0,0,.737-.748.272.272,0,0,0,.077-.165.25.25,0,0,0-.088-.154A25.863,25.863,0,0,0,27.83-4.026a17.359,17.359,0,0,0,1.408-2.057,2.015,2.015,0,0,1,.407-.484.3.3,0,0,0,.143-.22.293.293,0,0,0-.055-.143,4.01,4.01,0,0,0-.715-.77.364.364,0,0,0-.187-.088.183.183,0,0,0-.121.044,1.615,1.615,0,0,1-.759.1Zm11.891.418a2.865,2.865,0,0,1,.077-1.034.579.579,0,0,0,.088-.253c0-.088-.055-.154-.209-.187A8.119,8.119,0,0,0,35.4-8.877a8.393,8.393,0,0,1,.11,1.628v5.412c0,.7-.011,1.353-.044,2.167,0,.132.055.165.209.165a7.269,7.269,0,0,0,.979,0c.154,0,.209-.033.2-.165-.022-.792-.044-1.441-.044-2.156V-4.257A12.183,12.183,0,0,1,39.7-2.849a.169.169,0,0,0,.121.055c.055,0,.1-.044.143-.121a6.465,6.465,0,0,0,.473-.957c.055-.143,0-.22-.121-.286a15.516,15.516,0,0,0-3.5-1.5Zm8.36-.462h-.7l.066-.231a.908.908,0,0,1,.11-.319.341.341,0,0,0,.077-.187c0-.066-.033-.1-.165-.132a8.978,8.978,0,0,0-.957-.209,2.738,2.738,0,0,1-.055.517A5.964,5.964,0,0,1,42.7-6.3a2.656,2.656,0,0,1,.671.319.616.616,0,0,0,.264.132c.077,0,.121-.077.2-.242q.148-.28.3-.627h1.045v1h-.924c-1.023,0-1.375-.022-1.441-.022-.11,0-.121.011-.121.121v.781c0,.121.011.132.121.132.066,0,.418-.022,1.441-.022h.924v.946h-.528c-.957,0-1.287-.022-1.364-.022-.11,0-.121.011-.121.121,0,.077.022.341.022,1v1.441c0,.715-.022,1.012-.022,1.089,0,.11.011.121.121.121h.88c.11,0,.121-.011.121-.121,0-.066-.022-.374-.022-1.034V-2.816h.913v1.463c0,1.353-.022,2.024-.022,2.1,0,.1.011.11.121.11h.891c.11,0,.121-.011.121-.11,0-.066-.022-.759-.022-2.112V-2.816h.968V-1.3c0,.209-.077.275-.253.275a4.448,4.448,0,0,1-.484-.033,2.075,2.075,0,0,1,.242.693c.055.319.055.33.4.33a1.472,1.472,0,0,0,.924-.209.787.787,0,0,0,.253-.7c0-.3-.022-.627-.022-1.243v-.385c0-.7.022-1.045.022-1.111,0-.11-.011-.121-.121-.121-.077,0-.4.022-1.353.022h-.572V-4.73H47c1.023,0,1.364.022,1.43.022.11,0,.121-.011.121-.132v-.781c0-.11-.011-.121-.121-.121-.066,0-.407.022-1.43.022h-.737v-1h.528c.869,0,1.155.022,1.221.022.11,0,.121-.011.121-.121v-.77c0-.11-.011-.121-.121-.121-.066,0-.352.022-1.221.022h-.528v-.374a1.448,1.448,0,0,1,.066-.605.689.689,0,0,0,.077-.242c0-.066-.066-.11-.165-.11-.352-.044-.726-.066-1.144-.077a5.635,5.635,0,0,1,.077,1.045Zm7.084.2A3.773,3.773,0,0,1,52.327-8.6a.523.523,0,0,0,.077-.231c0-.055-.066-.11-.187-.121A10.124,10.124,0,0,0,51.04-9.02a9,9,0,0,1,.088,1.551V-.814c0,.352-.11.429-.473.429A8.506,8.506,0,0,1,49.6-.451a3.161,3.161,0,0,1,.319.858c.077.352.077.352.407.352.968,0,1.265-.077,1.573-.286s.4-.583.4-1.122-.033-1.43-.033-2.2ZM49.049-3.564c0,.935-.022,1.386-.022,1.452,0,.11.011.121.121.121h.88c.121,0,.132-.011.132-.121,0-.066-.022-.517-.022-1.452V-6.6a7.506,7.506,0,0,1,.033-1.177.889.889,0,0,0,.077-.242c0-.066-.055-.11-.165-.121-.374-.044-.726-.066-1.111-.077a11.591,11.591,0,0,1,.077,1.628Zm9.823-2.673V-.968c0,1.1-.022,1.65-.022,1.716,0,.11.011.121.121.121h.935c.11,0,.121-.011.121-.121C60.027.693,60,.132,60-.968v-.605h1.408c.88,0,1.177.022,1.243.022.11,0,.121-.011.121-.132V-2.5c0-.1-.011-.11-.121-.11-.066,0-.363.022-1.243.022H60V-3.927h1.408c.869,0,1.155.022,1.221.022.11,0,.121-.011.121-.121v-.8c0-.11-.011-.121-.121-.121-.066,0-.352.022-1.221.022H60V-6.237H61.8c.979,0,1.309.022,1.364.022.121,0,.132-.011.132-.132v-.8c0-.121-.011-.132-.132-.132-.055,0-.385.022-1.364.022H58.927c.132-.275.242-.55.341-.814a1.407,1.407,0,0,1,.286-.539.253.253,0,0,0,.1-.209c0-.077-.077-.132-.209-.165-.341-.1-.682-.165-1.089-.242a4.059,4.059,0,0,1-.176.836,10.194,10.194,0,0,1-2.013,3.432,2.541,2.541,0,0,1,.528.671c.088.154.143.22.209.22s.11-.055.209-.176a12.76,12.76,0,0,0,1.32-1.991Zm-4.136,5.3c0,1.078-.022,1.606-.022,1.672,0,.11.011.121.121.121h.935c.11,0,.121-.011.121-.121,0-.055-.022-.594-.022-1.672V-6.666a15.423,15.423,0,0,0,.649-1.452c.11-.308.165-.4.242-.462s.11-.121.11-.2-.044-.11-.176-.165c-.308-.121-.671-.209-1.067-.319a3.976,3.976,0,0,1-.2.792A10.151,10.151,0,0,1,53.2-4.851a2.688,2.688,0,0,1,.407.957c.033.132.077.187.143.187.044,0,.11-.044.187-.132a10.655,10.655,0,0,0,.825-1.012c-.011.484-.022.979-.022,1.386Z" transform="translate(602.955 1349.262)" fill="#001650"/><g transform="translate(1035.562 -54.583) rotate(39)"><g transform="translate(540 1300)" fill="#fff"><path d="M 9.25 23.25 L 0.75 23.25 L 0.75 0.2387145757675171 L 4.963418483734131 -5.709644794464111 L 9.25 0.2419683933258057 L 9.25 23.25 Z" stroke="none"/><path d="M 4.968506813049316 -4.419279098510742 L 1.5 0.4774398803710938 L 1.5 22.5 L 8.5 22.5 L 8.5 0.4839458465576172 L 4.968506813049316 -4.419279098510742 M 4.958330154418945 -7 L 10 0 L 10 24 L 0 24 L 0 0 L 4.958330154418945 -7 Z" stroke="none" fill="#001650"/></g><g transform="translate(7150 1267)" fill="#001650"><path d="M -6603.62548828125 29.2503662109375 L -6606.42529296875 29.2503662109375 L -6605.037109375 27.29068565368652 L -6603.62548828125 29.2503662109375 Z" stroke="none"/><path d="M -6602.1611328125 30.0003662109375 L -6607.87548828125 30.0003662109375 L -6605.0419921875 26.00032806396484 L -6602.1611328125 30.0003662109375 Z" stroke="none" fill="#001650"/></g></g></g><g transform="translate(4)"><path d="M-27-7.227a2.865,2.865,0,0,1,.077-1.034.579.579,0,0,0,.088-.253c0-.088-.055-.154-.209-.187a8.119,8.119,0,0,0-1.375-.176,8.393,8.393,0,0,1,.11,1.628v5.412c0,.7-.011,1.353-.044,2.167,0,.132.055.165.209.165a7.269,7.269,0,0,0,.979,0c.154,0,.209-.033.2-.165-.022-.792-.044-1.441-.044-2.156V-4.257a12.183,12.183,0,0,1,2.893,1.408A.169.169,0,0,0-24-2.794c.055,0,.1-.044.143-.121a6.465,6.465,0,0,0,.473-.957c.055-.143,0-.22-.121-.286a15.516,15.516,0,0,0-3.5-1.5Zm1.98-.726a5.458,5.458,0,0,1,1.111,1.276.115.115,0,0,0,.187.033l.462-.341a.111.111,0,0,0,.033-.176,5.063,5.063,0,0,0-1.045-1.177c-.066-.055-.11-.066-.165-.022Zm1.012-.726a5.2,5.2,0,0,1,1.1,1.265.113.113,0,0,0,.187.033l.44-.341a.127.127,0,0,0,.033-.2A4.594,4.594,0,0,0-23.3-9.053c-.066-.055-.1-.066-.165-.022Zm7.007,2.112-1,.154c-.759.121-1.364.2-1.958.242a9.333,9.333,0,0,0,.308,1.1c.044.11.1.143.209.11.3-.077,1.034-.231,1.639-.33l1.034-.165.275,1.419-1.54.253c-.792.132-1.375.22-2.046.3.088.352.2.77.308,1.089a.173.173,0,0,0,.253.121c.418-.11,1.034-.242,1.782-.374l1.5-.264.275,1.3c.154.7.275,1.474.352,1.881.011.088.077.143.22.132a7.481,7.481,0,0,0,1-.231c.1-.033.154-.066.143-.121-.143-.55-.33-1.254-.484-1.991l-.253-1.221,1.518-.264c.781-.132,1.441-.242,1.771-.286a.174.174,0,0,0,.165-.187,6.171,6.171,0,0,0-.187-.88c-.011-.11-.044-.154-.187-.121-.407.11-.946.231-1.727.363l-1.6.275-.275-1.408.968-.176c.55-.1,1.331-.22,1.837-.308.11-.011.165-.044.165-.121a7.58,7.58,0,0,0-.22-.946c-.022-.077-.066-.121-.121-.121-.572.154-1.342.286-1.969.4l-.9.154-.165-.924a2.393,2.393,0,0,1-.022-.792c0-.11-.077-.154-.22-.165a10.348,10.348,0,0,0-1.43.033,5.311,5.311,0,0,1,.44,1.375ZM-3.641-1.419-3.3-3.674a.873.873,0,0,1,.22-.55.285.285,0,0,0,.1-.2.285.285,0,0,0-.1-.2,3.793,3.793,0,0,0-.671-.605.348.348,0,0,0-.165-.066.2.2,0,0,0-.121.044,1.337,1.337,0,0,1-.649.1H-6.2c-.462,0-.792-.022-1.529-.055.022.363.044.715.077.946.022.187.066.22.2.209.286-.011.781-.033,1.21-.033h1.771l-.374,2.673H-7.4c-.55,0-.957,0-1.584-.044a5.627,5.627,0,0,0,.055.924c.022.165.066.22.187.22.539-.022.968-.022,1.419-.022h4.048c.506,0,1.034.011,1.529.011.165,0,.2-.011.209-.22s.011-.484,0-.693c-.011-.176-.055-.209-.242-.2-.418,0-.9.011-1.342.011ZM5.643-5.181A16.391,16.391,0,0,0,3.729-6.336.313.313,0,0,0,3.6-6.38a.153.153,0,0,0-.11.055c-.143.154-.407.495-.726.9A12.068,12.068,0,0,1,4.906-4.114,13.438,13.438,0,0,1,.759-.506a3.2,3.2,0,0,1,.99.6.309.309,0,0,0,.209.077A.5.5,0,0,0,2.211.088,14.438,14.438,0,0,0,5.973-3.344,11.246,11.246,0,0,1,7.414-1.892c.055.066.1.1.154.1A.17.17,0,0,0,7.7-1.87c.231-.253.451-.5.671-.781a.293.293,0,0,0,.055-.143.238.238,0,0,0-.066-.154,12.784,12.784,0,0,0-1.617-1.5A21.6,21.6,0,0,0,8-6.622a2.4,2.4,0,0,1,.495-.737A.324.324,0,0,0,8.613-7.6a.23.23,0,0,0-.11-.187,5.375,5.375,0,0,0-1.386-.693A5.117,5.117,0,0,1,6.7-7.128,13.026,13.026,0,0,1,5.643-5.181Zm6.171-1.672A11.644,11.644,0,0,1,14.058-5.06c.055.055.1.088.143.088s.077-.033.132-.088c.154-.165.517-.605.682-.825a.237.237,0,0,0,.066-.143c0-.044-.033-.088-.1-.154a11.47,11.47,0,0,0-2.1-1.562.293.293,0,0,0-.143-.055.206.206,0,0,0-.154.088C12.375-7.491,12.056-7.15,11.814-6.853Zm.242,5.489a7.622,7.622,0,0,0,.88,1.221.285.285,0,0,0,.187.121.3.3,0,0,0,.2-.11,3.8,3.8,0,0,1,.737-.506A23.651,23.651,0,0,0,17.38-2.794a17.979,17.979,0,0,0,2.53-2.332c.121-.143.176-.231.176-.33a.538.538,0,0,0-.055-.209,4.91,4.91,0,0,1-.308-1.287A16.526,16.526,0,0,1,16.709-3.96a16.3,16.3,0,0,1-3.168,2.046A6.627,6.627,0,0,1,12.056-1.364ZM26.037-7.227a2.865,2.865,0,0,1,.077-1.034.579.579,0,0,0,.088-.253c0-.088-.055-.154-.209-.187a8.119,8.119,0,0,0-1.375-.176,8.394,8.394,0,0,1,.11,1.628v5.412c0,.7-.011,1.353-.044,2.167,0,.132.055.165.209.165a7.269,7.269,0,0,0,.979,0c.154,0,.209-.033.2-.165-.022-.792-.044-1.441-.044-2.156V-4.257a12.183,12.183,0,0,1,2.893,1.408.169.169,0,0,0,.121.055c.055,0,.1-.044.143-.121a6.465,6.465,0,0,0,.473-.957c.055-.143,0-.22-.121-.286a15.516,15.516,0,0,0-3.5-1.5ZM-7.843,4.311h-.7l.066-.231a.908.908,0,0,1,.11-.319.341.341,0,0,0,.077-.187c0-.066-.033-.1-.165-.132a8.978,8.978,0,0,0-.957-.209,2.738,2.738,0,0,1-.055.517A5.963,5.963,0,0,1-10.318,5.7a2.656,2.656,0,0,1,.671.319.616.616,0,0,0,.264.132c.077,0,.121-.077.2-.242q.148-.28.3-.627h1.045v1h-.924c-1.023,0-1.375-.022-1.441-.022-.11,0-.121.011-.121.121V7.16c0,.121.011.132.121.132.066,0,.418-.022,1.441-.022h.924v.946h-.528c-.957,0-1.287-.022-1.364-.022-.11,0-.121.011-.121.121,0,.077.022.341.022,1v1.441c0,.715-.022,1.012-.022,1.089,0,.11.011.121.121.121h.88c.11,0,.121-.011.121-.121,0-.066-.022-.374-.022-1.034V9.184h.913v1.463c0,1.353-.022,2.024-.022,2.1,0,.1.011.11.121.11h.891c.11,0,.121-.011.121-.11,0-.066-.022-.759-.022-2.112V9.184h.968V10.7c0,.209-.077.275-.253.275a4.448,4.448,0,0,1-.484-.033,2.075,2.075,0,0,1,.242.693c.055.319.055.33.4.33a1.472,1.472,0,0,0,.924-.209.787.787,0,0,0,.253-.7c0-.3-.022-.627-.022-1.243V9.426c0-.7.022-1.045.022-1.111,0-.11-.011-.121-.121-.121-.077,0-.4.022-1.353.022h-.572V7.27h.737c1.023,0,1.364.022,1.43.022.11,0,.121-.011.121-.132V6.379c0-.11-.011-.121-.121-.121-.066,0-.407.022-1.43.022h-.737v-1h.528c.869,0,1.155.022,1.221.022.11,0,.121-.011.121-.121V4.41c0-.11-.011-.121-.121-.121-.066,0-.352.022-1.221.022h-.528V3.937a1.448,1.448,0,0,1,.066-.605.689.689,0,0,0,.077-.242c0-.066-.066-.11-.165-.11C-7.128,2.936-7.5,2.914-7.92,2.9a5.635,5.635,0,0,1,.077,1.045Zm7.084.2A3.773,3.773,0,0,1-.693,3.4a.523.523,0,0,0,.077-.231c0-.055-.066-.11-.187-.121A10.124,10.124,0,0,0-1.98,2.98a9,9,0,0,1,.088,1.551v6.655c0,.352-.11.429-.473.429a8.506,8.506,0,0,1-1.056-.066,3.161,3.161,0,0,1,.319.858c.077.352.077.352.407.352.968,0,1.265-.077,1.573-.286s.4-.583.4-1.122-.033-1.43-.033-2.2ZM-3.971,8.436c0,.935-.022,1.386-.022,1.452,0,.11.011.121.121.121h.88c.121,0,.132-.011.132-.121,0-.066-.022-.517-.022-1.452V5.4a7.506,7.506,0,0,1,.033-1.177.889.889,0,0,0,.077-.242c0-.066-.055-.11-.165-.121-.374-.044-.726-.066-1.111-.077a11.591,11.591,0,0,1,.077,1.628ZM5.852,5.763v5.269c0,1.1-.022,1.65-.022,1.716,0,.11.011.121.121.121h.935c.11,0,.121-.011.121-.121,0-.055-.022-.616-.022-1.716v-.6H8.393c.88,0,1.177.022,1.243.022.11,0,.121-.011.121-.132V9.5c0-.1-.011-.11-.121-.11-.066,0-.363.022-1.243.022H6.985V8.073H8.393c.869,0,1.155.022,1.221.022.11,0,.121-.011.121-.121v-.8c0-.11-.011-.121-.121-.121-.066,0-.352.022-1.221.022H6.985V5.763H8.778c.979,0,1.309.022,1.364.022.121,0,.132-.011.132-.132v-.8c0-.121-.011-.132-.132-.132-.055,0-.385.022-1.364.022H5.907c.132-.275.242-.55.341-.814a1.407,1.407,0,0,1,.286-.539.253.253,0,0,0,.1-.209c0-.077-.077-.132-.209-.165-.341-.1-.682-.165-1.089-.242a4.059,4.059,0,0,1-.176.836A10.194,10.194,0,0,1,3.146,7.039a2.541,2.541,0,0,1,.528.671c.088.154.143.22.209.22s.11-.055.209-.176a12.76,12.76,0,0,0,1.32-1.991Zm-4.136,5.3c0,1.078-.022,1.606-.022,1.672,0,.11.011.121.121.121H2.75c.11,0,.121-.011.121-.121,0-.055-.022-.594-.022-1.672V5.334A15.424,15.424,0,0,0,3.5,3.882c.11-.308.165-.4.242-.462s.11-.121.11-.2-.044-.11-.176-.165C3.366,2.936,3,2.848,2.607,2.738a3.976,3.976,0,0,1-.2.792A10.151,10.151,0,0,1,.176,7.149a2.688,2.688,0,0,1,.407.957c.033.132.077.187.143.187.044,0,.11-.044.187-.132a10.655,10.655,0,0,0,.825-1.012c-.011.484-.022.979-.022,1.386Z" transform="translate(754.424 1349.102)" fill="#001650"/><g transform="translate(53 -23.9)"><g transform="translate(689 1320)" fill="#fff" stroke="#001650" stroke-width="1.5"><rect width="31" height="21" stroke="none"/><rect x="0.75" y="0.75" width="29.5" height="19.5" fill="none"/></g><g transform="translate(684 1317)" fill="#fff" stroke="#001650" stroke-width="1.5"><rect width="32" height="21" stroke="none"/><rect x="0.75" y="0.75" width="30.5" height="19.5" fill="none"/></g></g><g transform="translate(53 -23.9)"><g transform="translate(689 1320)" fill="#fff" stroke="#001650" stroke-width="1.5"><rect width="31" height="21" stroke="none"/><rect x="0.75" y="0.75" width="29.5" height="19.5" fill="none"/></g><g transform="translate(684 1317)" fill="#fff" stroke="#001650" stroke-width="1.5"><rect width="32" height="21" stroke="none"/><rect x="0.75" y="0.75" width="30.5" height="19.5" fill="none"/></g></g></g><path d="M7.634-1.287V-.7c0,.154.011.176.143.176.33.011.682.011,1.012,0C8.943-.528,9-.561,9-.715c-.022-.594-.055-1.133-.055-2.09V-5.434c0-.649.011-1.243.011-1.782.011-.165-.022-.22-.143-.22-.517.022-1.353.022-2.068.022H4.125c-.737,0-1.386,0-1.969-.033-.077,0-.121.044-.121.154.033.638.022,1.232.022,1.826v2.695c0,.836-.022,1.617-.033,2.189-.011.132.044.154.231.165.275.011.594.011.869,0,.2-.011.242-.033.242-.22v-.649Zm0-1.166H3.355v-3.8H7.634Zm10.373.286H14.234c-.869,0-1.507-.022-2.024-.055a10.429,10.429,0,0,0,.055,1.144c.011.121.055.165.154.165.528-.011,1.111-.044,1.8-.044h3.784v.44c0,.165.033.176.209.187a7.107,7.107,0,0,0,.968,0c.154-.011.2-.044.2-.154-.011-.308-.044-1.188-.044-1.991V-5.1c0-.583.022-1.155.022-1.738.011-.143-.044-.187-.22-.187-.583.022-1.166.044-1.738.044H14.135A15.736,15.736,0,0,1,12.3-7.062c0,.363.022.88.055,1.177,0,.132.044.187.165.187a15.138,15.138,0,0,1,1.65-.066h3.839Zm.66-6.028a5.458,5.458,0,0,1,1.111,1.276.115.115,0,0,0,.187.033l.462-.341A.111.111,0,0,0,20.46-7.4,5.063,5.063,0,0,0,19.415-8.58c-.066-.055-.11-.066-.165-.022Zm1.012-.726a5.2,5.2,0,0,1,1.1,1.265.113.113,0,0,0,.187.033l.44-.341a.127.127,0,0,0,.033-.2A4.594,4.594,0,0,0,20.394-9.3c-.066-.055-.1-.066-.165-.022Zm4.378,1.232h-.7l.066-.231a.908.908,0,0,1,.11-.319.341.341,0,0,0,.077-.187c0-.066-.033-.1-.165-.132a8.978,8.978,0,0,0-.957-.209,2.738,2.738,0,0,1-.055.517A5.964,5.964,0,0,1,21.582-6.3a2.656,2.656,0,0,1,.671.319.616.616,0,0,0,.264.132c.077,0,.121-.077.2-.242q.149-.28.3-.627h1.045v1h-.924c-1.023,0-1.375-.022-1.441-.022-.11,0-.121.011-.121.121v.781c0,.121.011.132.121.132.066,0,.418-.022,1.441-.022h.924v.946h-.528c-.957,0-1.287-.022-1.364-.022-.11,0-.121.011-.121.121,0,.077.022.341.022,1v1.441c0,.715-.022,1.012-.022,1.089,0,.11.011.121.121.121h.88c.11,0,.121-.011.121-.121,0-.066-.022-.374-.022-1.034V-2.816h.913v1.463c0,1.353-.022,2.024-.022,2.1,0,.1.011.11.121.11h.891c.11,0,.121-.011.121-.11,0-.066-.022-.759-.022-2.112V-2.816h.968V-1.3c0,.209-.077.275-.253.275a4.448,4.448,0,0,1-.484-.033,2.075,2.075,0,0,1,.242.693c.055.319.055.33.4.33a1.472,1.472,0,0,0,.924-.209.787.787,0,0,0,.253-.7c0-.3-.022-.627-.022-1.243v-.385c0-.7.022-1.045.022-1.111,0-.11-.011-.121-.121-.121-.077,0-.4.022-1.353.022h-.572V-4.73h.737c1.023,0,1.364.022,1.43.022.11,0,.121-.011.121-.132v-.781c0-.11-.011-.121-.121-.121-.066,0-.407.022-1.43.022h-.737v-1h.528c.869,0,1.155.022,1.221.022.11,0,.121-.011.121-.121v-.77c0-.11-.011-.121-.121-.121-.066,0-.352.022-1.221.022h-.528v-.374a1.448,1.448,0,0,1,.066-.605.689.689,0,0,0,.077-.242c0-.066-.066-.11-.165-.11-.352-.044-.726-.066-1.144-.077a5.635,5.635,0,0,1,.077,1.045Zm7.084.2A3.773,3.773,0,0,1,31.207-8.6a.523.523,0,0,0,.077-.231c0-.055-.066-.11-.187-.121A10.124,10.124,0,0,0,29.92-9.02a9,9,0,0,1,.088,1.551V-.814c0,.352-.11.429-.473.429a8.506,8.506,0,0,1-1.056-.066A3.161,3.161,0,0,1,28.8.407c.077.352.077.352.407.352.968,0,1.265-.077,1.573-.286s.4-.583.4-1.122-.033-1.43-.033-2.2ZM27.929-3.564c0,.935-.022,1.386-.022,1.452,0,.11.011.121.121.121h.88c.121,0,.132-.011.132-.121,0-.066-.022-.517-.022-1.452V-6.6a7.507,7.507,0,0,1,.033-1.177.889.889,0,0,0,.077-.242c0-.066-.055-.11-.165-.121-.374-.044-.726-.066-1.111-.077a11.591,11.591,0,0,1,.077,1.628Zm9.823-2.673V-.968c0,1.1-.022,1.65-.022,1.716,0,.11.011.121.121.121h.935c.11,0,.121-.011.121-.121,0-.055-.022-.616-.022-1.716v-.605h1.408c.88,0,1.177.022,1.243.022.11,0,.121-.011.121-.132V-2.5c0-.1-.011-.11-.121-.11-.066,0-.363.022-1.243.022H38.885V-3.927h1.408c.869,0,1.155.022,1.221.022.11,0,.121-.011.121-.121v-.8c0-.11-.011-.121-.121-.121-.066,0-.352.022-1.221.022H38.885V-6.237h1.793c.979,0,1.309.022,1.364.022.121,0,.132-.011.132-.132v-.8c0-.121-.011-.132-.132-.132-.055,0-.385.022-1.364.022H37.807c.132-.275.242-.55.341-.814a1.407,1.407,0,0,1,.286-.539.253.253,0,0,0,.1-.209c0-.077-.077-.132-.209-.165-.341-.1-.682-.165-1.089-.242a4.059,4.059,0,0,1-.176.836,10.194,10.194,0,0,1-2.013,3.432,2.541,2.541,0,0,1,.528.671c.088.154.143.22.209.22s.11-.055.209-.176a12.759,12.759,0,0,0,1.32-1.991Zm-4.136,5.3c0,1.078-.022,1.606-.022,1.672,0,.11.011.121.121.121h.935c.11,0,.121-.011.121-.121,0-.055-.022-.594-.022-1.672V-6.666A15.424,15.424,0,0,0,35.4-8.118c.11-.308.165-.4.242-.462s.11-.121.11-.2-.044-.11-.176-.165c-.308-.121-.671-.209-1.067-.319a3.976,3.976,0,0,1-.2.792,10.151,10.151,0,0,1-2.233,3.619,2.688,2.688,0,0,1,.407.957c.033.132.077.187.143.187.044,0,.11-.044.187-.132a10.655,10.655,0,0,0,.825-1.012c-.011.484-.022.979-.022,1.386Z" transform="translate(843.978 1349.344)" fill="#001650"/><g transform="translate(19 -24.9)"><g transform="translate(840 1324)" fill="#fff" stroke="#001650" stroke-width="1.5"><rect width="27" height="23" stroke="none"/><rect x="0.75" y="0.75" width="25.5" height="21.5" fill="none"/></g><g transform="translate(826 1312)" fill="#fff" stroke="#001650" stroke-width="1.5"><circle cx="13.5" cy="13.5" r="13.5" stroke="none"/><circle cx="13.5" cy="13.5" r="12.75" fill="none"/></g><g transform="translate(7445 1294)" fill="#001650"><path d="M -6604.25048828125 44.19010925292969 L -6604.25048828125 30.7503719329834 L -6592.77197265625 30.7503719329834 C -6592.75732421875 31.00092506408691 -6592.75 31.25156402587891 -6592.75 31.50039100646973 C -6592.75 34.82366180419922 -6594.021484375 37.96969985961914 -6596.330078125 40.35898208618164 C -6598.45166015625 42.55470657348633 -6601.240234375 43.89793395996094 -6604.25048828125 44.19010925292969 Z" stroke="none"/><path d="M -6603.50048828125 31.50037384033203 L -6603.50048828125 43.33503723144531 C -6600.984375 42.91424942016602 -6598.67138671875 41.70274353027344 -6596.86962890625 39.83781433105469 C -6594.69677734375 37.58912658691406 -6593.5 34.62816619873047 -6593.5 31.50038528442383 C -6593.5 31.50038528442383 -6593.5 31.50038528442383 -6593.5 31.50037384033203 L -6603.50048828125 31.50037384033203 M -6605.00048828125 30.00037384033203 L -6592.08251953125 30.00037384033203 C -6592.0283203125 30.49286651611328 -6592 30.99336624145508 -6592 31.50038528442383 C -6592 38.78818511962891 -6597.775390625 44.72824478149414 -6605.00048828125 44.99141693115234 L -6605.00048828125 30.00037384033203 Z" stroke="none" fill="#001650"/></g></g><g transform="translate(-6)"><path d="M.484-1.76a3.052,3.052,0,0,1,.968.473.37.37,0,0,0,.253.11.415.415,0,0,0,.308-.165,12.12,12.12,0,0,0,2.354-3.7,2.108,2.108,0,0,1,.385-.671.326.326,0,0,0,.11-.22.189.189,0,0,0-.132-.176,10.873,10.873,0,0,0-1.364-.561,5.5,5.5,0,0,1-.495,1.628A9.744,9.744,0,0,1,.484-1.76ZM6.105-5.94A14.383,14.383,0,0,1,8.822-1.661c.044.143.121.165.264.1A6.651,6.651,0,0,0,10-2.145a.213.213,0,0,0,.11-.176.275.275,0,0,0-.044-.154A13.825,13.825,0,0,0,7.3-6.512.224.224,0,0,0,7.139-6.6a.262.262,0,0,0-.154.066C6.8-6.413,6.5-6.2,6.105-5.94ZM7.689-7.447A5.458,5.458,0,0,1,8.8-6.171a.115.115,0,0,0,.187.033l.462-.341a.111.111,0,0,0,.033-.176A5.063,5.063,0,0,0,8.437-7.832c-.066-.055-.11-.066-.165-.022ZM8.7-8.173A5.2,5.2,0,0,1,9.8-6.908a.113.113,0,0,0,.187.033l.44-.341a.127.127,0,0,0,.033-.2A4.594,4.594,0,0,0,9.416-8.547c-.066-.055-.1-.066-.165-.022Zm8.239,2.2c.011-.627.011-.99.011-1.507a2.063,2.063,0,0,1,.088-.671.668.668,0,0,0,.077-.242c0-.077-.044-.121-.165-.154A8.291,8.291,0,0,0,15.488-8.7,4.741,4.741,0,0,1,15.62-7.59c.011.484.011,1.078.011,1.628H13.464c-.539,0-1.155,0-1.87-.055.022.407.044.869.077,1.089.022.165.055.22.2.209.418-.011,1.045-.055,1.584-.055h2.123a4.726,4.726,0,0,1-.671,2.541,5.567,5.567,0,0,1-2.5,1.991,3.06,3.06,0,0,1,.924.605.328.328,0,0,0,.242.11A.452.452,0,0,0,13.827.4,6.1,6.1,0,0,0,16.17-1.771a5.756,5.756,0,0,0,.748-3H18.48c.616,0,1.452.044,1.848.044.165,0,.209-.033.209-.209a5.585,5.585,0,0,0,0-.858c-.011-.187-.055-.209-.209-.2-.572.011-1.3.022-1.914.022ZM28.27-3.4c.814,0,1.628.011,2.453.022.154.011.2-.033.2-.165a8.108,8.108,0,0,0,0-1.034c0-.132-.033-.165-.2-.154-.847.011-1.694.033-2.53.033H24.651a14.132,14.132,0,0,1-2.376-.132A11.938,11.938,0,0,0,22.44-3.5c.033.165.121.231.253.231A8.8,8.8,0,0,1,24.31-3.4Z" transform="translate(513.517 1348.701)" fill="#001650"/><g transform="translate(537 1299.1)" fill="#fff" stroke="#001650" stroke-width="1.5"><rect width="17" height="11" stroke="none"/><rect x="0.75" y="0.75" width="15.5" height="9.5" fill="none"/></g><g transform="translate(505 1299.1)" fill="#fff" stroke="#001650" stroke-width="1.5"><rect width="17" height="11" stroke="none"/><rect x="0.75" y="0.75" width="15.5" height="9.5" fill="none"/></g><g transform="translate(517 1296.1)" fill="#fff" stroke="#001650" stroke-width="1.5"><rect width="25" height="17" stroke="none"/><rect x="0.75" y="0.75" width="23.5" height="15.5" fill="none"/></g><g transform="translate(544 1299.1)" fill="#fff" stroke="#001650" stroke-width="1.5"><rect width="17" height="11" stroke="none"/><rect x="0.75" y="0.75" width="15.5" height="9.5" fill="none"/></g><g transform="translate(498 1299.1)" fill="#fff" stroke="#001650" stroke-width="1.5"><rect width="17" height="11" stroke="none"/><rect x="0.75" y="0.75" width="15.5" height="9.5" fill="none"/></g></g></g></svg>