<svg xmlns="http://www.w3.org/2000/svg" width="521.333" height="64.829" viewBox="0 0 521.333 64.829"><g transform="translate(-378.023 -2186.316)"><g transform="translate(0 -1134)"><g transform="translate(0 1118.316)"><path d="M7.524-8.514H6.05v3.476H2.5V-8.514H1.023V.022H2.5v-3.85H6.05V.022H7.524Zm7.48,0H8.448v1.2h2.519V.022h1.5V-7.315H15Zm9.35,0h-2.42L20.845-4.136c-.253.979-.429,1.859-.66,2.794h-.154c-.176-.935-.4-1.925-.616-2.816L18.337-8.514H15.928V.022h1.309v-4.29c0-1.056-.011-2.046-.033-3.036h.154c.253,1.045.462,1.969.726,2.959L19.206.022h1.738L22.1-4.4c.286-1.045.484-1.925.7-2.9h.154c-.011,1.012-.022,1.947-.022,3.014V.022h1.419Zm3.1,0h-1.5V.022h5.5v-1.2h-4ZM40.4-4.235a4.59,4.59,0,0,1-.495,2.156,28.046,28.046,0,0,1-1.881-2.475c1.43-.418,2.024-1.078,2.024-2.134a1.851,1.851,0,0,0-2.1-1.826,1.964,1.964,0,0,0-2.156,1.925,2.852,2.852,0,0,0,.627,1.716,2.57,2.57,0,0,0-1.815,2.486A2.583,2.583,0,0,0,37.466.176,3.272,3.272,0,0,0,39.721-.55a2.055,2.055,0,0,0,1.793.715h.374l.275-.99a1.638,1.638,0,0,1-1.54-.583,4.637,4.637,0,0,0,.946-2.574Zm-3.52.088a24.449,24.449,0,0,0,2.189,2.9,1.963,1.963,0,0,1-1.331.44,1.753,1.753,0,0,1-1.848-1.76A1.639,1.639,0,0,1,36.883-4.147Zm.682-1.122a2.386,2.386,0,0,1-.528-1.364.915.915,0,0,1,.913-.957.843.843,0,0,1,.869.891C38.819-6.017,38.511-5.588,37.565-5.269Zm14.6-.8a3.1,3.1,0,0,0-3.245-2.6c-2.2,0-3.707,1.606-3.707,4.433S46.706.176,48.917.176a3.05,3.05,0,0,0,3.289-2.541l-1.4-.429c-.242,1.243-.858,1.826-1.881,1.826-1.243,0-2.145-1.111-2.145-3.278s.88-3.278,2.145-3.278c.968,0,1.584.616,1.793,1.8ZM58.7-6.534a2.889,2.889,0,0,0-3-2.123c-1.837,0-2.849,1.045-2.849,2.332,0,1.309.583,2.024,2.4,2.563l.44.132c1.4.4,1.661.737,1.661,1.474S56.837-.935,55.715-.935a1.759,1.759,0,0,1-1.771-1.54l-1.419.451A2.993,2.993,0,0,0,55.748.187c2.046,0,3.08-1.034,3.08-2.53,0-1.254-.55-1.991-2.5-2.519l-.451-.132c-1.232-.341-1.562-.682-1.562-1.43,0-.682.517-1.111,1.419-1.111.792,0,1.3.473,1.518,1.4Zm6.809,0a2.889,2.889,0,0,0-3-2.123c-1.837,0-2.849,1.045-2.849,2.332,0,1.309.583,2.024,2.4,2.563l.44.132c1.4.4,1.661.737,1.661,1.474S63.646-.935,62.524-.935a1.759,1.759,0,0,1-1.771-1.54l-1.419.451A2.993,2.993,0,0,0,62.557.187c2.046,0,3.08-1.034,3.08-2.53,0-1.254-.55-1.991-2.5-2.519l-.451-.132c-1.232-.341-1.562-.682-1.562-1.43,0-.682.517-1.111,1.419-1.111.792,0,1.3.473,1.518,1.4Z" transform="translate(377 2265.684)" fill="#001650"/><g transform="translate(391 2205.953)" fill="#fff" stroke="#001650" stroke-width="1.5"><rect width="38" height="25" stroke="none"/><rect x="0.75" y="0.75" width="36.5" height="23.5" fill="none"/></g><line x2="21" transform="translate(399 2233.338)" fill="none" stroke="#000" stroke-width="1"/><g transform="translate(399 2213)" fill="#fff" stroke="#001650" stroke-width="1.5"><rect width="21" height="18" stroke="none"/><rect x="0.75" y="0.75" width="19.5" height="16.5" fill="none"/></g><g transform="translate(399 2213)" fill="#fff" stroke="#001650" stroke-width="1.5"><rect width="21" height="11" stroke="none"/><rect x="0.75" y="0.75" width="19.5" height="9.5" fill="none"/></g></g><g transform="translate(0 1118.316)"><path d="M3.641-8.514H2.156v6.149c0,.957-.473,1.408-1.166,1.408a5.719,5.719,0,0,1-.781-.066L.264.132c.308.022.572.044.814.044,1.5,0,2.563-.671,2.563-2.4ZM6.248-4.147A1.151,1.151,0,0,1,7.4-5.2c.726,0,1.045.308,1.045,1.067V-3.8a11.592,11.592,0,0,0-1.727.176c-1.309.253-1.969.935-1.969,1.991A1.716,1.716,0,0,0,6.611.165a2.262,2.262,0,0,0,1.9-.935c.033.352.055.528.1.792H9.889a16.017,16.017,0,0,1-.1-1.782v-2.4c0-1.342-.781-2-2.343-2A2.321,2.321,0,0,0,4.95-4.5Zm2.2,2.332a1.647,1.647,0,0,1-1.408.99.855.855,0,0,1-.968-.913c0-.539.341-.869.99-1.023a6.283,6.283,0,0,1,1.386-.176Zm7.381-4.2H14.476l-.649,2.486c-.231.847-.385,1.562-.6,2.387H13.09c-.2-.836-.341-1.529-.55-2.354l-.627-2.519H10.428L12.3.022h1.639Zm1.8,1.87A1.151,1.151,0,0,1,18.788-5.2c.726,0,1.045.308,1.045,1.067V-3.8a11.592,11.592,0,0,0-1.727.176c-1.309.253-1.969.935-1.969,1.991A1.716,1.716,0,0,0,18,.165,2.262,2.262,0,0,0,19.9-.77c.033.352.055.528.1.792h1.276a16.017,16.017,0,0,1-.1-1.782v-2.4c0-1.342-.781-2-2.343-2a2.321,2.321,0,0,0-2.5,1.661Zm2.2,2.332a1.647,1.647,0,0,1-1.408.99.855.855,0,0,1-.968-.913c0-.539.341-.869.99-1.023a6.283,6.283,0,0,1,1.386-.176Zm7-2.794a2.238,2.238,0,0,0-2.365-1.54c-1.474,0-2.266.748-2.266,1.716,0,1.012.462,1.485,1.771,1.837l.506.143c.957.275,1.166.407,1.166.9,0,.44-.308.781-1.1.781a1.274,1.274,0,0,1-1.265-1.012l-1.287.451A2.357,2.357,0,0,0,24.508.176c1.639,0,2.442-.781,2.442-1.859,0-.979-.5-1.474-1.87-1.837l-.506-.132c-.88-.231-1.078-.429-1.078-.9,0-.363.352-.649.946-.649a1.08,1.08,0,0,1,1.078.968Zm5.885.385a2.306,2.306,0,0,0-2.442-1.925c-1.683,0-2.739,1.21-2.739,3.179S28.556.176,30.272.176a2.343,2.343,0,0,0,2.475-1.925L31.46-2.1c-.132.836-.506,1.265-1.155,1.265-.891,0-1.353-.759-1.353-2.156s.462-2.145,1.353-2.145c.561,0,.935.385,1.067,1.221ZM36.7-6.149c-.814,0-1.441.429-1.87,1.617V-6.017h-1.3V.022h1.364V-3.322c.385-1.056.99-1.529,1.716-1.529Zm2.079.132H37.389V.022h1.386Zm.055-2.5h-1.5v1.419h1.5Zm2.607,2.5H40.106V2.145h1.375V-.825a1.712,1.712,0,0,0,1.584.99c1.3,0,2.365-1.133,2.365-3.2s-.979-3.113-2.3-3.113a2,2,0,0,0-1.694,1.023Zm.044,1.969a1.456,1.456,0,0,1,1.3-1.023c.693,0,1.232.616,1.232,2.068S43.428-.9,42.7-.9a1.42,1.42,0,0,1-1.221-1.012Zm6.578-3.938-1.364.308v1.661h-.9v1.012h.9v3.564c0,1.111.539,1.606,1.683,1.606A7.268,7.268,0,0,0,49.456.1l.055-.99a3.169,3.169,0,0,1-.7.066c-.506,0-.748-.264-.748-.869V-5.005h1.353V-6.017H48.059Z" transform="translate(509 2264.684)" fill="#001650"/><g transform="translate(1.999 -70)"><g transform="translate(532 2281)" fill="#fff"><path d="M 21.25 15.25 L 4.416500091552734 15.25 L 4.416500091552734 12.17360019683838 L 4.416500091552734 11.49053955078125 L 3.736409902572632 11.42687034606934 C 2.928550004959106 11.35122966766357 2.178420066833496 10.96442985534668 1.624220013618469 10.33769989013672 C 1.06046998500824 9.700169563293457 0.75 8.870189666748047 0.75 8.000630378723145 C 0.75 7.130519866943359 1.060490012168884 6.300129890441895 1.624269962310791 5.66241979598999 C 2.178420066833496 5.035610198974609 2.928529977798462 4.648759841918945 3.736409902572632 4.5731201171875 L 4.416500091552734 4.50944995880127 L 4.416500091552734 3.826390027999878 L 4.416500091552734 0.75 L 21.25 0.75 L 21.25 15.25 Z" stroke="none"/><path d="M 20.5 14.5 L 20.5 1.5 L 5.166500091552734 1.5 L 5.166500091552734 5.192520141601562 L 3.806319952011108 5.319859981536865 C 2.513060092926025 5.440929889678955 1.5 6.618470191955566 1.5 8.000630378723145 C 1.5 9.382080078125 2.513060092926025 10.55906009674072 3.806319952011108 10.68013000488281 L 5.166500091552734 10.80747032165527 L 5.166500091552734 14.5 L 20.5 14.5 M 22 16 L 3.666500091552734 16 L 3.666500091552734 12.17360019683838 C 1.61083996295929 11.98114967346191 -1.77635683940025e-15 10.18616008758545 -1.77635683940025e-15 8.000630378723145 C -1.77635683940025e-15 5.813910007476807 1.61083996295929 4.018839836120605 3.666500091552734 3.826390027999878 L 3.666500091552734 0 L 22 0 L 22 16 Z" stroke="none" fill="#001650"/></g><g transform="translate(511 2281)" fill="#fff"><path d="M 18.25048828125 15.25 L 0.75048828125 15.25 L 0.75048828125 0.75 L 18.25048828125 0.75 L 18.25048828125 3.837189912796021 C 16.12326431274414 4.025408744812012 14.44970798492432 5.820824146270752 14.44970798492432 8.000630378723145 C 14.44970798492432 10.17978382110596 16.12326431274414 11.97465324401855 18.25048828125 12.16281509399414 L 18.25048828125 15.25 Z" stroke="none"/><path d="M 17.50048828125 14.5 L 17.50048828125 12.80032920837402 C 15.32498455047607 12.29116725921631 13.69970798492432 10.33240127563477 13.69970798492432 8.000630378723145 C 13.69970798492432 5.668266773223877 15.32498455047607 3.708997249603271 17.50048828125 3.199703693389893 L 17.50048828125 1.5 L 1.50048828125 1.5 L 1.50048828125 14.5 L 17.50048828125 14.5 M 19.00048828125 16 L 0.00048828125 16 L 0.00048828125 0 L 19.00048828125 0 L 19.00048828125 4.591879844665527 C 18.8769588470459 4.578199863433838 18.74950790405273 4.570879936218262 18.62060737609863 4.570879936218262 C 16.73437881469727 4.570879936218262 15.19970798492432 6.10945987701416 15.19970798492432 8.000630378723145 C 15.19970798492432 9.89109992980957 16.73437881469727 11.42912006378174 18.62060737609863 11.42912006378174 C 18.74706840515137 11.42912006378174 18.87499809265137 11.42205047607422 19.00048828125 11.40812015533447 L 19.00048828125 16 Z" stroke="none" fill="#001650"/></g></g></g><g transform="translate(0 1118.316)"><path d="M8.294-6.743A7.824,7.824,0,0,1,6.325-4.818a2.537,2.537,0,0,1,.913.451.43.43,0,0,0,.264.11.317.317,0,0,0,.231-.1A9.353,9.353,0,0,0,9.669-6.479a1.366,1.366,0,0,1,.3-.319.287.287,0,0,0,.154-.231.319.319,0,0,0-.088-.2,5.638,5.638,0,0,0-.66-.693.374.374,0,0,0-.253-.154A.8.8,0,0,0,8.91-8a2.317,2.317,0,0,1-.759.066H3.432c-.88,0-1.485-.022-2.233-.077A10.292,10.292,0,0,0,1.4-6.82c.022.1.066.176.2.165.649-.044,1.32-.088,1.947-.088ZM1.859-.352a3.1,3.1,0,0,1,1,.561.311.311,0,0,0,.22.1A.553.553,0,0,0,3.388.2a5.726,5.726,0,0,0,2-2.189,6.724,6.724,0,0,0,.649-3.025,1.006,1.006,0,0,1,.1-.451.448.448,0,0,0,.055-.2c0-.1-.044-.176-.187-.209a12.211,12.211,0,0,0-1.419-.209A3.977,3.977,0,0,1,4.7-5.049a5.086,5.086,0,0,1-.539,2.6A4.871,4.871,0,0,1,1.859-.352ZM17.006-5.775c.7,0,1.408.011,1.925.033.11,0,.132-.055.143-.209a7.269,7.269,0,0,0,0-.979c0-.132-.033-.187-.121-.187-.473.022-1.133.055-1.98.055H14.8c-.66,0-1.177-.011-1.87-.066a7.414,7.414,0,0,0,.066,1.166c.011.165.044.231.154.231.506-.022.99-.044,1.683-.044ZM17.93-1.1c.748,0,1.881.011,2.409.033.143,0,.165-.066.165-.231a6.947,6.947,0,0,0,0-.957c0-.143-.033-.2-.176-.2-.506.022-1.254.055-2.475.055h-4c-.693,0-1.485-.011-2.277-.066.033.583.055.957.1,1.21.022.143.055.209.165.209.539-.044,1.265-.055,1.98-.055Zm9.053-4.081a16.391,16.391,0,0,0-1.914-1.155.313.313,0,0,0-.132-.044.153.153,0,0,0-.11.055c-.143.154-.407.495-.726.9a12.068,12.068,0,0,1,2.145,1.309A13.438,13.438,0,0,1,22.1-.506a3.2,3.2,0,0,1,.99.6A.309.309,0,0,0,23.3.176a.5.5,0,0,0,.253-.088,14.438,14.438,0,0,0,3.762-3.432,11.247,11.247,0,0,1,1.441,1.452c.055.066.1.1.154.1a.17.17,0,0,0,.132-.077c.231-.253.451-.5.671-.781a.293.293,0,0,0,.055-.143.238.238,0,0,0-.066-.154,12.784,12.784,0,0,0-1.617-1.5,21.6,21.6,0,0,0,1.254-2.178,2.4,2.4,0,0,1,.495-.737.324.324,0,0,0,.121-.242.23.23,0,0,0-.11-.187,5.375,5.375,0,0,0-1.386-.693,5.117,5.117,0,0,1-.418,1.353A13.026,13.026,0,0,1,26.983-5.181ZM38.83-3.4c.814,0,1.628.011,2.453.022.154.011.2-.033.2-.165a8.108,8.108,0,0,0,0-1.034c0-.132-.033-.165-.2-.154-.847.011-1.694.033-2.53.033H35.211a14.132,14.132,0,0,1-2.376-.132A11.939,11.939,0,0,0,33-3.5c.033.165.121.231.253.231A8.8,8.8,0,0,1,34.87-3.4Zm4.5-1.386a9.645,9.645,0,0,1,2.222,1.2.213.213,0,0,0,.132.066c.044,0,.088-.044.143-.11a4.479,4.479,0,0,0,.484-.836.326.326,0,0,0,.044-.121c0-.066-.044-.11-.121-.165A7.634,7.634,0,0,0,44.121-5.83c-.1-.022-.154.033-.209.11C43.78-5.544,43.6-5.225,43.329-4.785ZM44.66-7.37a10.639,10.639,0,0,1,2.134,1.353.283.283,0,0,0,.165.077.122.122,0,0,0,.11-.066,4.708,4.708,0,0,0,.561-.825.266.266,0,0,0,.044-.143.174.174,0,0,0-.088-.143,7.478,7.478,0,0,0-2.068-1.221c-.132-.066-.2-.044-.275.088C45.056-7.964,44.847-7.656,44.66-7.37ZM44.2-1.1A6.947,6.947,0,0,0,45.012.022a.283.283,0,0,0,.22.132.244.244,0,0,0,.176-.088,3.614,3.614,0,0,1,.638-.374,25.538,25.538,0,0,0,3.289-2.068,20.494,20.494,0,0,0,2.794-2.541.342.342,0,0,0,.121-.253.538.538,0,0,0-.055-.209,5.494,5.494,0,0,1-.319-1.232,20.017,20.017,0,0,1-3.168,3.069,18.426,18.426,0,0,1-3.014,1.9A5.086,5.086,0,0,1,44.2-1.1ZM59.807-3.465H57.453c-.715,0-1.122-.011-1.716-.055a6.268,6.268,0,0,0,.044.88c.011.176.055.242.187.242.473-.022,1.012-.044,1.507-.044h2.332V-1.21H57.244c-.638,0-1.177,0-1.771-.044a6.514,6.514,0,0,0,.055.913c.011.165.044.22.154.22.506-.033,1-.055,1.518-.055h2.607v.33c0,.132.022.165.2.165.22,0,.572-.011.748-.022s.242-.044.242-.209c-.022-.561-.044-1.067-.044-1.562V-4.015c0-.484.022-.946.022-1.441.011-.11-.033-.176-.165-.176-.484.022-1.089.022-1.628.022H57.266a17.118,17.118,0,0,1-1.76-.055c.022.418.033.627.055.9.011.176.066.264.165.253.5-.011,1.023-.066,1.54-.066h2.541Zm5.027-3.388A11.644,11.644,0,0,1,67.078-5.06c.055.055.1.088.143.088s.077-.033.132-.088c.154-.165.517-.605.682-.825a.237.237,0,0,0,.066-.143c0-.044-.033-.088-.1-.154a11.47,11.47,0,0,0-2.1-1.562.293.293,0,0,0-.143-.055.206.206,0,0,0-.154.088C65.4-7.491,65.076-7.15,64.834-6.853Zm.242,5.489a7.622,7.622,0,0,0,.88,1.221.285.285,0,0,0,.187.121.3.3,0,0,0,.2-.11,3.8,3.8,0,0,1,.737-.506A23.651,23.651,0,0,0,70.4-2.794a17.98,17.98,0,0,0,2.53-2.332c.121-.143.176-.231.176-.33a.538.538,0,0,0-.055-.209,4.91,4.91,0,0,1-.308-1.287A16.526,16.526,0,0,1,69.729-3.96a16.305,16.305,0,0,1-3.168,2.046A6.627,6.627,0,0,1,65.076-1.364Z" transform="translate(608 2265.684)" fill="#001650"/><g transform="translate(-1)"><g transform="translate(647 2207)" fill="#fff" stroke="#001650" stroke-width="1.5" stroke-dasharray="1" opacity="0.226"><circle cx="12" cy="12" r="12" stroke="none"/><circle cx="12" cy="12" r="11.25" fill="none"/></g><g transform="translate(633 2207)" fill="#fff" stroke="#001650" stroke-width="1.5" stroke-dasharray="1"><circle cx="12" cy="12" r="12" stroke="none"/><circle cx="12" cy="12" r="11.25" fill="none"/></g><g transform="translate(621 2207)" fill="#fff" stroke="#001650" stroke-width="1.5"><circle cx="12" cy="12" r="12" stroke="none"/><circle cx="12" cy="12" r="11.25" fill="none"/></g></g></g><g transform="translate(0 1118.316)"><path d="M-29.194-6.259a9.259,9.259,0,0,1-1.859,3.135,10.631,10.631,0,0,1-3.6,2.75,3.271,3.271,0,0,1,1.023.605.386.386,0,0,0,.275.121.532.532,0,0,0,.3-.1,12.335,12.335,0,0,0,3.124-2.618A12.954,12.954,0,0,0-27.8-5.94a1.324,1.324,0,0,1,.253-.429.3.3,0,0,0,.11-.209.375.375,0,0,0-.088-.22,4.054,4.054,0,0,0-.748-.759.258.258,0,0,0-.187-.077.351.351,0,0,0-.187.066,1.052,1.052,0,0,1-.6.11h-3.927a19.248,19.248,0,0,1-2.112-.077c.022.319.066.891.1,1.111.022.154.066.231.209.22.473-.022,1.1-.055,1.815-.055Zm2.442-3.289A1.16,1.16,0,0,0-27.94-8.371a1.174,1.174,0,0,0,1.188,1.177,1.174,1.174,0,0,0,1.188-1.177A1.174,1.174,0,0,0-26.752-9.548Zm0,.528a.63.63,0,0,1,.649.649.63.63,0,0,1-.649.649.63.63,0,0,1-.649-.649A.63.63,0,0,1-26.752-9.02Zm7.986,7.733V-.7c0,.154.011.176.143.176.33.011.682.011,1.012,0,.154,0,.209-.033.209-.187-.022-.594-.055-1.133-.055-2.09V-5.434c0-.649.011-1.243.011-1.782.011-.165-.022-.22-.143-.22-.517.022-1.353.022-2.068.022h-2.618c-.737,0-1.386,0-1.969-.033-.077,0-.121.044-.121.154.033.638.022,1.232.022,1.826v2.695c0,.836-.022,1.617-.033,2.189-.011.132.044.154.231.165.275.011.594.011.869,0,.2-.011.242-.033.242-.22v-.649Zm0-1.166h-4.279v-3.8h4.279Zm8.217-4.477c.132-.2.242-.363.363-.55a1.194,1.194,0,0,1,.275-.3.219.219,0,0,0,.121-.187.23.23,0,0,0-.11-.187,5.411,5.411,0,0,0-1.287-.583,4.7,4.7,0,0,1-.649,1.485A13.048,13.048,0,0,1-14.8-3.982a2.984,2.984,0,0,1,1.056.473.264.264,0,0,0,.165.066.342.342,0,0,0,.231-.121,15.32,15.32,0,0,0,2.079-2.255L-8.6-5.9a11.207,11.207,0,0,1-2.035,3.124A12.672,12.672,0,0,1-14.3.033a2.9,2.9,0,0,1,1.045.506A.388.388,0,0,0-13,.66a.3.3,0,0,0,.176-.055A13.972,13.972,0,0,0-9.482-2.134,15.161,15.161,0,0,0-7.3-5.533a1.325,1.325,0,0,1,.363-.473.317.317,0,0,0,.132-.231.356.356,0,0,0-.143-.253A5.074,5.074,0,0,0-7.7-7.084a.319.319,0,0,0-.176-.066.221.221,0,0,0-.143.044,1.021,1.021,0,0,1-.55.132Zm2.761-1.122A5.458,5.458,0,0,1-6.677-6.776a.115.115,0,0,0,.187.033l.462-.341A.111.111,0,0,0-6-7.26,5.063,5.063,0,0,0-7.04-8.437c-.066-.055-.11-.066-.165-.022Zm1.012-.726a5.2,5.2,0,0,1,1.1,1.265.113.113,0,0,0,.187.033l.44-.341a.127.127,0,0,0,.033-.2A4.594,4.594,0,0,0-6.061-9.152c-.066-.055-.1-.066-.165-.022ZM1-7.194c.671,0,1.188.022,1.551.022.165.011.2-.033.2-.22a5.585,5.585,0,0,0,0-.858c0-.121-.033-.176-.132-.176-.429.022-1.012.055-1.727.055h-1.98a15.155,15.155,0,0,1-1.8-.077,9.587,9.587,0,0,0,.055,1.056c.011.176.044.242.154.242.462-.033,1.012-.044,1.507-.044ZM1.837-4.84A8.578,8.578,0,0,1-2.783-.253,3.225,3.225,0,0,1-1.76.319a.359.359,0,0,0,.242.132A.528.528,0,0,0-1.3.374,9.615,9.615,0,0,0,3.19-4.488a1.26,1.26,0,0,1,.374-.517.265.265,0,0,0,.121-.209.324.324,0,0,0-.11-.231,6.492,6.492,0,0,0-.737-.682A.283.283,0,0,0,2.673-6.2a.237.237,0,0,0-.143.066,1.21,1.21,0,0,1-.583.121H-1.826A19.467,19.467,0,0,1-3.85-6.105a8.339,8.339,0,0,0,.121,1.111c.022.143.066.209.165.209.55-.033,1.1-.044,1.65-.044ZM9.031-8.646a5.866,5.866,0,0,1-.319,1.507C8.14-5.291,7.568-3.663,6.787-1.694c-.44.011-.9.022-1.342-.011A10.249,10.249,0,0,0,5.83-.286c.055.154.176.176.319.11A3.7,3.7,0,0,1,7.436-.44c1.793-.187,3.465-.374,5.225-.638.132.286.253.572.385.88.033.1.088.154.154.154a.293.293,0,0,0,.132-.033,5.539,5.539,0,0,0,.836-.451c.1-.055.143-.121.143-.187a.266.266,0,0,0-.044-.143,15.469,15.469,0,0,0-2.222-3.6c-.077-.088-.143-.132-.264-.066-.308.165-.627.352-.957.528a10.965,10.965,0,0,1,1.221,1.76c-1.232.187-2.156.275-3.85.418.693-1.65,1.276-3.267,1.892-4.95a3.535,3.535,0,0,1,.451-.913.369.369,0,0,0,.11-.22c0-.066-.055-.121-.132-.176A5.972,5.972,0,0,0,9.031-8.646ZM25.069-7.3c0-.968.022-1.43.022-1.507,0-.11-.011-.121-.121-.121-.066,0-.363.022-1.221.022H22.132c-.858,0-1.144-.022-1.21-.022-.121,0-.132.011-.132.121,0,.077.022.33.022.968v1.474c0,.649-.022.891-.022.957,0,.11.011.121.132.121.066,0,.352-.022,1.21-.022h1.8V-.781c0,.33-.088.429-.451.429a5.468,5.468,0,0,1-.8-.055,2.762,2.762,0,0,1,.253.8c.055.341.066.341.407.341.88,0,1.2-.077,1.452-.3s.319-.484.319-1.012-.044-1.243-.044-2.013Zm-1.133,1.21H21.89v-.638h2.046Zm0-2v.627H21.89V-8.1ZM17.281-8.91c-.814,0-1.232-.022-1.309-.022-.11,0-.121.011-.121.121,0,.077.022.858.022,2.4v4.774c0,1.54-.022,2.3-.022,2.376,0,.11.011.121.121.121h.935c.11,0,.121-.011.121-.121,0-.077-.022-.836-.022-2.376V-5.313h1.8c.726,0,1.045.022,1.111.022.1,0,.11-.011.11-.121,0-.066-.022-.374-.022-1.045v-1.3c0-.671.022-.979.022-1.056,0-.11-.011-.121-.11-.121-.066,0-.385.022-1.111.022Zm1.65,2.816H17.006v-.638h1.925Zm0-2v.627H17.006V-8.1ZM21-1.826V-.8c0,.759-.022,1.122-.022,1.188,0,.121.011.132.121.132h.814c.11,0,.121-.011.121-.132,0-.066-.022-.429-.022-1.188V-1.826c.869,0,1.2.022,1.254.022.11,0,.121-.011.121-.132V-2.6c0-.11-.011-.121-.121-.121-.055,0-.385.022-1.254.022v-1c.682.011.957.022,1.012.022.11,0,.121-.011.121-.121v-.671c0-.11-.011-.121-.121-.121-.066,0-.4.022-1.375.022H19.294c-.979,0-1.309-.022-1.375-.022-.121,0-.132.011-.132.121V-3.8c0,.11.011.121.132.121.055,0,.308-.011.968-.022,0,.385-.011.726-.022,1-.88,0-1.2-.022-1.254-.022-.11,0-.121.011-.121.121v.66c0,.121.011.132.121.132.055,0,.363-.011,1.2-.022l-.022.2A2.566,2.566,0,0,1,17.611-.011a2.915,2.915,0,0,1,.649.462c.132.132.187.2.253.2.044,0,.1-.055.209-.154a3.587,3.587,0,0,0,1.045-1.848,4.729,4.729,0,0,0,.077-.473ZM19.91-2.7c.011-.286.022-.627.022-1H21v1Zm12.771.407h1.111c1.056,0,1.408.022,1.485.022.11,0,.121-.011.121-.121v-.792c0-.11-.011-.121-.121-.121-.077,0-.429.022-1.485.022H32.681V-4.455c.506.011.715.022.77.022.11,0,.121-.011.121-.121v-.517a11.572,11.572,0,0,0,1.694.88.67.67,0,0,0,.253.077c.088,0,.121-.077.209-.286a3.065,3.065,0,0,1,.4-.693,10.56,10.56,0,0,1-1.793-.748c.319-.275.6-.539.847-.781a1.008,1.008,0,0,1,.385-.3c.088-.033.143-.088.143-.154s-.033-.121-.132-.187c-.253-.165-.539-.33-.858-.506a2.707,2.707,0,0,1-.308.473,9.351,9.351,0,0,1-.935.913c-.209-.154-.407-.33-.6-.506a9.753,9.753,0,0,0,.759-.726,1.091,1.091,0,0,1,.374-.3c.1-.044.143-.1.143-.165s-.022-.11-.121-.176a8.169,8.169,0,0,0-.847-.506,2.8,2.8,0,0,1-.308.462,5.472,5.472,0,0,1-.66.7,2.668,2.668,0,0,1-.154-.22,3.409,3.409,0,0,1-.506-.946c-.055-.121-.088-.132-.187-.132-.077,0-.385.022-1,.022H28.842c-.825,0-1.089-.022-1.155-.022-.121,0-.132.011-.132.121v.759c0,.11.011.121.132.121.066,0,.33-.022,1.155-.022h1.232A6.58,6.58,0,0,1,28.842-6.6a14.472,14.472,0,0,0-1.2-1.111c-.1-.077-.121-.055-.22.022l-.55.44c-.055.044-.088.077-.088.1s.033.066.088.11a9.139,9.139,0,0,1,1.111,1.067,12.1,12.1,0,0,1-2.035,1.012,2.411,2.411,0,0,1,.451.605c.1.2.143.286.231.286a.757.757,0,0,0,.253-.088,14.526,14.526,0,0,0,1.474-.814v.418c0,.11.011.121.132.121.044,0,.242-.011.715-.022v.374c0,.3-.011.561-.022.8h-.99c-1.045,0-1.408-.022-1.474-.022-.121,0-.132.011-.132.121v.792c0,.11.011.121.132.121.066,0,.429-.022,1.474-.022h.825c-.319,1.133-1.111,1.65-2.827,2.1a2.531,2.531,0,0,1,.561.715c.11.2.154.275.242.275a.936.936,0,0,0,.242-.077c1.815-.66,2.662-1.485,2.97-3.014h1.353V-.473c0,.55.066.737.341.924a3.333,3.333,0,0,0,1.7.242A3.025,3.025,0,0,0,35.189.418c.33-.209.473-.539.583-1.32.044-.286.022-.3-.275-.374a2.384,2.384,0,0,1-.748-.308c-.044.715-.132.968-.275,1.1s-.385.176-.869.176-.7-.033-.8-.11-.121-.176-.121-.385ZM29-5.423a8.2,8.2,0,0,0,2.068-2.211,7.5,7.5,0,0,0,1.991,2.211Zm1.331,2.145c.011-.253.022-.517.022-.8v-.374h1.21v1.177Z" transform="translate(759 2265.684)" fill="#001650"/><line x2="20" transform="translate(749.5 2215)" fill="none" stroke="#001650" stroke-width="1.5"/><g transform="translate(740 2206)" fill="#fff" stroke="#001650" stroke-width="1.5"><rect width="38" height="25" stroke="none"/><rect x="0.75" y="0.75" width="36.5" height="23.5" fill="none"/></g><line x2="21" transform="translate(748.5 2233.338)" fill="none" stroke="#000" stroke-width="1"/><line x2="20" transform="translate(749.5 2218)" fill="none" stroke="#001650" stroke-width="1.5"/><line x2="20" transform="translate(749.5 2221)" fill="none" stroke="#001650" stroke-width="1.5"/></g><g transform="translate(0 1118.316)"><path d="M6.578-6.534a2.889,2.889,0,0,0-3-2.123C1.738-8.657.726-7.612.726-6.325c0,1.309.583,2.024,2.4,2.563l.44.132c1.4.4,1.661.737,1.661,1.474S4.719-.935,3.6-.935a1.759,1.759,0,0,1-1.771-1.54L.407-2.024A2.993,2.993,0,0,0,3.63.187c2.046,0,3.08-1.034,3.08-2.53,0-1.254-.55-1.991-2.5-2.519l-.451-.132C2.53-5.335,2.2-5.676,2.2-6.424c0-.682.517-1.111,1.419-1.111.792,0,1.3.473,1.518,1.4Zm6.886-1.98H7.832V.022h5.72V-1.155H9.317V-3.9h3.135V-5.082H9.317V-7.337h4.147Zm4.246-.143c-2.178,0-3.663,1.606-3.663,4.433S15.51.187,17.7.187s3.663-1.617,3.663-4.433S19.9-8.657,17.71-8.657Zm0,1.144c1.254,0,2.079,1.089,2.079,3.278S18.964-.957,17.71-.957s-2.09-1.1-2.09-3.278S16.456-7.513,17.71-7.513Zm12.8,3.278a4.59,4.59,0,0,1-.495,2.156,28.046,28.046,0,0,1-1.881-2.475c1.43-.418,2.024-1.078,2.024-2.134a1.851,1.851,0,0,0-2.1-1.826,1.964,1.964,0,0,0-2.156,1.925,2.852,2.852,0,0,0,.627,1.716,2.57,2.57,0,0,0-1.815,2.486A2.583,2.583,0,0,0,27.577.176,3.272,3.272,0,0,0,29.832-.55a2.055,2.055,0,0,0,1.793.715H32l.275-.99a1.638,1.638,0,0,1-1.54-.583,4.637,4.637,0,0,0,.946-2.574Zm-3.52.088a24.448,24.448,0,0,0,2.189,2.9,1.963,1.963,0,0,1-1.331.44A1.753,1.753,0,0,1,26-2.563,1.639,1.639,0,0,1,26.994-4.147Zm.682-1.122a2.386,2.386,0,0,1-.528-1.364.915.915,0,0,1,.913-.957.843.843,0,0,1,.869.891C28.93-6.017,28.622-5.588,27.676-5.269ZM44.22-8.514H41.8L40.711-4.136c-.253.979-.429,1.859-.66,2.794H39.9c-.176-.935-.4-1.925-.616-2.816L38.2-8.514H35.794V.022H37.1v-4.29c0-1.056-.011-2.046-.033-3.036h.154c.253,1.045.462,1.969.726,2.959L39.072.022H40.81L41.965-4.4c.286-1.045.484-1.925.7-2.9h.154C42.812-6.292,42.8-5.357,42.8-4.29V.022H44.22Zm7.238,0H45.826V.022h5.72V-1.155H47.311V-3.9h3.135V-5.082H47.311V-7.337h4.147ZM55.7-8.657c-2.178,0-3.663,1.606-3.663,4.433S53.5.187,55.693.187s3.663-1.617,3.663-4.433S57.893-8.657,55.7-8.657Zm0,1.144c1.254,0,2.079,1.089,2.079,3.278S56.958-.957,55.7-.957s-2.09-1.1-2.09-3.278S54.45-7.513,55.7-7.513Z" transform="translate(840 2265.684)" fill="#001650"/><g transform="translate(0.207)"><g transform="translate(850.244 2212.72)" fill="#fff"><path d="M 27.24760055541992 19.86776161193848 L 2.289883852005005 19.86776161193848 L 14.71577072143555 10.75000190734863 L 39.67349624633789 10.75000190734863 L 27.24760055541992 19.86776161193848 Z" stroke="none"/><path d="M 14.96142387390137 11.50000190734863 L 4.579765319824219 19.11776161193848 L 27.00196075439453 19.11776161193848 L 37.38361358642578 11.50000190734863 L 14.96142387390137 11.50000190734863 M 14.47012519836426 10.00000190734863 L 41.9633674621582 10.00000190734863 L 27.49324607849121 20.61776161193848 L -3.814697265625e-06 20.61776161193848 L 14.47012519836426 10.00000190734863 Z" stroke="none" fill="#001650"/></g><g transform="translate(847.793 2209.453)" fill="#fff"><path d="M 27.24760055541992 19.86776161193848 L 2.289883852005005 19.86776161193848 L 14.71577072143555 10.75000190734863 L 39.67349624633789 10.75000190734863 L 27.24760055541992 19.86776161193848 Z" stroke="none"/><path d="M 14.96142387390137 11.50000190734863 L 4.579765319824219 19.11776161193848 L 27.00196075439453 19.11776161193848 L 37.38361358642578 11.50000190734863 L 14.96142387390137 11.50000190734863 M 14.47012519836426 10.00000190734863 L 41.9633674621582 10.00000190734863 L 27.49324607849121 20.61776161193848 L -3.814697265625e-06 20.61776161193848 L 14.47012519836426 10.00000190734863 Z" stroke="none" fill="#001650"/></g><g transform="translate(4.5 -70)"><g transform="translate(860 2272)" fill="#fff" stroke="#001650" stroke-width="1.5"><circle cx="5.5" cy="5.5" r="5.5" stroke="none"/><circle cx="5.5" cy="5.5" r="4.75" fill="none"/></g><line y1="13" transform="translate(865.5 2282.953)" fill="none" stroke="#001650" stroke-width="1.5"/></g></g></g></g></g></svg>