<svg xmlns="http://www.w3.org/2000/svg" width="413.678" height="168.682" viewBox="0 0 413.678 168.682">
  <g id="グループ_4997" data-name="グループ 4997" transform="translate(-4256.357 819.745)">
    <path id="パス_22398" data-name="パス 22398" d="M715.909,415.859a209.429,209.429,0,0,0,73.563,10.962c12.076-.412,30.262-1.183,51.76-9.29,17.905-6.752,15.872-10.207,27.871-13.936,30.175-9.375,43.971,12.181,83.653,9.578,14.883-.976,34.97-2.293,47.332-16.487,16.319-18.736,5.147-42.082,20.978-56.8,10.355-9.623,26.775-10.3,43.8-7.3a61.148,61.148,0,0,0,23.226-1.991c5.045-1.444,16.4-4.856,25.88-15.263,7.556-8.3,10.341-17.348,11.945-22.562,2.81-9.132,3.232-17.529,3.519-23.238.233-4.625.161-8.506.041-11.281" transform="translate(3540.449 -1078)" fill="#fff"/>
    <path id="パス_22399" data-name="パス 22399" d="M1129.474,258.255H715.909v157.6L834.8,385.422l190.783-69.687,78.3-34.018Z" transform="translate(3540.449 -1078)" fill="#fff"/>
  </g>
</svg>
