<svg xmlns="http://www.w3.org/2000/svg" width="209.932" height="115.641" viewBox="0 0 209.932 115.641">
  <g id="グループ_5005" data-name="グループ 5005" transform="translate(-4206 491.182)">
    <path id="パス_22401" data-name="パス 22401" d="M209.573,228.468a43.228,43.228,0,0,0-14.322-2.355c-5.727.048-10.017,1.358-18.6,3.977-7.382,2.254-8.941,3.293-20.2,6.849-4.214,1.332-6.37,2.01-8.775,2.552-6.377,1.438-10.978,2.4-17.254,1.77-2.8-.284-15.755-1.6-22.562-11.06-3.417-4.751-1.5-6.286-3.982-9.733-9.417-13.054-40.679,3.818-55.958-10.852-4.469-4.291-6.621-10.369-7.636-13.236-4.5-12.716.641-18.294-3.65-23.691-6.457-8.122-20.975.909-30.777-8.341-6.776-6.4-5.869-16.4-5.762-17.415,1.008-9.519,8.5-17.862,19.12-21.114" transform="translate(4206 -617)" fill="#fff"/>
    <path id="パス_22402" data-name="パス 22402" d="M19.218,125.818H209.932V228.1l-54.825-19.752L67.128,163.122l-36.11-22.077Z" transform="translate(4206 -617)" fill="#fff"/>
  </g>
</svg>
