<svg xmlns="http://www.w3.org/2000/svg" width="566.825" height="117.924" viewBox="0 0 566.825 117.924">
  <g id="グループ_4974" data-name="グループ 4974" transform="translate(-821.04 286.49)">
    <g id="グループ_4973" data-name="グループ 4973" transform="translate(756 -947.31)">
      <path id="パス_22385" data-name="パス 22385" d="M17.94-12.9c.364-2.08.26-2.7,4.68-2.7,1.144,0,3.38.052,3.38,1.664a44.789,44.789,0,0,1-1.144,7.228c-.468,2.392-3.172,1.092-3.172,3.8C21.684.1,24.336.416,31.824.416c7.124,0,8.84-1.508,8.84-3.484,0-3.432-2.912-.832-2.808-4.68.208-6.708,1.508-14.508,2.392-20.956.52-4,3.848-1.768,3.848-5.2,0-1.768-1.092-2.964-8.06-2.964-8.58,0-10.608.884-10.608,3.536,0,2.548,2.288,1.4,2.288,4.264a34.3,34.3,0,0,1-.624,6.24c-.416,1.144-2.652,1.248-3.588,1.248-4.836,0-4.42-.78-4.42-1.508A46.126,46.126,0,0,1,19.76-28.7c.468-3.016,3.536-2.08,3.536-5.1,0-1.872-1.3-3.068-7.592-3.068-12.116,0-11.336,3.38-11.336,3.952,0,2.86,2.964,1.3,2.964,4.316A82.77,82.77,0,0,1,4.368-6.656C3.9-5.1,1.04-5.2,1.04-2.912,1.04.1,4.472.416,10.816.416c7.748,0,8.892-1.664,8.892-3.536,0-2.34-2.288-1.352-2.288-3.484Zm35,5.408c-1.04.1-1.2-1.248-1.2-2.028-.052-3.328,3.432-11.076,6.188-11.284.832-.052,1.04.988,1.04,1.664C59.072-16.536,55.692-7.7,52.936-7.488ZM67.392-26.624a9.738,9.738,0,0,0-4.42,1.352A5.525,5.525,0,0,1,61-24.44c-1.508,0-2.964-2.5-6.6-2.132-8.008.728-13.832,9.464-14.248,18.824C39.936-3.536,41.912.676,46.7.676,52.052.676,54.6-4,55.952-4c1.664,0-.572,4.42,4.056,4.42,2.86,0,10.452-3.016,10.452-6.4,0-.832-.52-1.2-1.3-1.3-.572-.052-.936,0-1.144-.624a10.214,10.214,0,0,1-.052-3.328c.416-5.616,1.352-10.3,1.56-13.416C69.628-26.1,68.848-26.624,67.392-26.624Zm18.3-8.06c0-2.028-1.144-2.5-2.964-2.5A30.946,30.946,0,0,0,74.1-35.516c-2.08.676-4.472,1.508-4.472,4.108,0,1.04.572,1.508,1.612,1.508.416,0,.832-.1,1.248-.1.884,0,1.092.416.988,1.248C72.8-22.672,71.188-13.1,70.46-4.68,70.148-.936,71.864.364,74.672.364c3.38,0,11.856-2.288,11.856-6.6,0-.728-.26-1.612-1.144-1.612-.52,0-1.04.156-1.56.156-.832,0-.884-1.2-.884-1.82Zm15.912,0c0-2.028-1.144-2.5-2.964-2.5a30.946,30.946,0,0,0-8.632,1.664c-2.08.676-4.472,1.508-4.472,4.108,0,1.04.572,1.508,1.612,1.508.416,0,.832-.1,1.248-.1.884,0,1.092.416.988,1.248C88.712-22.672,87.1-13.1,86.372-4.68,86.06-.936,87.776.364,90.584.364c3.38,0,11.856-2.288,11.856-6.6,0-.728-.26-1.612-1.144-1.612-.52,0-1.04.156-1.56.156-.832,0-.884-1.2-.884-1.82ZM112.944.676c9.88,0,17.68-7.332,17.68-17.264,0-6.812-5.356-10.3-11.856-10.3-9.88,0-17.68,7.332-17.68,17.264C101.088-2.808,106.444.676,112.944.676Zm4.108-22.048c1.456,0,1.716,1.352,1.716,2.548a57.137,57.137,0,0,1-1.248,9.308c-.312,1.56-.728,4.68-2.912,4.68-1.352,0-1.664-1.2-1.664-2.392a49.912,49.912,0,0,1,1.04-9.2C114.348-18.044,114.868-21.372,117.052-21.372ZM170.612.676c10.92,0,16.64-10.244,16.276-20.956-.1-3.484-.988-6.344-4.94-6.344-1.664,0-3.8.728-3.8,2.7,0,2.444,2.5,4.212,2.5,8.58,0,3.536-2.028,9.464-6.292,9.464-1.976,0-2.444-1.82-2.392-4.524.1-3.744,2.34-9.1,2.34-13.624,0-2.08-.936-2.652-2.86-2.548-5.408.26-9.36.78-9.464,6.344-.052,3.016-1.04,13.572-5.72,13.572-1.508,0-1.664-2.288-1.456-4.628.416-3.588,1.924-8.632,1.924-11.908,0-2.028-.52-3.432-2.756-3.432a31.839,31.839,0,0,0-8.944,2.028c-1.716.624-3.484,1.352-3.484,3.432,0,1.04.364,1.82,1.456,1.924,1.144.1,1.56.1,1.56,1.4,0,1.716-1.508,7.436-1.508,10.764,0,4.628,2.808,7.748,7.54,7.748,6.24,0,10.244-4.42,11.024-4.42C162.24-3.744,164.32.676,170.612.676Zm33.8-27.56c-9.464,0-19.552,7.02-20.02,17.836-.26,6.968,5.252,9.724,11.6,9.724a21.325,21.325,0,0,0,9-2.08c2.132-.988,5.616-2.7,5.616-5.46a2.293,2.293,0,0,0-2.08-2.184c-1.664,0-4.524,2.964-8.268,2.964-1.3,0-3.172-.832-3.172-2.34,0-1.092,1.3-1.092,2.028-1.092,5.876,0,12.9-4.888,12.9-11.18C212-25.272,208.52-26.884,204.412-26.884Zm-3.848,5.148c.832,0,1.144.936,1.2,1.612.156,2.5-2.392,6.344-3.848,6.344-.728,0-.936-.832-.936-1.456C196.976-16.9,198.432-21.736,200.564-21.736ZM234.832-7.488c-1.04.1-1.2-1.248-1.2-2.028-.052-3.328,3.432-11.076,6.188-11.284.832-.052,1.04.988,1.04,1.664C240.968-16.536,237.588-7.7,234.832-7.488Zm14.456-19.136a9.738,9.738,0,0,0-4.42,1.352,5.525,5.525,0,0,1-1.976.832c-1.508,0-2.964-2.5-6.6-2.132-8.008.728-13.832,9.464-14.248,18.824-.208,4.212,1.768,8.424,6.552,8.424,5.356,0,7.9-4.68,9.256-4.68,1.664,0-.572,4.42,4.056,4.42,2.86,0,10.452-3.016,10.452-6.4,0-.832-.52-1.2-1.3-1.3-.572-.052-.936,0-1.144-.624a10.214,10.214,0,0,1-.052-3.328c.416-5.616,1.352-10.3,1.56-13.416C251.524-26.1,250.744-26.624,249.288-26.624ZM266.864-15.34c.052-.468.364-2.652,1.092-2.652.416,0,.884.936,1.04,1.248.884,1.508,1.612,2.236,3.484,2.236,3.536,0,5.1-3.068,5.1-6.24,0-3.276-2.288-6.188-5.668-6.188-4.836,0-4.68,4.992-6.188,4.992-1.664,0-.26-4.94-3.432-4.94a10.825,10.825,0,0,0-4.784,1.352c-1.976.988-6.188,1.82-6.188,4.628,0,1.872.832,2.288,2.444,2.288,1.4,0,1.56.416,1.508,1.82-.1,4.836-2.184,11.336-2.184,14.456,0,2.34,2.08,2.86,4,2.756,7.124-.312,9.308-2.288,9-7.332Zm27.3-11.544c-9.464,0-19.552,7.02-20.02,17.836C273.884-2.08,279.4.676,285.74.676a21.325,21.325,0,0,0,9-2.08c2.132-.988,5.616-2.7,5.616-5.46a2.293,2.293,0,0,0-2.08-2.184c-1.664,0-4.524,2.964-8.268,2.964-1.3,0-3.172-.832-3.172-2.34,0-1.092,1.3-1.092,2.028-1.092,5.876,0,12.9-4.888,12.9-11.18C301.756-25.272,298.272-26.884,294.164-26.884Zm-3.848,5.148c.832,0,1.144.936,1.2,1.612.156,2.5-2.392,6.344-3.848,6.344-.728,0-.936-.832-.936-1.456C286.728-16.9,288.184-21.736,290.316-21.736Z" transform="translate(64 698)" fill="#fff"/>
      <path id="パス_22384" data-name="パス 22384" d="M47.348-37.848c.38-2.812-.3-7.068,4.332-7.068,6.536,0,7.448,6.536,7.448,12.464,0,9.2-1.824,23.256-11.1,23.256-2.736,0-2.584-1.9-2.66-4.408ZM48.64,0c27.132,0,30.1-22.344,30.1-30.7,0-21.736-15.276-23.1-23.636-22.952-7.448.152-15.428.38-22.42.38-3.8,0-8.436.152-8.436,5.092,0,4.56,5.092,1.14,5.092,7.3,0,5.852-2.432,24.016-4.332,30.1-1.368,4.332-6.08,1.368-6.08,6.612C18.924-.456,21.584.3,24.852.3c1.14,0,2.2-.076,3.344-.152C29.26.076,30.4,0,31.464,0ZM92.948.988c14.44,0,25.84-10.716,25.84-25.232,0-9.956-7.828-15.048-17.328-15.048-14.44,0-25.84,10.716-25.84,25.232C75.62-4.1,83.448.988,92.948.988Zm6-32.224c2.128,0,2.508,1.976,2.508,3.724,0,3.876-1.064,9.728-1.824,13.6-.456,2.28-1.064,6.84-4.256,6.84-1.976,0-2.432-1.748-2.432-3.5a72.947,72.947,0,0,1,1.52-13.452C95-26.372,95.76-31.236,98.952-31.236Zm64.448-.608c.076-.988.38-2.812.38-3.8,0-2.584-2.052-3.268-4.408-3.268-2.812,0-8.208.76-10.336,2.66-3.42,2.812-1.976,12.388-5.092,19.532-.836,1.824-2.584,4.864-5.016,4.864-3.268,0-1.368-7.524-1.216-8.512.684-3.952,2.2-11.172,2.2-14.136,0-2.812-.988-4.332-3.876-4.332A30.062,30.062,0,0,0,123.8-35.72c-2.28,1.064-6.536,3.268-6.536,6.308,0,1.976,1.672,2.2,3.192,2.356,2.508.3,1.976,2.052,1.748,4.028C121.6-17.784,119.852-11.552,120-7.3c.152,4.94,2.508,7.676,6.764,7.828,7.9.3,14.364-6.764,16.036-6.764,2.66,0,.38,6.764,5.244,6.764,4.636,0,17.328-4.028,17.328-9.88,0-2.052-.912-1.976-2.66-2.052-1.52,0-2.356-.608-2.356-2.28a18.367,18.367,0,0,1,.456-3.5ZM185.744-47.88c.3-4.256.836-6.46-3.8-6.46-3.268,0-10.032,1.672-13.148,2.812-2.66.912-5.624,1.976-5.624,5.244,0,2.66.912,2.812,3.192,2.964s2.28.912,2.28,3.04a128.822,128.822,0,0,1-1.9,18.7c-.608,3.648-1.748,9.2-1.748,12.768,0,7.524,7.752,9.8,13.984,9.8,17.1,0,26.524-11.856,27.436-26.9.38-6.536-2.584-13.452-10.184-13.452-6.156,0-9.424,5.7-10.868,5.7-.684,0-.912-.76-.912-1.368,0-2.66.532-5.4.76-7.98Zm1.444,20.444c1.976,0,2.052,2.888,2.128,4.256.076,1.292-1.52,16.112-6.232,16.112-1.368,0-1.52-1.52-1.672-2.584C181.184-10.944,182.856-27.436,187.188-27.436Zm40.2-23.256c0-2.964-1.672-3.648-4.332-3.648a45.229,45.229,0,0,0-12.616,2.432c-3.04.988-6.536,2.2-6.536,6,0,1.52.836,2.2,2.356,2.2.608,0,1.216-.152,1.824-.152,1.292,0,1.6.608,1.444,1.824-.988,8.892-3.344,22.876-4.408,35.188-.456,5.472,2.052,7.372,6.156,7.372,4.94,0,17.328-3.344,17.328-9.652,0-1.064-.38-2.356-1.672-2.356-.76,0-1.52.228-2.28.228-1.216,0-1.292-1.748-1.292-2.66Zm28.2,11.4c-13.832,0-28.576,10.26-29.26,26.068C225.948-3.04,234,.988,243.276.988a31.167,31.167,0,0,0,13.148-3.04c3.116-1.444,8.208-3.952,8.208-7.98a3.352,3.352,0,0,0-3.04-3.192c-2.432,0-6.612,4.332-12.084,4.332-1.9,0-4.636-1.216-4.636-3.42,0-1.6,1.9-1.6,2.964-1.6,8.588,0,18.848-7.144,18.848-16.34C266.684-36.936,261.592-39.292,255.588-39.292Zm-5.624,7.524c1.216,0,1.672,1.368,1.748,2.356.228,3.648-3.5,9.272-5.624,9.272-1.064,0-1.368-1.216-1.368-2.128C244.72-24.7,246.848-31.768,249.964-31.768Zm37.088-21.508c-2.736,0-5.4-.3-11.552-.3-3.344,0-7.828.836-7.828,5.016,0,5.32,5.092,1.444,5.092,8.056,0,5.928-2.584,24.624-4.712,29.944-1.52,3.724-5.548,1.52-5.548,5.776,0,4.332,3.952,5.4,15.732,5.4,3.876,0,15.276.3,15.276-5.472,0-3.876-5.244-1.368-5.244-6.156,0-11.628,1.444-11.4,2.888-11.4,4.256,0,0,7.98,5.624,7.98,6.156,0,6.764-11.248,6.764-15.5,0-2.964-.836-8.132-4.712-8.132-5.624,0-2.432,6.916-7.524,6.916-.836,0-1.6.076-1.6-.912a71,71,0,0,1,1.216-8.74c.38-2.812.608-3.724,7.448-3.724,7.828,0,5.016,7.98,10.792,7.98,3.724,0,5.168-2.964,5.168-6.308,0-3.648-2.66-11.324-7.22-11.324-.3,0-.912.228-2.2.456a36.575,36.575,0,0,1-6.384.456Zm35.72,42.332c-1.52.152-1.748-1.824-1.748-2.964-.076-4.864,5.016-16.188,9.044-16.492,1.216-.076,1.52,1.444,1.52,2.432C331.74-24.168,326.8-11.248,322.772-10.944ZM343.9-38.912a14.233,14.233,0,0,0-6.46,1.976,8.075,8.075,0,0,1-2.888,1.216c-2.2,0-4.332-3.648-9.652-3.116C313.2-37.772,304.684-25,304.076-11.324c-.3,6.156,2.584,12.312,9.576,12.312,7.828,0,11.552-6.84,13.528-6.84,2.432,0-.836,6.46,5.928,6.46,4.18,0,15.276-4.408,15.276-9.348,0-1.216-.76-1.748-1.9-1.9-.836-.076-1.368,0-1.672-.912-.456-1.216-.152-3.648-.076-4.864.608-8.208,1.976-15.048,2.28-19.608C347.168-38.152,346.028-38.912,343.9-38.912Zm31.768,27.36c-2.356,1.368-4.864,2.66-7.676,2.66-3.268,0-3.8-3.8-3.8-6.232,0-3.42,1.368-15.808,6.08-15.732a1.362,1.362,0,0,1,1.368,1.368c0,1.292-1.292,3.04-1.292,5.092,0,2.888,3.116,4.56,5.624,4.56,4.788,0,9.044-4.56,8.892-9.348-.228-7.068-6.612-10.108-12.768-10.108-13.832,0-26.524,11.856-26.524,25.916,0,10.184,7.22,14.364,16.568,14.364a29.071,29.071,0,0,0,14.668-3.952c2.128-1.14,5.548-3.268,5.548-6,0-1.672-.988-4.18-2.964-4.18C378.024-13.148,376.808-12.236,375.668-11.552ZM399.684.988c14.44,0,25.84-10.716,25.84-25.232,0-9.956-7.828-15.048-17.328-15.048-14.44,0-25.84,10.716-25.84,25.232C382.356-4.1,390.184.988,399.684.988Zm6-32.224c2.128,0,2.508,1.976,2.508,3.724,0,3.876-1.064,9.728-1.824,13.6-.456,2.28-1.064,6.84-4.256,6.84-1.976,0-2.432-1.748-2.432-3.5a72.948,72.948,0,0,1,1.52-13.452C401.736-26.372,402.5-31.236,405.688-31.236Zm38.836,6.84c1.14-6.612,1.14-6.384,6.384-6.384,2.052,0,2.052-1.6,2.28-3.268a22.613,22.613,0,0,0,.38-3.268c0-1.14-.912-1.368-1.9-1.368-2.28,0-4.788.76-4.788-1.52,0-1.216.532-5.548.684-7.068,0-1.976-.988-2.812-2.888-2.812-2.964,0-6.84.38-9.5,1.672-2.052.988-2.888,3.192-3.572,5.472-1.064,3.5-1.292,4.256-3.724,4.56-3.192.3-4.788,2.128-4.788,5.4,0,2.052.988,2.584,2.812,2.584,3.04,0,3.268.38,2.736,3.344L426.36-13.68a45.6,45.6,0,0,0-.76,7.22c0,4.864,3.04,7.068,7.6,7.068,4.408,0,18.848-4.864,18.848-10.792,0-1.292-.456-2.736-2.052-2.736-1.14,0-2.508,1.444-4.332,1.444-1.9,0-2.888-2.052-2.128-5.4Zm28.728,1.976c.076-.684.532-3.876,1.6-3.876.608,0,1.292,1.368,1.52,1.824,1.292,2.2,2.356,3.268,5.092,3.268,5.168,0,7.448-4.484,7.448-9.12,0-4.788-3.344-9.044-8.284-9.044-7.068,0-6.84,7.3-9.044,7.3-2.432,0-.38-7.22-5.016-7.22a15.822,15.822,0,0,0-6.992,1.976c-2.888,1.444-9.044,2.66-9.044,6.764,0,2.736,1.216,3.344,3.572,3.344,2.052,0,2.28.608,2.2,2.66-.152,7.068-3.192,16.568-3.192,21.128,0,3.42,3.04,4.18,5.852,4.028,10.412-.456,13.6-3.344,13.148-10.716Zm57.608-5.928c0-4.788-.836-10.108-6.84-10.108-3.344,0-6.536,2.2-6.536,5.776,0,3.876,3.5,5.244,3.5,10.564,0,1.52-.912,9.348-2.964,8.892-1.9-.456-5.472-13.832-7.524-18.7-1.444-3.344-2.888-6.992-7.144-6.992-4.408,0-17.176,8.512-17.632,13.376-.152,1.824,1.52,4.332,3.5,4.332,1.672,0,3.268-2.584,4.408-2.584,2.888,0,10.032,19.836,10.184,25.46.076,1.9-1.14,5.548-3.572,5.548-.912,0-1.216-.684-1.216-1.52,0-1.292.3-2.584.3-3.876,0-3.8-2.812-5.852-6.46-5.852-4.484,0-7.752,2.964-7.752,7.6,0,7.448,6.84,11.172,13.6,11.172C518.32,14.744,531.164-11.932,530.86-28.348Z" transform="translate(101 764)" fill="#fff"/>
      <path id="パス_22386" data-name="パス 22386" d="M-100.028-11.05c.289-.442.391-.612.527-.85a1.421,1.421,0,0,1,.357-.357.459.459,0,0,0,.2-.34.3.3,0,0,0-.187-.272,10.706,10.706,0,0,0-1.989-.833,6.271,6.271,0,0,1-.918,2.091,18.967,18.967,0,0,1-4.811,5.338,7.083,7.083,0,0,1,1.428.782.389.389,0,0,0,.272.119.61.61,0,0,0,.34-.153,20.529,20.529,0,0,0,3.638-3.825l4.216-.085A16.389,16.389,0,0,1-98.94-6.069a17.046,17.046,0,0,0-2.193-1.36.441.441,0,0,0-.17-.068.321.321,0,0,0-.221.119c-.391.357-.748.8-1.122,1.207a14.211,14.211,0,0,1,2.448,1.6A20.615,20.615,0,0,1-106.454.034,4.83,4.83,0,0,1-104.839.9a.51.51,0,0,0,.323.153A.925.925,0,0,0-104.091.9a20.717,20.717,0,0,0,5.423-4.25A18.84,18.84,0,0,1-97.019-1.7a.3.3,0,0,0,.187.1.353.353,0,0,0,.2-.085,10.449,10.449,0,0,0,1.054-1.071.329.329,0,0,0,.1-.221.336.336,0,0,0-.1-.238A15.113,15.113,0,0,0-97.41-4.93a26.534,26.534,0,0,0,2.5-4.114,2.132,2.132,0,0,1,.51-.646.435.435,0,0,0,.187-.323.415.415,0,0,0-.136-.306,5.507,5.507,0,0,0-1.156-1.037.585.585,0,0,0-.306-.136.5.5,0,0,0-.289.119,1.663,1.663,0,0,1-.935.255Zm4.3-1.785a8.435,8.435,0,0,1,1.717,1.972.178.178,0,0,0,.289.051l.714-.527a.171.171,0,0,0,.051-.272,7.824,7.824,0,0,0-1.615-1.819c-.1-.085-.17-.1-.255-.034Zm1.564-1.122A8.042,8.042,0,0,1-92.463-12a.174.174,0,0,0,.289.051l.68-.527a.2.2,0,0,0,.051-.306,7.1,7.1,0,0,0-1.615-1.751c-.1-.085-.153-.1-.255-.034Zm13.617,4.42a14.309,14.309,0,0,1-2.873,4.845,16.43,16.43,0,0,1-5.559,4.25A5.055,5.055,0,0,1-87.4.493a.6.6,0,0,0,.425.187.823.823,0,0,0,.459-.153,19.063,19.063,0,0,0,4.828-4.046,20.02,20.02,0,0,0,3.3-5.525A2.046,2.046,0,0,1-78-9.707a.58.58,0,0,0,.238-.425.427.427,0,0,0-.119-.289,5.232,5.232,0,0,0-1.241-1.122.831.831,0,0,0-.323-.085.48.48,0,0,0-.255.068,1.626,1.626,0,0,1-.935.17H-86.7a29.747,29.747,0,0,1-3.264-.119c.034.493.1,1.377.153,1.717.034.238.1.357.323.34.731-.034,1.7-.085,2.805-.085Zm1.343-3.451a8.435,8.435,0,0,1,1.717,1.972.178.178,0,0,0,.289.051l.629-.459a.171.171,0,0,0,.051-.272,7.824,7.824,0,0,0-1.615-1.819c-.1-.085-.17-.1-.255-.034Zm1.479-1.054a8.042,8.042,0,0,1,1.7,1.955.181.181,0,0,0,.153.119.2.2,0,0,0,.136-.068l.561-.459c.136-.119.119-.2.051-.306a7.1,7.1,0,0,0-1.615-1.751c-.1-.085-.153-.1-.255-.034Zm10.863,4.777a4.7,4.7,0,0,1,.153-1.887,1.088,1.088,0,0,0,.136-.425c0-.136-.085-.238-.306-.289A16.223,16.223,0,0,0-69-12.223a13.575,13.575,0,0,1,.17,2.958v5.321c0,.867.017,1.071-.1,1.292A.522.522,0,0,0-69-2.4a.678.678,0,0,0,.153.357A4.909,4.909,0,0,0-67.83-1a.725.725,0,0,0,.357.136A.54.54,0,0,0-67.133-1a5.645,5.645,0,0,1,.493-.357A28.231,28.231,0,0,0-63.614-3.4,21.489,21.489,0,0,0-61.1-5.627c.187-.187.255-.306.255-.425a.846.846,0,0,0-.1-.289,4.9,4.9,0,0,1-.527-1.717,16.314,16.314,0,0,1-2.975,2.89,17.283,17.283,0,0,1-2.414,1.581Zm-5.933-1.887a4.573,4.573,0,0,1,.17,1.428,11.076,11.076,0,0,1-.714,4.811A8.44,8.44,0,0,1-76.16-1.53a6.024,6.024,0,0,1,1.445.714.578.578,0,0,0,.323.136A.771.771,0,0,0-73.95-.9a8.757,8.757,0,0,0,2.414-3.2,12.723,12.723,0,0,0,.918-5,2.452,2.452,0,0,1,.2-1.156c.1-.238.068-.442-.221-.527A13.744,13.744,0,0,0-72.794-11.152Zm24.429,1.258a14.309,14.309,0,0,1-2.873,4.845A16.43,16.43,0,0,1-56.8-.8a5.055,5.055,0,0,1,1.581.935.6.6,0,0,0,.425.187A.823.823,0,0,0-54.332.17,19.063,19.063,0,0,0-49.5-3.876a20.019,20.019,0,0,0,3.3-5.525,2.046,2.046,0,0,1,.391-.663.58.58,0,0,0,.238-.425.427.427,0,0,0-.119-.289A5.232,5.232,0,0,0-46.937-11.9a.831.831,0,0,0-.323-.085.48.48,0,0,0-.255.068,1.626,1.626,0,0,1-.935.17h-6.069a29.747,29.747,0,0,1-3.264-.119c.034.493.1,1.377.153,1.717.034.238.1.357.323.34.731-.034,1.7-.085,2.805-.085ZM-31.79-7.718a10.429,10.429,0,0,1-2.04,2.295,3.455,3.455,0,0,1,1.139.6.558.558,0,0,0,.374.153.409.409,0,0,0,.289-.136,18.579,18.579,0,0,0,2.21-2.652,1.111,1.111,0,0,1,.442-.357.274.274,0,0,0,.17-.238.448.448,0,0,0-.085-.255,5.866,5.866,0,0,0-.986-1.105.456.456,0,0,0-.272-.136.506.506,0,0,0-.238.085,1.857,1.857,0,0,1-.9.136h-5.695a27.659,27.659,0,0,1-2.771-.1c.068.561.17,1.258.238,1.581.034.17.2.221.374.221.748-.034,1.292-.085,2.295-.085ZM-36.21-7a4.473,4.473,0,0,1,.17,1.394c0,2.652-1.122,4.25-3.451,5.525a4.264,4.264,0,0,1,1.326.7.51.51,0,0,0,.323.153A.869.869,0,0,0-37.434.6a6.884,6.884,0,0,0,3.213-6.171,1.512,1.512,0,0,1,.119-.646.465.465,0,0,0,.068-.238c0-.136-.085-.221-.289-.272A14.512,14.512,0,0,0-36.21-7Zm18.139-3.859c.2-.306.374-.561.561-.85a1.845,1.845,0,0,1,.425-.459.339.339,0,0,0,.187-.289.355.355,0,0,0-.17-.289,8.363,8.363,0,0,0-1.989-.9,7.26,7.26,0,0,1-1,2.295,20.164,20.164,0,0,1-4.573,5.049A4.611,4.611,0,0,1-23-5.576a.408.408,0,0,0,.255.1.528.528,0,0,0,.357-.187,23.676,23.676,0,0,0,3.213-3.485l4.114-.119a17.319,17.319,0,0,1-3.145,4.828A19.584,19.584,0,0,1-23.868-.1,4.474,4.474,0,0,1-22.253.68a.6.6,0,0,0,.391.187A.46.46,0,0,0-21.59.782a21.593,21.593,0,0,0,5.168-4.233A23.431,23.431,0,0,0-13.056-8.7a2.047,2.047,0,0,1,.561-.731.49.49,0,0,0,.2-.357.551.551,0,0,0-.221-.391,7.842,7.842,0,0,0-1.156-.918.493.493,0,0,0-.272-.1.342.342,0,0,0-.221.068,1.578,1.578,0,0,1-.85.2Zm16.235-.306a4.427,4.427,0,0,1,.119-1.6.9.9,0,0,0,.136-.391c0-.136-.085-.238-.323-.289a12.548,12.548,0,0,0-2.125-.272,12.972,12.972,0,0,1,.17,2.516v8.364c0,1.088-.017,2.091-.068,3.349,0,.2.085.255.323.255a11.234,11.234,0,0,0,1.513,0c.238,0,.323-.051.306-.255-.034-1.224-.068-2.227-.068-3.332V-6.579A18.828,18.828,0,0,1,2.618-4.4a.261.261,0,0,0,.187.085c.085,0,.153-.068.221-.187a9.992,9.992,0,0,0,.731-1.479c.085-.221,0-.34-.187-.442A23.98,23.98,0,0,0-1.836-8.738ZM11.543-7.31c0,.731-.051,1.717-.051,2.312-.017.2.085.289.323.289h1.36c.272,0,.374-.085.374-.34-.017-.595-.051-1.258-.051-2.142v-3.434a3.913,3.913,0,0,1,.187-1.615.712.712,0,0,0,.068-.255c0-.119-.085-.221-.289-.272a12.582,12.582,0,0,0-2.108-.357,11.639,11.639,0,0,1,.187,2.482Zm8.007-3.315a5.122,5.122,0,0,1,.153-1.853.538.538,0,0,0,.068-.272.286.286,0,0,0-.238-.289,10.638,10.638,0,0,0-2.21-.374,12.482,12.482,0,0,1,.187,2.771v3.213c0,2.159-.357,3.57-1.139,4.539A8.307,8.307,0,0,1,12.223-.408,5.523,5.523,0,0,1,13.668.629a.552.552,0,0,0,.408.2,1.074,1.074,0,0,0,.357-.085,8.771,8.771,0,0,0,3.74-2.669c1-1.343,1.377-3.026,1.377-5.542ZM34.935-5.253c1.258,0,2.516.017,3.791.034.238.017.306-.051.306-.255a12.53,12.53,0,0,0,0-1.6c0-.2-.051-.255-.306-.238-1.309.017-2.618.051-3.91.051H29.342a21.84,21.84,0,0,1-3.672-.2,18.451,18.451,0,0,0,.255,2.057c.051.255.187.357.391.357a13.594,13.594,0,0,1,2.5-.2ZM50.983-9.622v2.227H49.827c-1.632,0-2.193-.034-2.295-.034-.17,0-.187.017-.187.17v.7a12.807,12.807,0,0,1-1.649-2.8c.9.017,1.19.034,1.292.034.17,0,.187-.017.187-.187v-1.207c0-.17-.017-.187-.187-.187-.1,0-.425.034-1.394.034v-1.037a4.354,4.354,0,0,1,.119-1.649.8.8,0,0,0,.1-.357c0-.085-.119-.153-.289-.17a15.992,15.992,0,0,0-1.7-.119,12.763,12.763,0,0,1,.136,2.312v1.02h-.51c-1.139,0-1.5-.034-1.6-.034-.17,0-.187.017-.187.187V-9.52c0,.17.017.187.187.187.1,0,.459-.034,1.6-.034h.374A15.8,15.8,0,0,1,41.242-3.91a5.692,5.692,0,0,1,.578,1.275c.068.187.119.289.2.289.068,0,.153-.1.255-.272a15.389,15.389,0,0,0,1.734-3.961c-.034,4.029-.119,7.429-.119,7.735,0,.17.017.187.2.187h1.377c.17,0,.187-.017.187-.187,0-.306-.1-3.893-.119-8.381a14.65,14.65,0,0,0,.952,2.21c.1.2.17.306.221.306.068,0,.119-.1.2-.272.1-.255.272-.578.442-.9.017.051.068.051.17.051s.663-.034,2.295-.034h.561A12.61,12.61,0,0,1,46.1-1.36a3.24,3.24,0,0,1,.731.986c.119.255.187.374.289.374.085,0,.2-.085.391-.238a12.969,12.969,0,0,0,3.519-4.131c-.034,2.618-.1,5.151-.1,5.491,0,.153.017.17.187.17h1.394c.17,0,.187-.017.187-.17,0-.34-.085-2.941-.1-5.627A15.029,15.029,0,0,0,55.9-.323c.17.153.272.221.357.221.1,0,.17-.1.272-.34a4.611,4.611,0,0,1,.714-1.207,14.111,14.111,0,0,1-4.046-4.216H54.4c1.615,0,2.176.034,2.278.034.153,0,.17-.017.17-.2V-7.259c0-.153-.017-.17-.17-.17-.1,0-.663.034-2.278.034H52.649V-9.622H53.89c1.462,0,1.955.034,2.057.034.17,0,.187-.017.187-.187v-1.207c0-.187-.017-.2-.187-.2-.1,0-.6.034-2.057.034H52.649v-.578a5.139,5.139,0,0,1,.119-1.768.943.943,0,0,0,.1-.374c0-.085-.1-.153-.289-.17-.578-.068-1.088-.1-1.717-.119a16.741,16.741,0,0,1,.119,2.465v.544H49.759c.068-.255.136-.493.187-.731a1.87,1.87,0,0,1,.2-.629.629.629,0,0,0,.136-.323c0-.119-.119-.17-.272-.221a10.494,10.494,0,0,0-1.462-.306,4.864,4.864,0,0,1-.119,1.054A10.506,10.506,0,0,1,47-8.653a3.451,3.451,0,0,1,.969.493c.2.153.306.221.391.221.1,0,.153-.1.272-.34a12.271,12.271,0,0,0,.595-1.343Zm16.32.306a26.719,26.719,0,0,0,1.173,6.749c.85,2.516,2.04,3.723,3.332,3.74,1,.017,1.717-.9,2.057-3.077.068-.527.068-.527-.425-.8a5.5,5.5,0,0,1-1.105-.765c-.1,1.547-.306,2.482-.765,2.482-.51,0-1.037-.986-1.53-2.516a21.5,21.5,0,0,1-.969-5.814h2.023c1.547,0,2.074.034,2.176.034.17,0,.187-.017.187-.2v-1.343c0-.187-.017-.2-.187-.2-.1,0-.629.034-2.176.034H69v-.748a5.74,5.74,0,0,1,.085-1.717,1.1,1.1,0,0,0,.1-.357c0-.1-.1-.187-.272-.2-.578-.068-1.241-.085-1.853-.1A16.2,16.2,0,0,1,67.2-11.7c0,.238.017.476.017.7h-6.1c-1.547,0-2.074-.034-2.176-.034-.17,0-.17.017-.17.2v1.343c0,.187,0,.2.17.2.1,0,.629-.034,2.176-.034ZM64.532-5.542c1.428,0,1.9.034,2.006.034.187,0,.2-.017.2-.17V-6.953c0-.187-.017-.2-.2-.2-.1,0-.578.034-2.006.034H61.523c-1.445,0-1.921-.034-2.023-.034-.17,0-.187.017-.187.2v1.275c0,.153.017.17.187.17.1,0,.578-.034,2.023-.034H62.1V-1.8L60.469-1.5a9.31,9.31,0,0,1-1.632.2c.136.595.306,1.309.442,1.717.051.153.136.221.238.221a.634.634,0,0,0,.306-.119,2.275,2.275,0,0,1,.714-.255c1.836-.391,4.386-1.088,6.086-1.649.51-.153.51-.153.51-.714,0-.34.017-.765.051-1.071-1.02.357-2.193.68-3.315.952V-5.542Zm5.474-7.8c-.17.119-.2.17-.068.306a7.57,7.57,0,0,1,1.326,1.615c.051.085.1.136.153.136a.472.472,0,0,0,.221-.1l.8-.544c.2-.136.221-.2.119-.34a8.017,8.017,0,0,0-1.462-1.564c-.068-.068-.119-.1-.17-.1s-.1.034-.2.1ZM80.172-4.233a27.462,27.462,0,0,1-1.5,3.3c-.187,0-.374.017-.544.017a13.479,13.479,0,0,1-1.853,0c.1.6.2,1.19.357,1.751.034.153.119.238.238.238a.429.429,0,0,0,.289-.1,1.509,1.509,0,0,1,.612-.153c2.89-.221,6.358-.51,9.18-.867.272.408.561.85.85,1.326.051.085.085.119.136.119s.1-.034.2-.1L89.318.527c.17-.119.17-.187.085-.323A30,30,0,0,0,86.241-3.74c-.119-.119-.17-.136-.357-.034L84.8-3.213c-.2.1-.221.17-.1.306.459.493.85.969,1.241,1.445-1.615.17-3.468.323-5.236.425a31.826,31.826,0,0,0,1.513-3.2h5.253c1.6,0,2.142.034,2.244.034.187,0,.2-.017.2-.187V-5.661c0-.17-.017-.187-.2-.187-.1,0-.646.034-2.244.034H78.4c-1.6,0-2.142-.034-2.244-.034-.187,0-.2.017-.2.187v1.275c0,.17.017.187.2.187.1,0,.646-.034,2.244-.034Zm-.68-3.315c0,.17.017.187.187.187.1,0,.561-.034,1.921-.034h2.618c1.36,0,1.819.034,1.921.034.17,0,.187-.017.187-.187V-8.806A18.729,18.729,0,0,0,89.573-7a1.169,1.169,0,0,0,.391.136c.119,0,.17-.119.289-.425a5.049,5.049,0,0,1,.731-1.275,15.309,15.309,0,0,1-7.191-4.862,1.447,1.447,0,0,1,.238-.153.28.28,0,0,0,.17-.272c0-.119-.1-.187-.306-.238a13.029,13.029,0,0,0-1.836-.357,5.07,5.07,0,0,1-.6,1.105A14.19,14.19,0,0,1,74.936-8.4,3.975,3.975,0,0,1,75.7-7.276c.136.306.187.425.306.425A1.114,1.114,0,0,0,76.415-7,19.882,19.882,0,0,0,79.492-8.84ZM81.6-8.976c-1.241,0-1.717-.017-1.87-.034a15.863,15.863,0,0,0,3.111-3.111A15.49,15.49,0,0,0,86.054-9.01c-.187.017-.7.034-1.836.034ZM105.009.714c1.615,0,2.159.034,2.261.034.187,0,.2-.017.2-.187V-.782c0-.17-.017-.187-.2-.187-.1,0-.646.034-2.261.034h-1.547V-7.293h1.071c1.513,0,2.04.017,2.142.017.17,0,.187,0,.187-.17V-8.789c0-.17-.017-.17-.187-.17-.1,0-.629.017-2.142.017h-1.071V-11.7a5.552,5.552,0,0,1,.136-1.87.69.69,0,0,0,.085-.357c0-.085-.119-.153-.272-.17-.6-.068-1.241-.1-1.887-.119a15.382,15.382,0,0,1,.136,2.567v2.7H100.9c-1.513,0-2.04-.017-2.142-.017-.153,0-.17,0-.17.17v1.343c0,.17.017.17.17.17.1,0,.629-.017,2.142-.017h.765V-.935h-1.428c-1.615,0-2.176-.034-2.278-.034-.17,0-.187.017-.187.187V.561c0,.17.017.187.187.187.1,0,.663-.034,2.278-.034ZM94.554-.833c0,1.258-.034,1.9-.034,2.006,0,.17.017.187.2.187h1.36c.187,0,.2-.017.2-.187,0-.085-.034-.748-.034-2.006V-5.61a12.69,12.69,0,0,0,1.462,1.581c.153.136.255.2.34.2.119,0,.2-.119.323-.374a4.077,4.077,0,0,1,.68-1.105,9.689,9.689,0,0,1-2.5-1.989,17.183,17.183,0,0,0,1.445-2.482,1.723,1.723,0,0,1,.391-.493.331.331,0,0,0,.17-.272c0-.119-.136-.289-.459-.612-.357-.34-.527-.442-.629-.442a.5.5,0,0,0-.187.068.571.571,0,0,1-.323.068h-.714v-.765a3.605,3.605,0,0,1,.1-1.36.8.8,0,0,0,.1-.357c0-.068-.1-.153-.272-.17-.612-.068-1.122-.1-1.768-.119a10.476,10.476,0,0,1,.136,2.074v.7h-.323c-1.292,0-1.7-.034-1.8-.034-.17,0-.187.017-.187.187v1.258c0,.17.017.187.187.187.1,0,.51-.034,1.8-.034h1.921a11.741,11.741,0,0,1-4.437,5.032,4.694,4.694,0,0,1,.6,1.207c.1.255.17.391.272.391.085,0,.187-.085.357-.221A17.762,17.762,0,0,0,94.554-4.9Z" transform="translate(517 692)" fill="#fff"/>
    </g>
  </g>
</svg>
