<svg id="グループ_4990" data-name="グループ 4990" xmlns="http://www.w3.org/2000/svg" xmlns:xlink="http://www.w3.org/1999/xlink" width="1773.636" height="1176.306" viewBox="0 0 1773.636 1176.306">
  <defs>
    <clipPath id="clip-path">
      <rect id="長方形_891" data-name="長方形 891" width="1773.636" height="1176.306" fill="none"/>
    </clipPath>
  </defs>
  <g id="グループ_4989" data-name="グループ 4989" clip-path="url(#clip-path)">
    <path id="パス_22391" data-name="パス 22391" d="M63.918,367.654C58.729,370.19-.6,400.062,0,443.551c.5,36.183,42.267,61.153,59.919,71.9,16.765,10.206,33.81,14.8,67.908,23.968,42.147,11.337,65.811,17.7,99.865,19.973,10.522.7,23.852,1.746,23.968,3.995.2,3.715-36.247,1.446-71.9,19.973-11.361,5.9-49.633,25.793-55.924,63.913-2.872,17.416.507,41.192,15.978,55.924,8.584,8.173,19.038,10.773,39.946,15.978,26.232,6.531,35.1,3.675,59.919,11.984,20.756,6.951,25.693,12.679,27.962,15.978,7.674,11.161,4.774,23.776,3.995,35.951-1.682,26.256,4.35,57.478,15.978,75.9,18.463,29.236,62.208,43.9,95.87,39.946,19.446-2.281,32.584-10.426,67.908-11.984,18.735-.827,25.957.983,31.957,3.995,17.684,8.872,20.185,25.869,31.957,43.94,16.586,25.466,41.112,36.986,55.924,43.94,64.081,30.1,145.527-14.652,147.8-7.989,1.023,3-16.9,8.017-31.957,23.968-13.833,14.656-30.2,42.578-23.968,63.913,11.353,38.875,94.312,44.727,139.81,47.935,22.338,1.574,57.8,3.851,103.859-3.995,73.281-12.483,121.22-41.7,135.816-23.967,4.082,4.961.943,7.989,3.995,23.967,1.2,6.292,8.1,42.419,31.957,59.919,25.833,18.95,66.722,12.515,91.875,0,23.073-11.48,32.955-28.1,47.935-23.967,10.9,3,9.251,12.787,23.968,23.967,17.6,13.37,41.9,16.058,59.919,11.984,12.459-2.816,11.824-6.583,31.957-11.984,11.54-3.1,17.249-3.335,27.962-7.989,9.419-4.094,14.776-6.419,19.973-11.984,8.972-9.6,6.487-16.266,15.978-23.968,1.969-1.6,6.639-3.731,15.978-7.989a163.372,163.372,0,0,1,19.973-7.989,156.692,156.692,0,0,1,15.978-3.995c21.978-4.146,45.63.563,67.908,0,17.852-.451,30.774-4.186,43.94-7.989,18.4-5.317,58.88-17.568,83.886-51.93,5.125-7.042,9.935-13.805,11.984-23.968,3.783-18.778-6.723-25.058-3.995-43.94,2.545-17.616,14.261-29.939,19.973-35.951,6.475-6.811,13.725-11.293,27.962-19.973,23.36-14.245,24.962-12.327,35.951-19.973,11.009-7.662,34.9-24.283,35.951-47.935.827-18.571-12.551-32.384-15.978-35.951-15.247-15.87-35.736-18.8-43.94-19.973-17.285-2.473-32.081.615-51.93-3.995a34.138,34.138,0,0,1-15.978-7.989c-4.814-4.478-6.072-8.684-7.989-11.984-8.109-13.961-33.283-20.8-51.93-15.978-17.6,4.554-28.086,19.158-31.957,15.978-2.005-1.646-.436-6.583,0-7.989,4.726-15.239,13.082-57.222,7.989-75.9-9.052-33.179-78.625-58.637-111.848-47.935-2.3.743-22.114,7.354-35.951,0-1.8-.955-3.451-2.121-3.995-3.995-2.321-8,18.283-20.332,23.968-23.968,37.992-24.3,61.876-77.523,71.9-99.865,15.711-35,29.388-64.521,19.973-99.865-1.122-4.21-13.933-49.685-51.93-63.913-5.872-2.2-25.777-9.651-47.935-3.995-16.09,4.106-28.294,13.833-39.946,7.989-3.475-1.742-6.607-4.722-14.512-7.969a132.932,132.932,0,0,0-13.45-4.015c-29.065-7.142-44.3,3.383-75.9-3.995-12.771-2.984-8.477-3.931-23.968-7.989-29.188-7.646-71.068-11.257-79.892-11.984-4.362-.36-9.843-.767-15.978-3.995-15.915-8.369-19.8-27.039-19.973-27.962-2.241-11.648,2.021-18.583,3.995-27.962,5.788-27.515-11.125-61.724-35.951-79.892-18.691-13.677-38.224-14.864-59.919-15.978-61.788-3.18-85.612,25-119.838,11.984-18.755-7.134-11.6-17.552-43.94-47.935-10.438-9.811-35.931-33.367-71.9-47.935-32.544-13.178-42.77-6.487-87.881-15.978-41.935-8.824-51.666-18.511-91.875-31.957C611.719,16.286,555.991-1.838,487.344.152,468.5.7,399.207,4.194,323.566,44.092c-33.463,17.648-65.723,34.7-91.876,71.9-14.456,20.564-42.738,60.8-31.957,99.865,4.2,15.235,12.635,24.087,11.984,43.94-.7,21.283-11.245,37.05-15.978,43.94-4.638,6.751-17.348,23.444-51.93,39.946-40.389,19.274-50.06,9.4-79.892,23.968" transform="translate(0 0)" fill="#001650"/>
  </g>
</svg>
