<svg id="グループ_4983" data-name="グループ 4983" xmlns="http://www.w3.org/2000/svg" xmlns:xlink="http://www.w3.org/1999/xlink" width="500.222" height="208.611" viewBox="0 0 500.222 208.611">
  <defs>
    <clipPath id="clip-path">
      <rect id="長方形_889" data-name="長方形 889" width="500.222" height="208.611" fill="none"/>
    </clipPath>
  </defs>
  <g id="グループ_4982" data-name="グループ 4982" clip-path="url(#clip-path)">
    <path id="パス_22389" data-name="パス 22389" d="M12,74.91C9.974,76.385-.13,83.735,0,93.91c.078,6.057,3.747,10.518,5,12,12.547,14.84,39.717,10.308,40,14,.212,2.767-15.226,2.951-20,13-1.589,3.344-2.493,8.826,0,13,6.04,10.112,26.34,3.04,31,12,2.861,5.5-3.805,10.068-1,18,3.12,8.821,14.6,12.333,17,13,14.341,3.993,23.038-4.832,31,1,4.74,3.472,2.293,7.065,7,12,9.043,9.48,28.717,7.374,41,3,10.941-3.9,13.181-8.58,23-9,6.143-.263,6.677,1.51,18,4,11.816,2.6,25.663,5.643,38,0a88.224,88.224,0,0,0,9-5c8.275-5.193,10.176-8.14,15-9,4.18-.745,6.366.825,11,2,15.3,3.88,30.449-3.35,36-6,10.174-4.856,9.784-8.061,18-10,2.769-.654,12.976-3.063,22,2,9.866,5.535,8,14.213,17,17,4.04,1.251,11.388,1.662,17-2,3.5-2.286,5.2-5.425,8-5,2.331.354,2.682,2.763,5,5,6.6,6.368,21.982,4.452,26-1,.522-.708,2.163-2.788,4.651-5.758A15.618,15.618,0,0,1,421,179.91a25,25,0,0,1,13-5c4.852-.524,6.317.66,11,1,11.651.847,23.163-4.982,28-12a14.385,14.385,0,0,0,3-8c.047-2.835-1.016-3.569-1-6,.031-4.752,4.133-8.359,6-10,5.464-4.8,8.315-2.922,13-7,.406-.353,7.555-6.731,6-13-1.6-6.454-11.527-9.159-18-9-1.683.041-3.766,1.892-6,1-1.434-.573-2.051-1.727-3-3-1.322-1.772-3.8-4.794-7-6-3.565-1.343-8.887-.683-11,2a5.334,5.334,0,0,1-2,2c-1.253.59-2.133.138-4,0a18.754,18.754,0,0,0-7,1c-2.331.73-2.624,1.045-4,1-1.886-.062-2.064-.858-4-1a11.611,11.611,0,0,0-5,1,13.964,13.964,0,0,1-3.5.945c-.018,0-.28.041-.5.055a7.972,7.972,0,0,1-5-1c-1.781-1.247-1.413-2.884-3-7-.994-2.577-1.971-5.112-4-7-2.258-2.1-4.885-2.516-8-3-6.1-.949-15.509-.218-18,4a3.951,3.951,0,0,1-2,2c-1.489.509-3.1-.46-4-1a9.419,9.419,0,0,1-3-3c-2.9-4.11-9.78-4.017-11-4-3.113.045-5.742,1.363-11,4a59.418,59.418,0,0,0-7,4c-7.336,4.639-10.156,8.936-15,10-5.134,1.128-6.122-2.541-12-1-3.559.933-5.784,2.957-7,2-1.053-.829-.485-3.192,0-5,.646-2.406,3.02-11.247,3-16-.022-5.235-2.974-12.013-9-15-4.583-2.272-12.267-1.345-16,1a5.379,5.379,0,0,1-3,1c-2.18-.028-3.133-1.739-5-3-4.093-2.763-9.919-1.61-13-1-3,.593-4.91,2.055-7,1-1.005-.507-1.1-1.083-2-2-3.1-3.168-8.552-3.076-13-3-3.458.059-4,.526-6,0-.582-.153-4.234-1.112-6-4-1.9-3.108-.111-5.889,0-10,.181-6.695-4.777-13.01-9-16-9.6-6.8-24.72-2.91-29-1a10.5,10.5,0,0,1-4,1,11.98,11.98,0,0,1-8-3c-2.807-2.553-2.268-4.819-4-8-3.5-6.434-11.889-8.5-22-11-4.861-1.2-7.311-1.372-11-2-14.174-2.412-21.117-7.2-29-10C98.846-5.307,74.685,6.2,69,8.91c-6.39,3.044-19.721,9.394-25,22-.521,1.243-5.674,13.55-2,19a10.109,10.109,0,0,1,2,5,10.767,10.767,0,0,1-1,5c-2.931,6.176-19,6.266-31,15" fill="#001650"/>
  </g>
</svg>
